<svg width="86" height="86" viewBox="0 0 86 86" fill="none" xmlns="http://www.w3.org/2000/svg">
<path d="M72.4185 29.4185C72.4185 13.1711 59.2474 0 43.0001 0C26.7527 0 13.5816 13.1711 13.5816 29.4185C9.38128 29.9415 5.40979 32.6872 5.40979 39.0612V54.4242C5.40979 61.6154 10.4436 64.2303 15.2159 64.2303H19.9556C20.8582 64.2303 21.5899 63.4985 21.5899 62.596V30.9548C21.5899 30.0522 20.8582 29.3204 19.9556 29.3204H16.8503C16.8503 14.8784 28.558 3.17066 43.0001 3.17066C57.4421 3.17066 69.1498 14.8784 69.1498 29.3204H66.0445C65.142 29.3204 64.4102 30.0522 64.4102 30.9548V62.5469C64.4102 63.4495 65.142 64.1813 66.0445 64.1813H69.1498C68.6922 75.4094 63.2988 78.0407 52.5284 78.5146V77.4196C52.5284 75.6143 51.065 74.1509 49.2597 74.1509H38.9795C37.1742 74.1509 35.7108 75.6143 35.7108 77.4196V82.7313C35.7108 84.5366 37.1742 86 38.9795 86H49.2923C51.0977 86 52.5611 84.5366 52.5611 82.7313V81.7834C62.9229 81.3094 71.8792 79.1684 72.4185 64.0832C76.6188 63.5602 80.5903 60.8145 80.5903 54.4405V39.0775C80.5903 32.6708 76.6352 29.9415 72.4185 29.4185ZM18.3212 32.4747V60.9126H15.1342C12.7154 60.9126 8.59679 60.0627 8.59679 54.3751V39.0122C8.59679 33.3736 12.6663 32.4747 15.1342 32.4747H18.3212ZM49.2923 80.2634V82.7476H38.9795V77.436H49.2923V80.2634ZM77.3216 54.4242C77.3216 60.0627 73.2521 60.9616 70.7842 60.9616H67.6789V32.5891H70.8659C73.2847 32.5891 77.4033 33.439 77.4033 39.1266L77.3216 54.4242Z" fill="white"/>
</svg>
