<svg width="86" height="86" viewBox="0 0 86 86" fill="none" xmlns="http://www.w3.org/2000/svg">
<path d="M32.5068 62.6729C25.5301 62.6675 18.7711 60.2434 13.3813 55.8135C7.99142 51.3836 4.30417 45.222 2.94768 38.3785C1.59119 31.5349 2.64939 24.4327 5.94199 18.2819C9.2346 12.131 14.5579 7.31201 21.0051 4.6458C27.4522 1.97959 34.6243 1.63114 41.2996 3.65981C47.9748 5.68847 53.7402 9.96876 57.6136 15.7715C61.4869 21.5742 63.2286 28.5403 62.5419 35.4831C61.8552 42.426 58.7827 48.9159 53.8476 53.8474C51.0471 56.6516 47.7201 58.8749 44.0578 60.3894C40.3954 61.904 36.47 62.68 32.5068 62.6729ZM32.5068 4.66126C26.0674 4.6663 19.8288 6.90379 14.854 10.9926C9.87918 15.0813 6.47584 20.7684 5.22377 27.085C3.9717 33.4016 4.94836 39.9569 7.98736 45.6341C11.0264 51.3114 15.9397 55.7594 21.8904 58.2204C27.841 60.6814 34.4609 61.0032 40.6221 59.1309C46.7834 57.2586 52.105 53.308 55.6802 47.9522C59.2555 42.5965 60.8633 36.1668 60.2297 29.7585C59.5961 23.3503 56.7603 17.36 52.2055 12.808C49.6202 10.2196 46.549 8.16751 43.1683 6.76945C39.7876 5.37138 36.164 4.65494 32.5057 4.66126H32.5068Z" fill="white"/>
<path d="M74.519 83.6754C74.4028 83.6754 74.2784 83.6754 74.1576 83.6685C72.8916 83.6164 71.6499 83.3039 70.5101 82.7504C69.3704 82.1969 68.357 81.4144 67.5332 80.4516L52.1927 62.3904C52.0866 62.2655 52.0081 62.1195 51.9624 61.9621C51.9168 61.8047 51.9049 61.6394 51.9276 61.4771C51.9503 61.3148 52.0071 61.1591 52.0943 61.0202C52.1814 60.8814 52.297 60.7626 52.4333 60.6716C52.5232 60.6079 52.6072 60.5364 52.6843 60.4578L60.4592 52.6829C60.534 52.6119 60.6021 52.5341 60.6625 52.4505C60.7524 52.3117 60.8707 52.1936 61.0098 52.1042C61.1489 52.0148 61.3054 51.956 61.469 51.932C61.6326 51.9079 61.7994 51.919 61.9583 51.9645C62.1173 52.01 62.2647 52.0889 62.3907 52.196L80.4518 67.5365C81.4143 68.3582 82.1965 69.37 82.7493 70.5084C83.3021 71.6468 83.6137 72.8871 83.6643 74.1516C83.7149 75.4161 83.5036 76.6775 83.0436 77.8564C82.5835 79.0353 81.8848 80.1064 80.9911 81.0025C79.2721 82.7143 76.945 83.6755 74.519 83.6754ZM54.6902 61.7396L69.3021 78.9454C69.9151 79.663 70.6697 80.2463 71.5186 80.6587C72.3675 81.0712 73.2924 81.3039 74.2354 81.3425C75.1784 81.381 76.1192 81.2244 76.9989 80.8825C77.8786 80.5407 78.6783 80.0209 79.3478 79.3557C80.0151 78.6865 80.5368 77.8865 80.8803 77.0061C81.2237 76.1257 81.3815 75.1838 81.3436 74.2395C81.3057 73.2952 81.0731 72.3689 80.6602 71.5188C80.2474 70.6687 79.6632 69.9131 78.9445 69.2995L61.7445 54.6888L54.6902 61.7396Z" fill="white"/>
<path d="M51.22 63.3971C50.6403 63.397 50.0663 63.2823 49.531 63.0597C48.9957 62.8372 48.5097 62.5111 48.1007 62.1001L45.4103 59.4097C45.2993 59.3025 45.2108 59.1743 45.1499 59.0325C45.089 58.8907 45.0569 58.7382 45.0556 58.5839C45.0542 58.4296 45.0836 58.2766 45.1421 58.1337C45.2005 57.9909 45.2868 57.8612 45.3959 57.752C45.505 57.6429 45.6348 57.5566 45.7776 57.4982C45.9205 57.4398 46.0735 57.4104 46.2278 57.4117C46.3821 57.413 46.5346 57.4451 46.6764 57.506C46.8182 57.5669 46.9464 57.6554 47.0536 57.7664L49.7406 60.4568C50.0853 60.804 50.5419 61.0179 51.0293 61.0604C51.5167 61.103 52.0034 60.9715 52.4031 60.6893C52.5003 60.6194 52.5917 60.5417 52.6762 60.4568L60.4545 52.6797C60.5371 52.5996 60.6126 52.5125 60.68 52.4193C60.9656 52.0195 61.0998 51.5311 61.0585 51.0414C61.0172 50.5517 60.8031 50.0927 60.4545 49.7464L57.7641 47.056C57.5524 46.8368 57.4353 46.5432 57.4379 46.2385C57.4406 45.9338 57.5628 45.6423 57.7783 45.4268C57.9937 45.2113 58.2852 45.0891 58.5899 45.0865C58.8947 45.0838 59.1882 45.201 59.4074 45.4127L62.0978 48.1031C62.8343 48.8343 63.2876 49.803 63.3772 50.8369C63.4668 51.8708 63.1868 52.903 62.5871 53.75C62.4418 53.958 62.278 54.1525 62.0978 54.3311L54.3195 62.1083C53.9144 62.5198 53.4313 62.8464 52.8985 63.0691C52.3658 63.2918 51.7939 63.4061 51.2165 63.4053L51.22 63.3971Z" fill="white"/>
<path d="M27.5991 41.2102C27.4464 41.2106 27.2952 41.1807 27.1541 41.1223C27.0131 41.0638 26.885 40.978 26.7774 40.8697L21.9707 36.0642C21.759 35.845 21.6419 35.5514 21.6445 35.2467C21.6472 34.942 21.7694 34.6505 21.9849 34.435C22.2003 34.2195 22.4918 34.0973 22.7965 34.0947C23.1012 34.092 23.3948 34.2092 23.614 34.4209L27.5991 38.4048L41.409 24.5948C41.6282 24.3831 41.9218 24.266 42.2265 24.2686C42.5312 24.2712 42.8227 24.3935 43.0382 24.6089C43.2537 24.8244 43.3759 25.1159 43.3785 25.4206C43.3812 25.7253 43.264 26.0189 43.0523 26.2381L28.4207 40.8697C28.2028 41.0877 27.9073 41.2101 27.5991 41.2102Z" fill="white"/>
<path d="M32.5057 55.4883C27.1886 55.4849 22.0373 53.6381 17.9292 50.2625C13.8211 46.8869 11.0105 42.1914 9.97628 36.9759C8.94204 31.7604 9.74812 26.3477 12.2572 21.6599C14.7663 16.9721 18.8231 13.2993 23.7365 11.2672C28.6499 9.2351 34.1159 8.96947 39.2032 10.5156C44.2905 12.0616 48.6843 15.3238 51.6361 19.7462C54.5879 24.1686 55.9151 29.4777 55.3914 34.7689C54.8678 40.0601 52.5257 45.006 48.7643 48.764C46.6307 50.9004 44.096 52.5942 41.3058 53.7481C38.5157 54.9021 35.525 55.4934 32.5057 55.4883ZM32.5057 11.8468C27.7261 11.8502 23.0955 13.5106 19.4029 16.5453C15.7103 19.58 13.1841 23.8011 12.2548 28.4895C11.3254 33.1778 12.0504 38.0434 14.3062 42.2572C16.562 46.471 20.209 49.7722 24.6259 51.5986C29.0429 53.4249 33.9564 53.6633 38.5293 52.2731C43.1023 50.8829 47.0518 47.9502 49.7048 43.9745C52.3579 39.9989 53.5505 35.2264 53.0794 30.47C52.6082 25.7137 50.5025 21.2679 47.121 17.89C45.2031 15.9695 42.9246 14.447 40.4164 13.4099C37.9082 12.3728 35.2198 11.8416 32.5057 11.8468Z" fill="white"/>
</svg>
