<svg width="20" height="20" viewBox="0 0 20 20" fill="none" xmlns="http://www.w3.org/2000/svg">
<g clip-path="url(#clip0)">
<path d="M10 20C15.5137 20 20 15.5141 20 10C20 9.04826 19.8671 8.11035 19.6041 7.21212C19.4745 6.77043 19.0133 6.51672 18.5704 6.64632C18.1283 6.77551 17.8754 7.23836 18.0046 7.68005C18.2225 8.42631 18.3333 9.20715 18.3333 10C18.3333 14.5949 14.5949 18.3333 10 18.3333C5.40507 18.3333 1.66667 14.5949 1.66667 10C1.66667 5.40507 5.40507 1.66667 10 1.66667C11.6699 1.66667 13.2766 2.15495 14.6462 3.07841C15.0275 3.33577 15.5459 3.23466 15.8028 2.85339C16.06 2.47172 15.9597 1.95374 15.578 1.69657C13.9321 0.586751 12.0034 0 10 0C4.48629 0 0 4.48588 0 10C0 15.5141 4.48629 20 10 20Z" fill="#fff"/>
<path d="M18.5765 1.91086L9.99906 10.4879L7.25492 7.74419C6.9294 7.41887 6.40206 7.41887 6.07654 7.74419C5.75122 8.06971 5.75122 8.59706 6.07654 8.92258L9.40987 12.2559C9.57284 12.4189 9.78564 12.5001 9.99906 12.5001C10.2125 12.5001 10.4253 12.4189 10.5883 12.2559L19.7549 3.08924C20.0802 2.76372 20.0802 2.23638 19.7549 1.91086C19.4294 1.58554 18.9021 1.58554 18.5765 1.91086Z" fill="#fff"/>
</g>
<defs>
<clipPath id="clip0">
<rect width="20" height="20" fill="white"/>
</clipPath>
</defs>
</svg>
