<svg fill="none" xmlns="http://www.w3.org/2000/svg" viewBox="0 0 40 40"><path d="M28.68 14.65a1.67 1.67 0 00-2.36 0l-7.15 7.16-3-2.99a1.67 1.67 0 10-2.35 2.36L18 25.34a1.66 1.66 0 002.36 0l8.33-8.33c.65-.65.65-1.7 0-2.36z" fill="#0067AA"/><path d="M38.33 18.33c-.92 0-1.66.75-1.66 1.67 0 9.19-7.48 16.67-16.67 16.67A16.69 16.69 0 013.33 20a16.69 16.69 0 0128.5-11.74 1.66 1.66 0 102.36-2.35A20.02 20.02 0 000 20c.01 11.02 8.98 19.99 20.01 19.99 11.03 0 20-8.97 20-20 0-.92-.75-1.67-1.67-1.67z" fill="#0067AA"/></svg>