<svg width="86" height="86" viewBox="0 0 86 86" fill="none" xmlns="http://www.w3.org/2000/svg">
<g clip-path="url(#clip0)">
<path d="M21.8291 66.454C21.2004 65.9582 20.3473 65.8344 19.603 66.1312L15.2676 67.861C14.5236 68.1578 13.99 68.8347 13.8749 69.6275L13.2054 74.247C13.0903 75.0399 13.4097 75.8405 14.0387 76.3363L17.7045 79.2259C18.1067 79.5432 18.6007 79.7081 19.0993 79.7081C19.3801 79.7081 19.6625 79.6557 19.9307 79.5487L24.266 77.819C25.0101 77.5222 25.5437 76.8453 25.6588 76.0525L26.3285 71.433C26.4434 70.6402 26.1239 69.8396 25.4948 69.3438L21.8291 66.454ZM23.1992 75.5459L19.1396 77.1656L15.707 74.4596L16.334 70.1339L20.3936 68.5142L23.8262 71.2202L23.1992 75.5459Z" fill="white"/>
<path d="M79.4657 9.86541C79.2826 9.35328 78.835 8.98055 78.2975 8.89271C77.7561 8.80419 77.2126 9.01633 76.8748 9.44516L69.9076 18.2828C69.8255 18.3871 69.6892 18.4348 69.5594 18.4048L63.9064 17.0827C63.8066 17.0595 63.7233 16.9937 63.6773 16.9023L61.0723 11.7144C61.0126 11.5955 61.0272 11.4512 61.1092 11.3469L68.0764 2.50905C68.4145 2.08006 68.4928 1.50057 68.281 0.996664C68.07 0.494605 67.6031 0.146406 67.0625 0.0881208C61.9267 -0.466512 56.9552 1.621 53.7616 5.67241C50.5705 9.72029 49.701 15.0394 51.4352 19.901C51.6044 20.3752 51.5192 20.8944 51.2078 21.2896L43.0098 31.6889C42.3427 31.6797 41.694 31.8871 41.1522 32.2951L40.419 32.8469L38.9755 30.9289L39.7135 30.3734C40.3587 29.8878 40.7761 29.1801 40.889 28.3806C41.0017 27.5811 40.7964 26.7856 40.311 26.1404L23.7844 4.18286C22.1658 2.03236 19.8065 0.640906 17.1414 0.264656C14.4772 -0.111258 11.8242 0.572879 9.6735 2.19159C7.52283 3.81014 6.13137 6.16943 5.75529 8.83459C5.37921 11.4998 6.06351 14.152 7.68223 16.3025L9.11803 18.2103C9.53392 18.7632 10.3198 18.8744 10.873 18.4579C11.4259 18.0416 11.5369 17.2559 11.1207 16.7029L9.68492 14.7951C8.46883 13.1796 7.95484 11.187 8.23737 9.1848C8.52006 7.18262 9.56533 5.41021 11.1809 4.19412C12.7965 2.97802 14.789 2.46387 16.7912 2.74656C18.7934 3.02909 20.5658 4.07452 21.7819 5.69021L38.3085 27.6478C38.4202 27.7964 38.4183 27.9513 38.4072 28.0304C38.396 28.1095 38.3552 28.2588 38.2065 28.3707L32.5705 32.6128L28.674 35.5455C28.6738 35.5457 28.6736 35.5458 28.6733 35.546L26.9345 36.8546C26.7857 36.9665 26.6304 36.9643 26.5518 36.9534C26.4727 36.9423 26.3234 36.9013 26.2114 36.7527L14.5958 21.3202C14.1798 20.7673 13.3938 20.6561 12.8409 21.0726C12.2879 21.4889 12.1769 22.2746 12.5931 22.8276L24.2087 38.26C24.6941 38.9052 25.4019 39.3226 26.2013 39.4355C26.3447 39.4556 26.4878 39.4657 26.6301 39.4657C27.2812 39.4657 27.912 39.2559 28.4415 38.8575L29.1797 38.3019L30.6232 40.2197L29.89 40.7715C29.2437 41.2581 28.8255 41.9673 28.7124 42.7685C28.5994 43.5697 28.8051 44.3669 29.2917 45.0134L30.6751 46.8515C30.7369 46.9338 30.8026 47.012 30.8715 47.0868L21.3717 59.1375C21.0863 59.4995 20.6556 59.7056 20.2191 59.6922C15.9303 59.5455 11.8275 61.5064 9.24854 64.9336C7.20285 67.6524 6.30657 71.0279 6.72464 74.4385C7.14271 77.8488 8.82778 80.908 11.4694 83.0528C13.8408 84.9779 16.7322 85.9999 19.7389 85.9999C20.2295 85.9999 20.7238 85.9727 21.219 85.9176C24.7482 85.5256 27.9021 83.7742 30.1002 80.9859C32.6733 77.7219 33.5531 73.3756 32.4539 69.3594C32.3333 68.9192 32.4311 68.4412 32.7151 68.0807L33.6746 66.8634C34.103 66.3199 34.01 65.5318 33.4663 65.1033C32.9227 64.6748 32.1346 64.7679 31.7061 65.3117L30.7465 66.529C29.972 67.5115 29.7065 68.8169 30.0358 70.0212C30.9261 73.2735 30.2142 76.7922 28.1314 79.4342C26.352 81.6914 23.7987 83.1092 20.9418 83.4265C18.0862 83.7438 15.2825 82.9199 13.049 81.1065C8.65628 77.5399 7.84986 70.9605 11.2512 66.4401C13.3392 63.6653 16.6615 62.0792 20.1341 62.1968C21.364 62.2397 22.5626 61.6747 23.3396 60.6889L33.3022 48.0511C33.8828 48.0125 34.4405 47.8079 34.9163 47.4498L36.9939 45.886L41.8906 52.3917L35.3007 60.751C34.8722 61.2946 34.9652 62.0827 35.5089 62.5112C36.0523 62.9395 36.8404 62.8465 37.2691 62.3027L43.4495 54.4628L58.1916 74.0495L61.4126 80.9313C61.646 81.43 62.0228 81.8372 62.5023 82.1084L68.2046 85.3344C68.6092 85.5636 69.057 85.6766 69.503 85.6766C70.0638 85.6766 70.622 85.4979 71.0891 85.1463L72.3925 84.165C73.2314 83.5338 73.6155 82.4662 73.3718 81.4453L71.8495 75.0734C71.7215 74.5376 71.4348 74.0627 71.0197 73.6999L65.2982 68.7007L49.1445 47.2385L62.5516 30.2321C62.8633 29.8367 63.3498 29.6328 63.8485 29.6866C68.9823 30.2378 73.9498 28.1508 77.1407 24.1028C80.3348 20.0514 81.2037 14.7291 79.4657 9.86541ZM36.973 32.4362L38.4165 34.3541L35.9898 36.1804L32.6259 38.7122L31.1824 36.7943L36.973 32.4362ZM33.4097 45.4471C33.1794 45.6203 32.8512 45.5742 32.6778 45.3439L31.2944 43.5057C31.1812 43.3552 31.1831 43.1985 31.1943 43.1185C31.2057 43.0384 31.2471 42.8872 31.3976 42.774L33.1315 41.4689C33.1317 41.4687 33.1318 41.4687 33.132 41.4686L34.9845 40.0743L42.6597 34.2976C42.7724 34.2128 42.8886 34.1927 42.9736 34.1927C43.0019 34.1927 43.0269 34.195 43.0469 34.1977C43.1268 34.209 43.2782 34.2504 43.3914 34.4009L44.7749 36.239C44.9483 36.4693 44.9019 36.7975 44.6716 36.9709L33.4097 45.4471ZM69.3709 75.5876C69.3914 75.6055 69.4057 75.629 69.4121 75.6557L70.9344 82.028C70.9465 82.0785 70.9273 82.1313 70.8857 82.1627L69.5821 83.144C69.5406 83.1752 69.4843 83.1789 69.4393 83.1532L63.7371 79.9272C63.7132 79.9138 63.6948 79.8934 63.683 79.8689L60.8381 73.7901L64.3169 71.1718L69.3709 75.5876ZM62.6208 69.3111L59.5197 71.6453L38.9973 44.3788L42.0984 42.0447L62.6208 69.3111ZM75.1726 22.5511C72.5188 25.9175 68.3861 27.6536 64.1164 27.1944C62.7521 27.0476 61.4322 27.6034 60.5833 28.6804L47.5861 45.1676L44.1009 40.5372L46.1785 38.9734C46.825 38.487 47.2432 37.7776 47.3563 36.9766C47.4693 36.1754 47.2637 35.3782 46.7771 34.7317L45.3936 32.8936C45.3705 32.863 45.3445 32.8355 45.3205 32.8057L53.1759 22.841C54.0246 21.7642 54.2564 20.3502 53.7957 19.0587C52.353 15.0143 53.0759 10.5902 55.7295 7.22394C57.9855 4.36225 61.3089 2.67853 64.8763 2.51913L59.1403 9.79503C58.4587 10.6597 58.3376 11.8545 58.8317 12.8388L61.4369 18.027C61.8174 18.7849 62.5094 19.3301 63.3351 19.5233L68.9883 20.8454C70.0606 21.0958 71.1942 20.6991 71.8757 19.8344L77.6115 12.5585C78.2897 16.0648 77.4286 19.6892 75.1726 22.5511Z" fill="white"/>
<path d="M12.6677 10.9316C12.1147 11.3478 12.0037 12.1336 12.4199 12.6865L26.0996 30.8616C26.3459 31.1888 26.7216 31.3613 27.1019 31.3613C27.3641 31.3613 27.6288 31.2792 27.8546 31.1093C28.4075 30.6931 28.5186 29.9074 28.1023 29.3544L14.4224 11.1792C14.0064 10.6262 13.2206 10.515 12.6677 10.9316Z" fill="white"/>
<path d="M31.6776 27.917C31.9398 27.917 32.2045 27.8349 32.4303 27.6651C32.9832 27.2489 33.0942 26.4631 32.678 25.9102L18.9983 7.73509C18.5822 7.18214 17.7965 7.07094 17.2434 7.48751C16.6904 7.90373 16.5794 8.68949 16.9956 9.24244L30.6752 27.4175C30.9216 27.7447 31.2973 27.917 31.6776 27.917Z" fill="white"/>
</g>
<defs>
<clipPath id="clip0">
<rect width="86" height="86" fill="white"/>
</clipPath>
</defs>
</svg>
