<svg width="86" height="86" viewBox="0 0 86 86" fill="none" xmlns="http://www.w3.org/2000/svg">
<g clip-path="url(#clip0)">
<g clip-path="url(#clip1)">
<path d="M68.3173 47.1953H76.3798C76.9376 47.1953 77.3895 47.6474 77.3895 48.2051C77.3895 48.7628 76.9376 49.2148 76.3798 49.2148H68.3173C67.7595 49.2148 67.3075 48.7628 67.3075 48.2051C67.3075 47.6474 67.7595 47.1953 68.3173 47.1953Z" fill="#E52713" stroke="white" stroke-width="0.5"/>
<path d="M68.3173 52.374H76.3798C76.9376 52.374 77.3895 52.8261 77.3895 53.3838C77.3895 53.9415 76.9376 54.3936 76.3798 54.3936H68.3173C67.7595 54.3936 67.3075 53.9415 67.3075 53.3838C67.3075 52.8261 67.7595 52.374 68.3173 52.374Z" fill="#E52713" stroke="white" stroke-width="0.5"/>
<path d="M68.3173 42.0171H76.3798C76.9376 42.0171 77.3895 42.4692 77.3895 43.0269C77.3895 43.5845 76.9376 44.0366 76.3798 44.0366H68.3173C67.7595 44.0366 67.3075 43.5845 67.3075 43.0269C67.3075 42.4692 67.7595 42.0171 68.3173 42.0171Z" fill="#E52713" stroke="white" stroke-width="0.5"/>
<path d="M55.9131 43.6103H56.1631V43.3603V42.1665C56.1631 41.1811 56.9653 40.3789 57.9508 40.3789H61.3968C62.3823 40.3789 63.1843 41.181 63.1843 42.1665V54.4123C63.1843 55.3052 62.4575 56.032 61.5648 56.032H47.7878C46.8951 56.032 46.1683 55.3052 46.1683 54.4123V48.5126C46.1683 47.5273 46.9705 46.7251 47.9558 46.7251H50.9198H51.1698V46.4751V45.3977C51.1698 44.4124 51.9719 43.6103 52.9572 43.6103H55.9131ZM50.9198 54.0124H51.1698V53.7624V48.9946V48.7446H50.9198H48.4379H48.1879V48.9946V53.7624V54.0124H48.4379H50.9198ZM55.9131 54.0124H56.1631V53.7624V45.8798V45.6298H55.9131H53.4393H53.1893V45.8798V45.889V45.8983V45.9076V45.917V45.9265V45.9361V45.9457V45.9554V45.9652V45.975V45.985V45.9949V46.005V46.0151V46.0253V46.0356V46.0459V46.0563V46.0668V46.0773V46.088V46.0986V46.1094V46.1202V46.1311V46.142V46.153V46.1641V46.1752V46.1865V46.1977V46.2091V46.2205V46.2319V46.2435V46.2551V46.2667V46.2784V46.2902V46.3021V46.314V46.3259V46.338V46.3501V46.3622V46.3744V46.3867V46.3991V46.4115V46.4239V46.4364V46.449V46.4616V46.4743V46.4871V46.4999V46.5127V46.5257V46.5386V46.5517V46.5648V46.5779V46.5911V46.6044V46.6177V46.6311V46.6445V46.658V46.6715V46.6851V46.6987V46.7124V46.7262V46.74V46.7538V46.7677V46.7817V46.7957V46.8097V46.8238V46.838V46.8522V46.8665V46.8808V46.8951V46.9096V46.924V46.9385V46.9531V46.9677V46.9823V46.997V47.0118V47.0266V47.0414V47.0563V47.0712V47.0862V47.1012V47.1163V47.1314V47.1465V47.1617V47.177V47.1923V47.2076V47.223V47.2384V47.2538V47.2693V47.2849V47.3005V47.3161V47.3318V47.3475V47.3632V47.379V47.3948V47.4107V47.4266V47.4426V47.4585V47.4746V47.4906V47.5067V47.5229V47.539V47.5553V47.5715V47.5878V47.6041V47.6205V47.6369V47.6533V47.6698V47.6862V47.7028V47.7193V47.7359V47.7526V47.7692V47.7859V47.8027V47.8194V47.8362V47.8531V47.8699V47.8868V47.9037V47.9207V47.9377V47.9547V47.9717V47.9888V48.0059V48.023V48.0402V48.0574V48.0746V48.0918V48.1091V48.1264V48.1437V48.1611V48.1785V48.1959V48.2133V48.2308V48.2482V48.2657V48.2833V48.3008V48.3184V48.336V48.3536V48.3713V48.3889V48.4066V48.4243V48.4421V48.4598V48.4776V48.4954V48.5132V48.5311V48.549V48.5668V48.5847V48.6027V48.6206V48.6386V48.6565V48.6745V48.6926V48.7106V48.7286V48.7467V48.7648V48.7829V48.801V48.8191V48.8373V48.8554V48.8736V48.8918V48.91V48.9282V48.9465V48.9647V48.983V49.0013V49.0195V49.0378V49.0561V49.0745V49.0928V49.1112V49.1295V49.1479V49.1663V49.1846V49.203V49.2214V49.2399V49.2583V49.2767V49.2952V49.3136V49.3321V49.3505V49.369V49.3875V49.406V49.4245V49.443V49.4615V49.48V49.4985V49.517V49.5355V49.5541V49.5726V49.5911V49.6097V49.6282V49.6468V49.6653V49.6839V49.7024V49.721V49.7395V49.7581V49.7767V49.7952V49.8138V49.8323V49.8509V49.8694V49.888V49.9066V49.9251V49.9437V49.9622V49.9808V49.9993V50.0178V50.0364V50.0549V50.0735V50.092V50.1105V50.129V50.1475V50.166V50.1845V50.203V50.2215V50.24V50.2585V50.277V50.2954V50.3139V50.3323V50.3508V50.3692V50.3876V50.406V50.4244V50.4428V50.4612V50.4796V50.498V50.5163V50.5347V50.553V50.5713V50.5896V50.6079V50.6262V50.6445V50.6627V50.681V50.6992V50.7174V50.7356V50.7538V50.772V50.7901V50.8083V50.8264V50.8445V50.8626V50.8807V50.8987V50.9168V50.9348V50.9528V50.9708V50.9888V51.0067V51.0247V51.0426V51.0605V51.0783V51.0962V51.114V51.1318V51.1496V51.1674V51.1852V51.2029V51.2206V51.2383V51.2559V51.2736V51.2912V51.3088V51.3264V51.3439V51.3614V51.3789V51.3964V51.4138V51.4313V51.4487V51.466V51.4834V51.5007V51.518V51.5352V51.5525V51.5697V51.5868V51.604V51.6211V51.6382V51.6553V51.6723V51.6893V51.7063V51.7232V51.7401V51.757V51.7739V51.7907V51.8075V51.8242V51.8409V51.8576V51.8743V51.8909V51.9075V51.924V51.9405V51.957V51.9735V51.9899V52.0063V52.0226V52.0389V52.0552V52.0714V52.0876V52.1038V52.1199V52.136V52.1521V52.1681V52.184V52.2V52.2159V52.2317V52.2475V52.2633V52.279V52.2947V52.3104V52.326V52.3416V52.3571V52.3726V52.388V52.4034V52.4188V52.4341V52.4494V52.4646V52.4798V52.4949V52.51V52.5251V52.5401V52.555V52.5699V52.5848V52.5996V52.6144V52.6291V52.6438V52.6584V52.673V52.6876V52.702V52.7165V52.7309V52.7452V52.7595V52.7738V52.7879V52.8021V52.8162V52.8302V52.8442V52.8581V52.872V52.8859V52.8996V52.9134V52.927V52.9407V52.9542V52.9677V52.9812V52.9946V53.0079V53.0212V53.0345V53.0477V53.0608V53.0739V53.0869V53.0998V53.1127V53.1256V53.1384V53.1511V53.1638V53.1764V53.1889V53.2014V53.2139V53.2262V53.2385V53.2508V53.263V53.2751V53.2872V53.2992V53.3112V53.323V53.3349V53.3466V53.3583V53.37V53.3815V53.393V53.4045V53.4159V53.4272V53.4384V53.4496V53.4607V53.4718V53.4828V53.4937V53.5045V53.5153V53.5261V53.5367V53.5473V53.5578V53.5683V53.5786V53.5889V53.5992V53.6094V53.6195V53.6295V53.6395V53.6494V53.6592V53.6689V53.6786V53.6882V53.6977V53.7072V53.7166V53.7259V53.7351V53.7443V53.7534V53.7624V54.0124H53.4393H55.9131ZM58.1907 53.7624V54.0124H58.4407H60.6644H60.9144H60.9146V53.7624H61.1644V42.6484V42.3984H60.9144H58.4325H58.1825V42.6484C58.1825 42.7149 58.1828 42.8507 58.1832 43.0742C58.184 43.4828 58.1853 44.1843 58.1866 45.2911C58.1887 47.004 58.1907 49.6885 58.1907 53.7624Z" fill="#E52713" stroke="white" stroke-width="0.5"/>
<mask id="path-5-inside-1" fill="white">
<path d="M4.09817 77.0484H25.3834C26.0793 77.0484 26.6432 76.4844 26.6432 75.7887C26.6432 75.093 26.0793 74.5289 25.3834 74.5289H12.439V57.605C12.439 56.9092 11.8751 56.3452 11.1792 56.3452C10.4833 56.3452 9.91944 56.9092 9.91944 57.605V74.5289H4.09817C3.7792 74.5289 3.51952 74.2694 3.51952 73.9503V56.1193C3.51952 52.1327 6.34273 49.5195 8.24665 48.7312L16.4381 45.5321L21.3134 50.4072C23.1009 52.1952 25.5934 53.312 28.3229 53.3119C30.9541 53.3117 33.4708 52.2683 35.3325 50.4074L40.1391 45.6006V62.2733C40.1391 64.0559 41.5893 65.5062 43.3718 65.5062H44.2068V74.5293H31.2623C30.5664 74.5293 30.0025 75.0933 30.0025 75.789C30.0025 76.4847 30.5664 77.0488 31.2623 77.0488H52.5476C54.256 77.0488 55.6457 75.659 55.6457 73.9506V65.5062H60.8746V69.3693C59.3163 69.8962 58.1908 71.3713 58.1908 73.1052C58.1908 75.2797 59.9598 77.0488 62.1343 77.0488C64.3089 77.0488 66.0779 75.2797 66.0779 73.1052C66.0779 71.3713 64.9525 69.8962 63.3941 69.3693V65.5062H80.8967C82.6792 65.5062 84.1294 64.0559 84.1294 62.2733V51.1451C84.1294 50.4494 83.5656 49.8853 82.8697 49.8853C82.1738 49.8853 81.6099 50.4494 81.6099 51.1451V62.2733C81.6099 62.6667 81.2899 62.9867 80.8967 62.9867H54.386H43.372C42.9788 62.9867 42.6588 62.6667 42.6588 62.2733C42.6588 61.4796 42.6588 33.6141 42.6588 32.8204H81.6099V45.2662C81.6099 45.9619 82.1738 46.526 82.8697 46.526C83.5656 46.526 84.1294 45.9619 84.1294 45.2662V32.8204H84.1303C85.7127 32.8204 87 31.533 87 29.9505V27.5224C87 25.94 85.7127 24.6526 84.1303 24.6526H44.4191C44.1611 23.279 43.3839 22.0543 42.2798 21.2528C42.4003 20.9175 42.4693 20.5579 42.4693 20.1817V12.0445C42.4693 9.37948 40.1602 7.42315 37.7781 7.60607C37.4817 7.62908 37.1482 7.47724 37.0829 7.14365C36.5311 4.32263 34.7587 2.95117 31.6646 2.95117H20.9734C16.3612 2.95117 12.6089 6.70341 12.6089 11.3156V19.1129C12.6089 20.2054 13.0235 21.2028 13.7031 21.9566C12.7237 22.9493 12.1302 24.2853 12.1302 25.661C12.1302 28.2294 14.1349 30.5149 16.9649 30.8339C17.3697 33.7273 18.9214 36.5238 21.4164 38.385V40.8827C19.9992 41.4364 8.81908 45.8027 7.31812 46.3889C7.31107 46.3917 7.30401 46.3946 7.29696 46.3975C4.26429 47.6456 1 51.2203 1 56.1193V73.9504C1 75.6587 2.38977 77.0484 4.09817 77.0484ZM62.1343 71.681C62.9196 71.681 63.5584 72.3198 63.5584 73.1051C63.5584 73.8903 62.9196 74.5291 62.1343 74.5291C61.3491 74.5291 60.7103 73.8903 60.7103 73.1051C60.7103 72.3198 61.3491 71.681 62.1343 71.681ZM46.7263 65.506H53.1262V73.9504C53.1262 74.2694 52.8665 74.5291 52.5476 74.5291H46.7265V65.506H46.7263ZM25.0342 50.0199C26.5372 48.5066 25.9913 49.0562 27.499 47.5385C27.5007 47.5368 27.502 47.5349 27.5035 47.5333C27.6145 47.4207 27.7197 47.2795 27.784 47.1753H28.8402C28.9077 47.2857 29.0161 47.4283 29.1256 47.5385L31.5972 50.0267C29.5326 51.05 27.0967 51.0473 25.0342 50.0199ZM23.9342 41.1836C23.9354 41.1516 23.936 41.1196 23.936 41.0871V39.7936C26.5348 40.8307 29.7748 40.999 32.7025 39.8134L32.7036 41.0967C32.7036 41.1207 32.7041 41.1448 32.705 41.1688C31.2437 42.6197 30.6113 43.2476 29.1929 44.6558H27.4318C26.5451 43.7758 24.6472 41.8915 23.9342 41.1836ZM33.6542 48.5224C33.4123 48.279 31.5596 46.4137 31.2811 46.1332L34.2023 43.2329C35.9782 43.9208 35.8811 43.8831 37.6199 44.5565L33.6542 48.5224ZM40.1393 42.8303L35.2232 40.9266L35.221 38.3981C37.1162 36.985 38.556 34.9938 39.2764 32.6876C39.5487 32.7736 39.8381 32.8204 40.1384 32.8204H40.1393V42.8303ZM84.1303 27.1718C84.3233 27.1718 84.4805 27.3291 84.4805 27.522V29.9502C84.4805 30.1434 84.3233 30.3006 84.1303 30.3006C82.0134 30.3006 42.2966 30.3006 40.1384 30.3006C39.9454 30.3006 39.7882 30.1434 39.7882 29.9502C39.7882 28.5656 39.7882 28.8651 39.7882 27.522C39.7882 27.3289 39.9454 27.1717 40.1384 27.1717C42.7352 27.1718 81.5669 27.1718 84.1303 27.1718ZM40.5226 23.1141C41.1131 23.4419 41.5769 24.0006 41.8166 24.6521H40.1384C40.0242 24.6521 39.8651 24.6639 39.7882 24.6733V23.3242C40.0378 23.2847 40.3217 23.1992 40.5226 23.1141ZM16.8577 28.264C15.6028 27.965 14.6498 26.9227 14.6498 25.6608C14.6498 24.7392 15.2061 23.8115 16.0415 23.2842C16.2401 23.323 16.4433 23.3487 16.6504 23.3588C16.7195 23.3623 16.7885 23.364 16.8575 23.3642V28.264H16.8577ZM16.8602 20.8445C15.9267 20.8445 15.1285 20.0832 15.1285 19.1127V11.3156C15.1285 8.09267 17.7505 5.47069 20.9734 5.47069H31.6646C33.9985 5.47069 34.3795 6.44743 34.6102 7.62724C34.9123 9.17153 36.3593 10.242 37.9713 10.1182C38.9045 10.047 39.9496 10.8638 39.9496 12.0445V20.1812C39.9496 20.5436 39.6367 20.8445 39.2863 20.8445C37.9448 20.8445 36.8773 19.7364 36.8773 18.4355C36.8773 16.9283 34.8548 16.4321 34.1507 17.7505C33.1305 19.6588 31.1545 20.8443 28.9944 20.8443C27.2343 20.8445 18.6232 20.8445 16.8602 20.8445ZM19.3772 29.3188V23.364H28.9944C31.2534 23.364 33.4146 22.4511 34.9841 20.8381C35.4996 21.7576 36.3024 22.4941 37.2687 22.9296V29.3186C37.2687 34.2278 33.2568 38.1186 28.4685 38.1186C22.981 38.1188 19.3772 33.8544 19.3772 29.3188ZM22.3948 43.2056C24.3094 45.1066 23.5808 44.3832 25.3436 46.1334C24.0647 47.4209 24.5278 46.9548 22.9811 48.5118L19.0006 44.5313L22.3948 43.2056Z"/>
</mask>
<path d="M4.09817 77.0484H25.3834C26.0793 77.0484 26.6432 76.4844 26.6432 75.7887C26.6432 75.093 26.0793 74.5289 25.3834 74.5289H12.439V57.605C12.439 56.9092 11.8751 56.3452 11.1792 56.3452C10.4833 56.3452 9.91944 56.9092 9.91944 57.605V74.5289H4.09817C3.7792 74.5289 3.51952 74.2694 3.51952 73.9503V56.1193C3.51952 52.1327 6.34273 49.5195 8.24665 48.7312L16.4381 45.5321L21.3134 50.4072C23.1009 52.1952 25.5934 53.312 28.3229 53.3119C30.9541 53.3117 33.4708 52.2683 35.3325 50.4074L40.1391 45.6006V62.2733C40.1391 64.0559 41.5893 65.5062 43.3718 65.5062H44.2068V74.5293H31.2623C30.5664 74.5293 30.0025 75.0933 30.0025 75.789C30.0025 76.4847 30.5664 77.0488 31.2623 77.0488H52.5476C54.256 77.0488 55.6457 75.659 55.6457 73.9506V65.5062H60.8746V69.3693C59.3163 69.8962 58.1908 71.3713 58.1908 73.1052C58.1908 75.2797 59.9598 77.0488 62.1343 77.0488C64.3089 77.0488 66.0779 75.2797 66.0779 73.1052C66.0779 71.3713 64.9525 69.8962 63.3941 69.3693V65.5062H80.8967C82.6792 65.5062 84.1294 64.0559 84.1294 62.2733V51.1451C84.1294 50.4494 83.5656 49.8853 82.8697 49.8853C82.1738 49.8853 81.6099 50.4494 81.6099 51.1451V62.2733C81.6099 62.6667 81.2899 62.9867 80.8967 62.9867H54.386H43.372C42.9788 62.9867 42.6588 62.6667 42.6588 62.2733C42.6588 61.4796 42.6588 33.6141 42.6588 32.8204H81.6099V45.2662C81.6099 45.9619 82.1738 46.526 82.8697 46.526C83.5656 46.526 84.1294 45.9619 84.1294 45.2662V32.8204H84.1303C85.7127 32.8204 87 31.533 87 29.9505V27.5224C87 25.94 85.7127 24.6526 84.1303 24.6526H44.4191C44.1611 23.279 43.3839 22.0543 42.2798 21.2528C42.4003 20.9175 42.4693 20.5579 42.4693 20.1817V12.0445C42.4693 9.37948 40.1602 7.42315 37.7781 7.60607C37.4817 7.62908 37.1482 7.47724 37.0829 7.14365C36.5311 4.32263 34.7587 2.95117 31.6646 2.95117H20.9734C16.3612 2.95117 12.6089 6.70341 12.6089 11.3156V19.1129C12.6089 20.2054 13.0235 21.2028 13.7031 21.9566C12.7237 22.9493 12.1302 24.2853 12.1302 25.661C12.1302 28.2294 14.1349 30.5149 16.9649 30.8339C17.3697 33.7273 18.9214 36.5238 21.4164 38.385V40.8827C19.9992 41.4364 8.81908 45.8027 7.31812 46.3889C7.31107 46.3917 7.30401 46.3946 7.29696 46.3975C4.26429 47.6456 1 51.2203 1 56.1193V73.9504C1 75.6587 2.38977 77.0484 4.09817 77.0484ZM62.1343 71.681C62.9196 71.681 63.5584 72.3198 63.5584 73.1051C63.5584 73.8903 62.9196 74.5291 62.1343 74.5291C61.3491 74.5291 60.7103 73.8903 60.7103 73.1051C60.7103 72.3198 61.3491 71.681 62.1343 71.681ZM46.7263 65.506H53.1262V73.9504C53.1262 74.2694 52.8665 74.5291 52.5476 74.5291H46.7265V65.506H46.7263ZM25.0342 50.0199C26.5372 48.5066 25.9913 49.0562 27.499 47.5385C27.5007 47.5368 27.502 47.5349 27.5035 47.5333C27.6145 47.4207 27.7197 47.2795 27.784 47.1753H28.8402C28.9077 47.2857 29.0161 47.4283 29.1256 47.5385L31.5972 50.0267C29.5326 51.05 27.0967 51.0473 25.0342 50.0199ZM23.9342 41.1836C23.9354 41.1516 23.936 41.1196 23.936 41.0871V39.7936C26.5348 40.8307 29.7748 40.999 32.7025 39.8134L32.7036 41.0967C32.7036 41.1207 32.7041 41.1448 32.705 41.1688C31.2437 42.6197 30.6113 43.2476 29.1929 44.6558H27.4318C26.5451 43.7758 24.6472 41.8915 23.9342 41.1836ZM33.6542 48.5224C33.4123 48.279 31.5596 46.4137 31.2811 46.1332L34.2023 43.2329C35.9782 43.9208 35.8811 43.8831 37.6199 44.5565L33.6542 48.5224ZM40.1393 42.8303L35.2232 40.9266L35.221 38.3981C37.1162 36.985 38.556 34.9938 39.2764 32.6876C39.5487 32.7736 39.8381 32.8204 40.1384 32.8204H40.1393V42.8303ZM84.1303 27.1718C84.3233 27.1718 84.4805 27.3291 84.4805 27.522V29.9502C84.4805 30.1434 84.3233 30.3006 84.1303 30.3006C82.0134 30.3006 42.2966 30.3006 40.1384 30.3006C39.9454 30.3006 39.7882 30.1434 39.7882 29.9502C39.7882 28.5656 39.7882 28.8651 39.7882 27.522C39.7882 27.3289 39.9454 27.1717 40.1384 27.1717C42.7352 27.1718 81.5669 27.1718 84.1303 27.1718ZM40.5226 23.1141C41.1131 23.4419 41.5769 24.0006 41.8166 24.6521H40.1384C40.0242 24.6521 39.8651 24.6639 39.7882 24.6733V23.3242C40.0378 23.2847 40.3217 23.1992 40.5226 23.1141ZM16.8577 28.264C15.6028 27.965 14.6498 26.9227 14.6498 25.6608C14.6498 24.7392 15.2061 23.8115 16.0415 23.2842C16.2401 23.323 16.4433 23.3487 16.6504 23.3588C16.7195 23.3623 16.7885 23.364 16.8575 23.3642V28.264H16.8577ZM16.8602 20.8445C15.9267 20.8445 15.1285 20.0832 15.1285 19.1127V11.3156C15.1285 8.09267 17.7505 5.47069 20.9734 5.47069H31.6646C33.9985 5.47069 34.3795 6.44743 34.6102 7.62724C34.9123 9.17153 36.3593 10.242 37.9713 10.1182C38.9045 10.047 39.9496 10.8638 39.9496 12.0445V20.1812C39.9496 20.5436 39.6367 20.8445 39.2863 20.8445C37.9448 20.8445 36.8773 19.7364 36.8773 18.4355C36.8773 16.9283 34.8548 16.4321 34.1507 17.7505C33.1305 19.6588 31.1545 20.8443 28.9944 20.8443C27.2343 20.8445 18.6232 20.8445 16.8602 20.8445ZM19.3772 29.3188V23.364H28.9944C31.2534 23.364 33.4146 22.4511 34.9841 20.8381C35.4996 21.7576 36.3024 22.4941 37.2687 22.9296V29.3186C37.2687 34.2278 33.2568 38.1186 28.4685 38.1186C22.981 38.1188 19.3772 33.8544 19.3772 29.3188ZM22.3948 43.2056C24.3094 45.1066 23.5808 44.3832 25.3436 46.1334C24.0647 47.4209 24.5278 46.9548 22.9811 48.5118L19.0006 44.5313L22.3948 43.2056Z" fill="#E52713" stroke="white" mask="url(#path-5-inside-1)"/>
</g>
</g>
<defs>
<clipPath id="clip0">
<rect width="86" height="86" fill="white"/>
</clipPath>
<clipPath id="clip1">
<rect width="86" height="86" fill="white" transform="translate(1 -3)"/>
</clipPath>
</defs>
</svg>
