<svg width="86" height="86" viewBox="0 0 86 86" fill="none" xmlns="http://www.w3.org/2000/svg">
<path d="M86 13.1499V25.515C86 26.2834 85.4124 26.9798 84.6433 26.9798H70.7561H70.5061V27.2298V69.8104C70.5401 76.3088 65.3017 81.6056 58.8033 81.6437H58.77C58.6531 81.6437 58.5429 81.6254 58.4203 81.605C58.3581 81.5946 58.2928 81.5837 58.2216 81.5744L86 13.1499ZM86 13.1499C86.0087 8.20802 82.0902 4.17234 77.181 4.00515L86 13.1499ZM76.9301 4.25C81.8176 4.28553 85.7586 8.26183 85.75 13.1494V13.1499V25.515C85.75 26.1709 85.2501 26.7298 84.6433 26.7298H70.5061H70.2561V26.9798V69.8104V69.8117C70.2893 76.1717 65.163 81.3558 58.8032 81.3937C58.8027 81.3937 58.8023 81.3937 58.8019 81.3937L58.77 81.3937C58.6747 81.3937 58.5831 81.3786 58.4527 81.3569C58.3255 81.3357 58.1727 81.3106 57.9819 81.3028L57.7216 81.2921V81.3937H11.3917V81.3241L11.1533 81.3131C5.19293 81.0363 0.25 75.9862 0.25 69.8118V63.0726C0.25 62.4197 0.746521 61.8735 1.35667 61.8735H12.2094H12.4575L12.4593 61.6253L12.8177 12.6573V12.6555C12.8177 8.03037 16.6298 4.25 21.3205 4.25H76.9301ZM2.78542 64.1589H2.53542V64.4089V69.8104C2.53542 74.8985 6.64604 79.1083 11.7415 79.1083H11.751H51.1781H51.6672L51.3807 78.7119C51.239 78.5157 51.0984 78.3835 50.9669 78.2723C50.925 78.2369 50.8865 78.2055 50.8503 78.1759C50.768 78.1086 50.697 78.0506 50.6223 77.9755L50.622 77.9752C48.4555 75.8026 47.2434 72.8566 47.254 69.7882V69.7873V64.4089V64.1589H47.004H2.78542ZM58.7709 79.1083H58.7727H58.8013C63.9002 79.1083 67.9706 74.8971 67.9706 69.8091V13.1873C67.9706 10.8032 68.9865 8.65831 70.5405 6.95386L70.922 6.53542H70.3558H21.3205C17.8954 6.53542 15.1037 9.28404 15.1032 12.6641C15.1032 12.6644 15.1032 12.6647 15.1032 12.665L14.7448 61.6216L14.7429 61.8735H14.9948H48.3922C49.0352 61.8981 49.5428 62.428 49.5395 63.0713V63.0726V69.7874C49.5276 74.9055 53.6527 79.0713 58.7709 79.1083ZM83.2145 24.4443H83.4645V24.1943V13.1744V13.1653C83.4815 9.53377 80.5624 6.57148 76.9315 6.53542H76.929H76.8902C73.2669 6.53542 70.2561 9.56135 70.2561 13.1846V24.1943V24.4443H70.5061H83.2145Z" fill="#E52713" stroke="white" stroke-width="0.5"/>
<path d="M30.9119 20.9747L31.0513 20.9059L40.5391 16.2246L40.6499 16.1699L40.7606 16.2247L50.2485 20.919L50.3876 20.9878V21.143V30.2086C50.3876 31.3074 50.0291 32.5386 49.455 33.6417C48.8811 34.7445 48.0791 35.7433 47.1689 36.3639L30.9119 20.9747ZM30.9119 20.9747V21.1301V30.2086C30.9119 31.3072 31.2684 32.5381 31.8406 33.6413C32.4126 34.7441 33.2127 35.7432 34.123 36.3645C34.1231 36.3646 34.1232 36.3647 34.1233 36.3647L40.4919 40.737L40.6331 40.8339L40.7745 40.7372L47.1686 36.3641L30.9119 20.9747ZM32.8446 38.2524L32.8444 38.2522C31.6421 37.4324 30.5854 36.1564 29.8292 34.71C29.0731 33.2637 28.6265 31.6646 28.6265 30.2086V20.261H28.6266L28.6263 20.2536C28.6136 19.826 28.8487 19.4291 29.2297 19.234L40.1405 13.8721L40.1414 13.8716C40.4549 13.716 40.8228 13.716 41.1363 13.8716L41.1371 13.872L52.0668 19.2481C52.0673 19.2484 52.0678 19.2486 52.0684 19.2489C52.4496 19.4441 52.6853 19.8413 52.6731 20.2689L52.673 20.2689V20.276V30.2086C52.673 31.6647 52.2274 33.2639 51.4722 34.7103C50.7169 36.1568 49.6611 37.4331 48.4585 38.2536L48.458 38.254L41.2993 43.1618L41.2987 43.1621C40.9156 43.4263 40.409 43.4263 40.0259 43.1621L40.0251 43.1616L32.8446 38.2524Z" fill="#E52713" stroke="white" stroke-width="0.5"/>
<path d="M38.4727 32.1363L38.4718 32.1353L35.6673 29.3023L35.6673 29.3023C35.223 28.8535 35.2259 28.1297 35.6745 27.685C36.1232 27.2403 36.8469 27.2436 37.2917 27.6923L39.1107 29.529L39.2875 29.7075L39.4651 29.5299L44.0159 24.9797L44.0159 24.9797C44.4624 24.5333 45.1866 24.5335 45.6322 24.9802L45.6324 24.9804C46.0788 25.4268 46.0788 26.1511 45.6319 26.5975L45.6317 26.5976L40.0915 32.1399L40.0908 32.1406C39.8772 32.3558 39.5867 32.4775 39.2832 32.4788H39.2809C38.9765 32.4769 38.6856 32.3537 38.4727 32.1363L38.4727 32.1363Z" fill="#E52713" stroke="white" stroke-width="0.5"/>
<path d="M24.5465 47.6021H57.9716C58.6027 47.6021 59.1143 48.1137 59.1143 48.7448C59.1143 49.3758 58.6027 49.8875 57.9716 49.8875H24.5465C23.9155 49.8875 23.4038 49.3758 23.4038 48.7448C23.4038 48.1137 23.9155 47.6021 24.5465 47.6021Z" fill="#E52713" stroke="white" stroke-width="0.5"/>
<path d="M24.5465 54.0435H57.9716C58.6027 54.0435 59.1143 54.5551 59.1143 55.1862C59.1143 55.8172 58.6027 56.3289 57.9716 56.3289H24.5465C23.9155 56.3289 23.4038 55.8172 23.4038 55.1862C23.4038 54.5551 23.9155 54.0435 24.5465 54.0435Z" fill="#E52713" stroke="white" stroke-width="0.5"/>
</svg>
