<svg width="86" height="86" viewBox="0 0 86 86" fill="none" xmlns="http://www.w3.org/2000/svg">
<path d="M38.5861 15.7668C38.5861 13.5302 40.3995 11.7168 42.6361 11.7168C44.8726 11.7168 46.6861 13.5302 46.6861 15.7668C46.6861 18.0034 44.8726 19.8168 42.6361 19.8168C40.3995 19.8168 38.5861 18.0034 38.5861 15.7668ZM40.9527 15.7668C40.9527 16.6964 41.7064 17.4501 42.6361 17.4501C43.5657 17.4501 44.3194 16.6964 44.3194 15.7668C44.3194 14.8372 43.5657 14.0835 42.6361 14.0835C41.7064 14.0835 40.9527 14.8372 40.9527 15.7668Z" fill="#E52713" stroke="white" stroke-width="0.5"/>
<path d="M54.1027 40.3832H54.3527V40.1332V31.5332V31.2832H54.1027H31.1694H30.9194V31.5332V40.1332V40.3832H31.1694H54.1027ZM29.7361 28.9165H55.5361C56.1895 28.9165 56.7194 29.4464 56.7194 30.0998V41.5665C56.7194 42.22 56.1895 42.7498 55.5361 42.7498H29.7361C29.0826 42.7498 28.5527 42.22 28.5527 41.5665V30.0998C28.5527 29.4464 29.0826 28.9165 29.7361 28.9165Z" fill="#E52713" stroke="white" stroke-width="0.5"/>
<path d="M34.2861 34.6499H36.6527V37.0166H34.2861V34.6499Z" fill="#E52713" stroke="white" stroke-width="0.5"/>
<path d="M40.0194 34.6499H45.2527V37.0166H40.0194V34.6499Z" fill="#E52713" stroke="white" stroke-width="0.5"/>
<path d="M48.6194 34.6499H50.986V37.0166H48.6194V34.6499Z" fill="#E52713" stroke="white" stroke-width="0.5"/>
<path d="M28.3028 14.0835H28.0528V14.3335V18.3835H25.6861V12.9001C25.6861 12.2466 26.2159 11.7168 26.8694 11.7168H30.9194V14.0835H28.3028Z" fill="#E52713" stroke="white" stroke-width="0.5"/>
<mask id="path-7-inside-1" fill="white">
<path d="M84.2028 0H78.4694C77.6779 0 77.0361 0.64178 77.0361 1.43333V35.8333C77.0361 36.6249 76.3943 37.2667 75.6028 37.2667H65.5694V27.2333H69.8694C70.661 27.2333 71.3028 26.5916 71.3028 25.8V17.2C71.3028 16.4084 70.661 15.7667 69.8694 15.7667H65.5694V12.9C65.5645 8.94364 62.3584 5.73823 58.4028 5.73333H55.5361V2.86667H52.6694V5.73333H49.4871L48.326 1.0862C48.1672 0.447917 47.594 0 46.9361 0H38.3361C37.6782 0 37.105 0.447917 36.9454 1.0862L35.7844 5.73333H32.6028V2.86667H29.7361V5.73333H26.8694C22.9131 5.73823 19.7077 8.94364 19.7028 12.9V22.9333H15.4028C14.6112 22.9333 13.9694 23.5751 13.9694 24.3667V35.8333C13.9694 36.6249 14.6112 37.2667 15.4028 37.2667H19.7028V77.4H15.4028C14.6112 77.4 13.9694 78.0418 13.9694 78.8333V84.5667C13.9694 85.3582 14.6112 86 15.4028 86H32.6028C33.3943 86 34.0361 85.3582 34.0361 84.5667V78.8333C34.0361 78.0418 33.3943 77.4 32.6028 77.4H28.3028V69.9268C30.5192 71.069 32.9758 71.6653 35.4694 71.6667H36.9028V75.9667C36.9028 76.7582 37.5445 77.4 38.3361 77.4H46.9361C47.7276 77.4 48.3694 76.7582 48.3694 75.9667V71.6667H49.8028C52.2957 71.6653 54.7529 71.069 56.9694 69.9268V77.4H52.6694C51.8779 77.4 51.2361 78.0418 51.2361 78.8333V84.5667C51.2361 85.3582 51.8779 86 52.6694 86H69.8694C70.661 86 71.3028 85.3582 71.3028 84.5667V78.8333C71.3028 78.0418 70.661 77.4 69.8694 77.4H65.5694V45.8667H75.6028C81.1408 45.8597 85.6291 41.3714 85.6361 35.8333V1.43333C85.6361 0.64178 84.9943 0 84.2028 0ZM68.4361 18.6333V24.3667H65.5694V18.6333H68.4361ZM39.4552 2.86667H45.8163L46.533 5.73333H38.7385L39.4552 2.86667ZM22.5694 12.9C22.5694 10.5253 24.4948 8.6 26.8694 8.6H58.4028C60.7774 8.6 62.7028 10.5253 62.7028 12.9V22.9333H22.5694V12.9ZM16.8361 34.4V25.8H19.7028V34.4H16.8361ZM31.1694 83.1333H16.8361V80.2667H31.1694V83.1333ZM25.4361 77.4H22.5694V64.9374C23.382 66.0992 24.3457 67.1469 25.4361 68.0532V77.4ZM45.5028 74.5333H39.7694V71.6667H45.5028V74.5333ZM68.4361 83.1333H54.1028V80.2667H68.4361V83.1333ZM62.7028 77.4H59.8361V68.0532C60.9258 67.1469 61.8902 66.0992 62.7028 64.9374V77.4ZM62.7028 55.9C62.6951 63.0212 56.9239 68.7923 49.8028 68.8H35.4694C28.3482 68.7923 22.5771 63.0212 22.5694 55.9V25.8H62.7028V55.9ZM82.7694 35.8333C82.7645 39.7897 79.5584 42.9951 75.6028 43H65.5694V40.1333H75.6028C77.9774 40.1333 79.9028 38.208 79.9028 35.8333V2.86667H82.7694V35.8333Z"/>
</mask>
<path d="M84.2028 0H78.4694C77.6779 0 77.0361 0.64178 77.0361 1.43333V35.8333C77.0361 36.6249 76.3943 37.2667 75.6028 37.2667H65.5694V27.2333H69.8694C70.661 27.2333 71.3028 26.5916 71.3028 25.8V17.2C71.3028 16.4084 70.661 15.7667 69.8694 15.7667H65.5694V12.9C65.5645 8.94364 62.3584 5.73823 58.4028 5.73333H55.5361V2.86667H52.6694V5.73333H49.4871L48.326 1.0862C48.1672 0.447917 47.594 0 46.9361 0H38.3361C37.6782 0 37.105 0.447917 36.9454 1.0862L35.7844 5.73333H32.6028V2.86667H29.7361V5.73333H26.8694C22.9131 5.73823 19.7077 8.94364 19.7028 12.9V22.9333H15.4028C14.6112 22.9333 13.9694 23.5751 13.9694 24.3667V35.8333C13.9694 36.6249 14.6112 37.2667 15.4028 37.2667H19.7028V77.4H15.4028C14.6112 77.4 13.9694 78.0418 13.9694 78.8333V84.5667C13.9694 85.3582 14.6112 86 15.4028 86H32.6028C33.3943 86 34.0361 85.3582 34.0361 84.5667V78.8333C34.0361 78.0418 33.3943 77.4 32.6028 77.4H28.3028V69.9268C30.5192 71.069 32.9758 71.6653 35.4694 71.6667H36.9028V75.9667C36.9028 76.7582 37.5445 77.4 38.3361 77.4H46.9361C47.7276 77.4 48.3694 76.7582 48.3694 75.9667V71.6667H49.8028C52.2957 71.6653 54.7529 71.069 56.9694 69.9268V77.4H52.6694C51.8779 77.4 51.2361 78.0418 51.2361 78.8333V84.5667C51.2361 85.3582 51.8779 86 52.6694 86H69.8694C70.661 86 71.3028 85.3582 71.3028 84.5667V78.8333C71.3028 78.0418 70.661 77.4 69.8694 77.4H65.5694V45.8667H75.6028C81.1408 45.8597 85.6291 41.3714 85.6361 35.8333V1.43333C85.6361 0.64178 84.9943 0 84.2028 0ZM68.4361 18.6333V24.3667H65.5694V18.6333H68.4361ZM39.4552 2.86667H45.8163L46.533 5.73333H38.7385L39.4552 2.86667ZM22.5694 12.9C22.5694 10.5253 24.4948 8.6 26.8694 8.6H58.4028C60.7774 8.6 62.7028 10.5253 62.7028 12.9V22.9333H22.5694V12.9ZM16.8361 34.4V25.8H19.7028V34.4H16.8361ZM31.1694 83.1333H16.8361V80.2667H31.1694V83.1333ZM25.4361 77.4H22.5694V64.9374C23.382 66.0992 24.3457 67.1469 25.4361 68.0532V77.4ZM45.5028 74.5333H39.7694V71.6667H45.5028V74.5333ZM68.4361 83.1333H54.1028V80.2667H68.4361V83.1333ZM62.7028 77.4H59.8361V68.0532C60.9258 67.1469 61.8902 66.0992 62.7028 64.9374V77.4ZM62.7028 55.9C62.6951 63.0212 56.9239 68.7923 49.8028 68.8H35.4694C28.3482 68.7923 22.5771 63.0212 22.5694 55.9V25.8H62.7028V55.9ZM82.7694 35.8333C82.7645 39.7897 79.5584 42.9951 75.6028 43H65.5694V40.1333H75.6028C77.9774 40.1333 79.9028 38.208 79.9028 35.8333V2.86667H82.7694V35.8333Z" fill="#E52713" stroke="white" mask="url(#path-7-inside-1)"/>
</svg>
