<svg width="86" height="86" viewBox="0 0 86 86" fill="none" xmlns="http://www.w3.org/2000/svg">
<g clip-path="url(#clip0)">
<path d="M40.888 39.7528C36.8155 45.9503 29.9832 57.1399 29.9832 62.4531C29.9832 69.6577 35.8921 75.4686 42.9987 75.4686C50.0948 75.4686 56.0141 69.6668 56.0141 62.4531C56.0141 57.1399 49.1818 45.9517 45.1094 39.7528C44.1716 38.3239 41.8271 38.3239 40.888 39.7528ZM43 73.7132C40.5092 73.7132 38.4821 71.6861 38.4821 69.1953C38.4821 67.8827 39.8914 64.8995 42.3456 61.006C42.6526 60.5201 43.35 60.5201 43.6543 61.006C46.1085 64.8982 47.5178 67.8827 47.5178 69.1953C47.5178 71.6861 45.4907 73.7132 43 73.7132ZM49.1675 70.2428C49.2249 69.9006 49.2733 69.5571 49.2733 69.1979C49.2733 67.4921 47.8836 64.4228 45.1394 60.0734C44.2068 58.591 41.7944 58.591 40.8606 60.0734C38.1177 64.4228 36.7267 67.4921 36.7267 69.1979C36.7267 69.5558 36.7737 69.9019 36.8325 70.2428C36.169 69.1496 35.7863 67.8683 35.7863 66.5008C35.7863 64.2961 38.1791 59.3328 42.3508 52.8832C42.6604 52.4039 43.3396 52.4039 43.6491 52.8832C47.8209 59.3354 50.2137 64.2987 50.2137 66.5021C50.2137 67.867 49.831 69.147 49.1675 70.2428ZM51.1985 70.1527C51.6948 69.0347 51.9691 67.7978 51.9691 66.4982C51.9691 63.2042 48.2467 56.7559 45.1237 51.9258C44.1232 50.3833 41.8754 50.3833 40.8762 51.9258C37.7533 56.7546 34.0309 63.2029 34.0309 66.4982C34.0309 67.7965 34.3052 69.0321 34.8015 70.1527C32.9011 68.1308 31.7386 65.4141 31.7386 62.4531C31.7386 58.9593 35.7066 50.8326 42.3548 40.7167C42.646 40.2727 43.3513 40.2727 43.6426 40.7167C50.2907 50.8326 54.2587 58.9593 54.2587 62.4531C54.26 65.4141 53.0989 68.1308 51.1985 70.1527Z" fill="#E52713"/>
<path d="M83.3669 77.2241H82.4892V50.0203C82.4892 45.6657 78.9457 42.1222 74.5911 42.1222H68.4484V41.2445C68.4484 39.7934 67.2677 38.6113 65.8153 38.6113H64.9375V25.4483C64.9375 23.0294 62.9705 21.061 60.5503 21.061H58.3913V22.8165H60.5503C62.0014 22.8165 63.1834 23.9972 63.1834 25.4496V77.2254H22.8166C22.8166 59.4322 22.8166 67.0194 22.8166 25.4496C22.8166 23.9985 23.9973 22.8165 25.4497 22.8165H27.6257V21.061H25.4497C23.0295 21.061 21.0624 23.0307 21.0624 25.4483V38.6113H20.1847C18.7336 38.6113 17.5516 39.7921 17.5516 41.2445V42.1222H11.4076C7.05303 42.1222 3.50954 45.6657 3.50954 50.0203V77.2241H2.63313C1.18073 77.2241 0 78.4048 0 79.8572V83.3668C0 84.8179 1.18073 85.9999 2.63313 85.9999H13.1631C14.6141 85.9999 15.7962 84.8192 15.7962 83.3668V79.8572C15.7962 78.4061 14.6155 77.2241 13.1631 77.2241H12.2853V51.7757C12.2853 51.2911 12.6798 50.898 13.1631 50.898H17.5503V51.7757C17.5503 53.2268 18.731 54.4088 20.1834 54.4088H21.0611V77.2254H20.1834C18.7323 77.2254 17.5503 78.4061 17.5503 79.8585V83.3681C17.5503 84.8192 18.731 86.0012 20.1834 86.0012H65.8166C67.2677 86.0012 68.4497 84.8205 68.4497 83.3681V79.8585C68.4497 78.4074 67.269 77.2254 65.8166 77.2254H64.9389V54.4075H65.8166C67.2677 54.4075 68.4497 53.2268 68.4497 51.7744V50.8967H72.8369C73.3189 50.8967 73.7147 51.2898 73.7147 51.7744V77.2228H72.8369C71.3858 77.2228 70.2038 78.4035 70.2038 79.8559V83.3655C70.2038 84.8166 71.3845 85.9986 72.8369 85.9986H83.3669C84.818 85.9986 86 84.8179 86 83.3655V79.8559C86 78.4048 84.818 77.2241 83.3669 77.2241ZM14.0408 79.8572V83.3668C14.0408 83.8513 13.6463 84.2445 13.1631 84.2445H2.63313C2.14987 84.2445 1.75542 83.8513 1.75542 83.3668V79.8572C1.75542 79.3727 2.14987 78.9795 2.63313 78.9795H13.1631C13.6463 78.9795 14.0408 79.3727 14.0408 79.8572ZM13.1631 49.1426C11.712 49.1426 10.5299 50.3233 10.5299 51.7757V77.2241H5.26496V50.0203C5.26496 46.6335 8.02087 43.8776 11.4076 43.8776H17.5503V49.1426H13.1631ZM20.1834 52.6534C19.7002 52.6534 19.3057 52.2603 19.3057 51.7757C19.3057 47.9501 19.3057 44.8951 19.3057 41.2445C19.3057 40.7599 19.7002 40.3668 20.1834 40.3668H21.0611V52.6521H20.1834V52.6534ZM66.6943 79.8572V83.3668C66.6943 83.8513 66.2998 84.2445 65.8166 84.2445H20.1834C19.7002 84.2445 19.3057 83.8513 19.3057 83.3668V79.8572C19.3057 79.3727 19.7002 78.9795 20.1834 78.9795H65.8166C66.2985 78.9795 66.6943 79.3727 66.6943 79.8572ZM66.6943 51.7757C66.6943 52.2603 66.2998 52.6534 65.8166 52.6534H64.9389V40.3681H65.8166C66.2985 40.3681 66.6943 40.7612 66.6943 41.2458V51.7757ZM72.8369 49.1426H68.4497V43.8776H74.5924C77.9791 43.8776 80.735 46.6335 80.735 50.0203V77.2241H75.4701V51.7757C75.4688 50.3233 74.288 49.1426 72.8369 49.1426ZM84.2446 83.3668C84.2446 83.8513 83.8501 84.2445 83.3669 84.2445H72.8369C72.3537 84.2445 71.9592 83.8513 71.9592 83.3668V79.8572C71.9592 79.3727 72.3537 78.9795 72.8369 78.9795H74.5924H81.6127H83.3682C83.8514 78.9795 84.2459 79.3727 84.2459 79.8572V83.3668H84.2446Z" fill="#E52713"/>
<path d="M41.7331 33.0252C42.4841 33.4431 43.4806 33.4588 44.2643 33.0265C52.7397 28.3793 57.9185 20.9475 57.9185 11.4076V4.38725C57.9185 1.96963 55.9501 0 53.5299 0H32.4688C30.0485 0 28.0815 1.96963 28.0815 4.38725V11.4076C28.0815 20.1103 32.4531 27.9365 41.7331 33.0252ZM29.8369 4.38725C29.8369 2.93615 31.0177 1.75412 32.4701 1.75412H53.5312C54.9823 1.75542 56.163 2.93615 56.163 4.38725V11.4076C56.163 20.314 51.3239 27.1542 43.4192 31.4892C43.1711 31.625 42.8263 31.625 42.5781 31.4892C42.5781 31.4892 29.8343 25.6887 29.8343 11.4076V4.38725H29.8369Z" fill="#E52713"/>
<g clip-path="url(#clip1)">
<path d="M41.595 19.483C41.4805 19.5983 41.3242 19.6625 41.1618 19.6625C40.9995 19.6625 40.8432 19.5983 40.7287 19.483L37.2693 16.0231C36.9102 15.6641 36.9102 15.0819 37.2693 14.7236L37.7024 14.2903C38.0616 13.9313 38.643 13.9313 39.0021 14.2903L41.1618 16.4502L46.9979 10.614C47.357 10.255 47.9391 10.255 48.2975 10.614L48.7307 11.0473C49.0897 11.4063 49.0897 11.9883 48.7307 12.3468L41.595 19.483Z" fill="#E52713"/>
</g>
</g>
<defs>
<clipPath id="clip0">
<rect width="86" height="86" fill="white"/>
</clipPath>
<clipPath id="clip1">
<rect width="12" height="12" fill="white" transform="translate(37 9)"/>
</clipPath>
</defs>
</svg>
