<svg width="194" height="193" viewBox="0 0 194 193" fill="none" xmlns="http://www.w3.org/2000/svg">
<rect x="97" width="136" height="136" rx="20" transform="rotate(45 97 0)" fill="#E8EAEE"/>
<path d="M88.4482 64.616C92.3916 60.5062 93.2792 55.3146 93.1068 51.6606C91.4486 52.2383 89.8929 53.1862 88.5736 54.5055L55.5165 87.5602C50.8278 92.2489 50.8278 99.9223 55.5165 104.611L63.5359 112.629C62.9064 108.217 63.3587 102.633 66.4736 96.1115C68.1957 104.94 71.9787 106.806 77.122 109.161C71.3661 89.2449 73.251 79.9616 88.4482 64.616Z" fill="#E52713"/>
<path d="M138.683 87.5604L105.626 54.5057C103.407 52.2867 100.521 51.1194 97.5976 51C101.695 54.5913 105.553 61.5664 106.225 76.4043C109.544 69.1952 116.22 69.1952 116.22 69.1952C116.22 69.1952 111.051 78.2385 121.569 92.2334C127.739 99.668 128.685 108.253 128.15 115.144L138.683 104.611C143.371 99.9225 143.371 92.2491 138.683 87.5604Z" fill="#E52713"/>
<path d="M99.275 75.5625C76.0547 95.7354 93.3394 115.409 97.2418 123.864C101.144 132.319 91.2375 135.944 85.0739 134.071C88.0453 138.034 95.2569 144.529 103.899 139.08C117.219 130.274 112.572 119.277 102.248 102.808C91.6873 85.9625 99.275 75.5625 99.275 75.5625Z" fill="#E52713"/>
</svg>
