<svg width="54" height="54" viewBox="0 0 54 54" fill="none" xmlns="http://www.w3.org/2000/svg">
<path d="M41.08 28.161C34.311 28.161 28.741 33.393 28.203 40.026H25.796C25.571 37.255 24.468 34.728 22.766 32.726L32.72 22.771C33.72 23.622 34.837 24.311 36.051 24.825C37.644 25.498 39.335 25.84 41.08 25.84C42.824 25.84 44.516 25.498 46.109 24.825C47.647 24.174 49.029 23.243 50.215 22.056C51.402 20.87 52.333 19.488 52.984 17.949C53.658 16.356 54 14.665 54 12.92C54 11.369 53.728 9.85 53.19 8.41C53.037 7.998 52.639 7.723 52.201 7.723C52.076 7.723 51.952 7.745 51.833 7.789C51.569 7.887 51.36 8.082 51.243 8.339C51.126 8.595 51.115 8.882 51.213 9.145C51.662 10.351 51.89 11.621 51.89 12.92C51.89 15.202 51.187 17.376 49.884 19.196C48.703 17.13 46.92 15.564 44.825 14.708C46.081 13.643 46.881 12.056 46.881 10.284C46.881 7.085 44.278 4.483 41.08 4.483C37.881 4.483 35.279 7.085 35.279 10.284C35.279 12.055 36.078 13.643 37.334 14.708C35.238 15.563 33.455 17.128 32.274 19.194C30.972 17.374 30.269 15.201 30.269 12.92C30.269 10.034 31.395 7.319 33.435 5.276C35.478 3.235 38.193 2.11 41.08 2.11C42.594 2.11 44.059 2.417 45.433 3.022C45.569 3.081 45.712 3.112 45.859 3.112C46.276 3.112 46.656 2.865 46.824 2.482C47.059 1.95 46.816 1.326 46.284 1.092C44.64 0.368 42.891 0 41.082 0H41.08C39.335 0 37.644 0.342 36.051 1.016C34.512 1.667 33.131 2.598 31.944 3.785C30.757 4.971 29.826 6.353 29.175 7.892C28.502 9.484 28.16 11.176 28.16 12.92C28.16 14.665 28.502 16.356 29.175 17.949C29.689 19.164 30.378 20.28 31.229 21.28L21.275 31.234C19.272 29.532 16.745 28.429 13.974 28.204V25.797C20.607 25.259 25.839 19.689 25.839 12.92C25.839 5.796 20.044 0 12.92 0C5.796 0 0 5.796 0 12.92C0 19.689 5.232 25.259 11.865 25.797V28.204C5.232 28.742 0 34.311 0 41.08C0 48.205 5.796 54 12.92 54C19.689 54 25.258 48.768 25.796 42.135H28.203C28.741 48.768 34.311 54 41.08 54C48.204 54 54 48.205 54 41.08C54 33.956 48.204 28.161 41.08 28.161ZM37.388 10.284C37.388 8.248 39.044 6.592 41.08 6.592C43.115 6.592 44.771 8.248 44.771 10.284C44.771 12.311 43.127 13.962 41.102 13.975C41.094 13.975 41.087 13.974 41.079 13.974C41.071 13.974 41.064 13.975 41.056 13.975C39.032 13.962 37.388 12.311 37.388 10.284ZM41.056 16.084C41.064 16.084 41.072 16.084 41.08 16.084C41.087 16.084 41.094 16.084 41.102 16.084C44.219 16.093 47.011 17.955 48.387 20.886C46.387 22.723 43.811 23.731 41.08 23.731C38.348 23.731 35.77 22.722 33.77 20.884C35.146 17.954 37.939 16.093 41.056 16.084ZM9.228 10.284C9.228 8.248 10.884 6.592 12.92 6.592C14.955 6.592 16.611 8.248 16.611 10.284C16.611 12.311 14.967 13.962 12.942 13.975C12.934 13.975 12.926 13.974 12.919 13.974C12.911 13.974 12.903 13.975 12.896 13.975C10.872 13.962 9.228 12.311 9.228 10.284ZM12.92 16.084C12.927 16.084 12.934 16.084 12.942 16.084C16.057 16.093 18.848 17.953 20.225 20.881C18.299 22.65 15.734 23.731 12.92 23.731C10.105 23.731 7.538 22.649 5.612 20.879C6.989 17.952 9.781 16.093 12.896 16.084C12.904 16.084 12.912 16.084 12.92 16.084ZM12.92 2.11C18.881 2.11 23.73 6.959 23.73 12.92C23.73 15.256 22.985 17.421 21.721 19.191C20.54 17.127 18.758 15.563 16.665 14.708C17.921 13.643 18.72 12.056 18.72 10.284C18.72 7.085 16.118 4.483 12.92 4.483C9.721 4.483 7.119 7.085 7.119 10.284C7.119 12.055 7.918 13.643 9.174 14.708C7.08 15.562 5.298 17.125 4.116 19.188C2.853 17.419 2.109 15.255 2.109 12.92C2.109 6.959 6.959 2.11 12.92 2.11ZM12.92 51.891C6.959 51.891 2.109 47.041 2.109 41.08C2.109 35.12 6.959 30.27 12.92 30.27C18.881 30.27 23.73 35.12 23.73 41.08C23.73 47.041 18.881 51.891 12.92 51.891ZM33.772 49.039C35.152 46.105 37.954 44.245 41.079 44.245C44.203 44.245 47.005 46.106 48.385 49.041C46.46 50.81 43.894 51.891 41.08 51.891C38.265 51.891 35.698 50.809 33.772 49.039ZM41.08 42.135C39.044 42.135 37.388 40.479 37.388 38.444C37.388 36.408 39.044 34.752 41.08 34.752C43.115 34.752 44.771 36.408 44.771 38.444C44.771 40.479 43.115 42.135 41.08 42.135ZM49.881 47.351C48.7 45.288 46.918 43.724 44.824 42.869C46.081 41.804 46.881 40.216 46.881 38.444C46.881 35.245 44.278 32.643 41.08 32.643C37.881 32.643 35.279 35.245 35.279 38.444C35.279 40.216 36.078 41.804 37.335 42.869C35.24 43.723 33.458 45.286 32.277 47.349C31.013 45.58 30.269 43.415 30.269 41.08C30.269 35.12 35.119 30.27 41.08 30.27C47.041 30.27 51.89 35.12 51.89 41.08C51.89 43.416 51.146 45.581 49.881 47.351Z" fill="#E52713"/>
<path d="M18.514 35.457C18.03 35.134 17.375 35.265 17.052 35.749L11.535 44.024L8.742 40.433C8.384 39.973 7.722 39.891 7.262 40.248C6.802 40.606 6.72 41.268 7.077 41.728L10.768 46.474C10.969 46.731 11.276 46.881 11.601 46.881C11.614 46.881 11.627 46.881 11.639 46.881C11.978 46.868 12.29 46.694 12.478 46.412L18.806 36.919C19.13 36.435 18.999 35.78 18.514 35.457Z" fill="#E52713"/>
<path d="M49.7091 3.72314C50.2921 3.72314 50.7641 4.19514 50.7641 4.77814C50.7641 5.36014 50.2921 5.83214 49.7091 5.83214C49.1261 5.83214 48.6541 5.36014 48.6541 4.77814C48.6541 4.19514 49.1261 3.72314 49.7091 3.72314Z" fill="#E52713"/>
</svg>
