<svg width="60" height="53" viewBox="0 0 60 53" fill="none" xmlns="http://www.w3.org/2000/svg">
<g clip-path="url(#clip0)">
<path d="M59.1209 51.4447H55.2857C55.9975 50.0493 56.5119 48.6402 56.8163 47.2419C56.9077 46.8199 56.5965 46.4134 56.1191 46.3327C55.6426 46.252 55.1827 46.5282 55.0903 46.9482C54.7655 48.4389 54.1781 49.9501 53.3428 51.4447H49.5981V50.2496C49.5981 49.8198 49.2052 49.4736 48.72 49.4736C48.2338 49.4736 47.8409 49.8198 47.8409 50.2496V51.4447H44.0961C42.7863 49.1021 42.0949 46.7382 42.0405 44.4122C42.0113 43.151 42.1688 41.879 42.5101 40.6061H54.9279C55.2322 41.74 55.3908 42.8728 55.4005 43.997C55.4044 44.4238 55.7972 44.7671 56.2795 44.7671H56.2863C56.7716 44.7642 57.1625 44.4141 57.1586 43.9843C57.1489 42.8301 56.9962 41.67 56.7064 40.5089C56.9768 40.3757 57.1596 40.1219 57.1596 39.8292C57.1596 39.4013 56.7667 39.0532 56.2805 39.0532H56.2688C55.946 38.1323 55.5366 37.2134 55.0397 36.2993C54.7101 35.6945 54.0333 35.287 53.2806 35.2258V34.0141C53.2806 33.0748 52.4239 32.3105 51.3649 32.2939V3.92759C51.3649 1.76299 49.3696 0 46.9181 0H13.9658C11.5144 0 9.51898 1.76299 9.51898 3.92759V5.55152H6.75537C5.65557 5.55152 4.76095 6.34112 4.76095 7.31354V9.62108C4.49548 9.7543 4.31558 10.0062 4.31558 10.2959C4.31558 10.5847 4.49548 10.8366 4.76095 10.9698V30.2655C3.24009 32.2181 2.34741 34.5811 2.34741 37.1249V39.2642H1.77271C1.28651 39.2642 0.89365 39.6114 0.89365 40.0402C0.89365 40.469 1.28651 40.8172 1.77271 40.8172H2.34741V45.0024C2.34741 45.4322 2.74027 45.7794 3.22648 45.7794C3.71171 45.7794 4.10554 45.4322 4.10554 45.0024V40.8172H28.0445V51.4447H20.4236V47.167C20.4236 46.4017 19.7186 45.7784 18.8522 45.7784H13.2978C12.4314 45.7784 11.7264 46.4017 11.7264 47.167V51.4447H4.10554V48.1074C4.10554 47.6776 3.71171 47.3304 3.22648 47.3304C2.74027 47.3304 2.34741 47.6776 2.34741 48.1074V51.4447H0.879064C0.393828 51.4447 0 51.7928 0 52.2207C0 52.6505 0.393828 52.9976 0.879064 52.9976H59.1209C59.6062 52.9976 60 52.6505 60 52.2207C60 51.7928 59.6062 51.4447 59.1209 51.4447ZM13.4835 47.3314H18.6665V51.4447H13.4835V47.3314ZM46.2889 32.292H46.1081C45.0336 32.292 44.1584 33.0651 44.1584 34.0141V35.2258C43.4048 35.288 42.728 35.6945 42.3993 36.2993C41.9004 37.2153 41.492 38.1343 41.1701 39.0532H41.1575C40.6723 39.0532 40.2784 39.4013 40.2784 39.8302C40.2784 40.1228 40.4622 40.3767 40.7335 40.5089C40.6022 41.0379 40.4992 41.5659 40.4262 42.0949H37.049C37.0481 39.3469 37.049 20.8846 37.049 15.1104C37.3145 14.9762 37.4934 14.7253 37.4934 14.4365C37.4934 14.1467 37.3145 13.8949 37.049 13.7607V11.4531C37.049 10.4817 36.1534 9.69207 35.0536 9.69207H32.434V7.64319C32.434 6.87109 33.1438 6.24291 34.018 6.24291H44.7039C45.5781 6.24291 46.2889 6.87109 46.2889 7.64319V32.292ZM27.8179 15.2125H35.2909V20.7416H27.8179V15.2125ZM27.8179 22.2936H35.2909V27.8549H27.8179V22.2936ZM35.0536 11.244C35.1849 11.244 35.2909 11.3374 35.2909 11.4531V13.6595H27.8179V11.4531C27.8179 11.3374 27.9239 11.244 28.0542 11.244H35.0536ZM26.0598 20.5967H15.7804V19.531H26.0598V20.5967ZM13.9921 13.6294H12.0123C11.527 13.6294 11.1332 13.9765 11.1332 14.4054C11.1332 14.8342 11.527 15.1814 12.0123 15.1814H13.9921V20.7426H6.51908V15.1814H8.49794C8.98318 15.1814 9.37701 14.8342 9.37701 14.4054C9.37701 13.9765 8.98318 13.6294 8.49794 13.6294H6.51908V11.0719H13.9921V13.6294ZM13.9921 22.2956V25.1389C11.1099 25.5279 8.52031 26.7123 6.51908 28.4286V22.2956H13.9921ZM15.7492 22.1487H26.0442C26.0452 22.3062 26.0403 29.2571 26.0598 28.8127C23.5548 26.4662 20.0055 24.9989 16.075 24.9989C15.9661 24.9989 15.8582 25.0008 15.7492 25.0028V22.1487ZM27.8179 29.4068H35.2909V36.5852H29.788C29.684 34.4935 28.977 32.537 27.8179 30.8499V29.4068ZM30.3773 40.8172C30.8625 40.8172 31.2564 40.469 31.2564 40.0402C31.2564 39.6114 30.8625 39.2642 30.3773 39.2642H29.8026V38.1382H35.2909V42.0949H29.8026V40.8172H30.3773ZM29.8026 43.6479H40.294C40.2823 44.0096 40.2843 44.3713 40.2998 44.7331H29.8026V43.6479ZM40.4506 46.286C40.7102 48.0091 41.2781 49.7303 42.1542 51.4447H37.049V46.286H40.4506ZM53.4556 36.9722C53.832 37.6636 54.1529 38.3579 54.4212 39.0532H43.0187C43.2861 38.3579 43.607 37.6646 43.9833 36.9722C44.0504 36.8497 44.1982 36.769 44.3597 36.769H53.0793C53.2407 36.769 53.3876 36.8487 53.4556 36.9722ZM51.5225 34.0141V35.216H45.9165V34.0141C45.9165 33.9208 46.0021 33.8449 46.1081 33.8449H51.3319C51.4369 33.8449 51.5225 33.9208 51.5225 34.0141ZM11.2771 3.92759C11.2771 2.61774 12.4829 1.55295 13.9658 1.55295H46.9181C48.4001 1.55295 49.6068 2.61774 49.6068 3.92856V32.292H48.0471V7.64319C48.0471 6.01536 46.5476 4.68996 44.7039 4.68996H34.018C32.1753 4.68996 30.6758 6.01536 30.6758 7.64319V9.69207H28.0552C26.9554 9.69207 26.0598 10.4817 26.0598 11.4531V13.7607C25.7943 13.8949 25.6154 14.1467 25.6154 14.4365C25.6154 14.7253 25.7943 14.9762 26.0598 15.1104V17.979H15.7804C15.7638 12.4994 15.8056 20.5306 15.7502 10.9698C16.0157 10.8366 16.1946 10.5847 16.1946 10.2959C16.1946 10.0062 16.0157 9.7543 15.7502 9.62108V7.31354C15.7502 6.34112 14.8546 5.55152 13.7558 5.55152H11.2771V3.92759ZM6.75537 7.10447H13.7548C13.8851 7.10447 13.9921 7.19685 13.9921 7.31354V9.51898H6.51908V7.31354C6.51908 7.19685 6.62507 7.10447 6.75537 7.10447ZM4.10554 39.2642V37.1249C4.10554 31.2953 9.47522 26.5518 16.075 26.5518C22.6748 26.5518 28.0445 31.2953 28.0445 37.1249V39.2642H4.10554ZM29.8026 46.286H35.2909V51.4457H29.8026V46.286Z" fill="#E52713"/>
<path d="M16.0751 30.3804C15.2428 30.3804 14.4658 30.9103 13.8872 31.874C13.47 32.5693 13.2007 33.4231 13.2007 34.0493C13.2007 35.4505 14.4901 36.5892 16.0751 36.5892C17.6602 36.5892 18.9506 35.4505 18.9506 34.0493C18.9506 33.4231 18.6802 32.5693 18.2631 31.874C17.6845 30.9103 16.9075 30.3804 16.0751 30.3804ZM16.0751 35.0363C15.4596 35.0363 14.9588 34.5938 14.9588 34.0493C14.9588 33.2062 15.727 31.98 16.0713 31.9333C16.4233 31.98 17.1925 33.2062 17.1925 34.0493C17.1925 34.5938 16.6907 35.0363 16.0751 35.0363Z" fill="#E52713"/>
</g>
<defs>
<clipPath id="clip0">
<rect width="60" height="52.9976" fill="white"/>
</clipPath>
</defs>
</svg>
