<svg width="55" height="55" viewBox="0 0 55 55" fill="none" xmlns="http://www.w3.org/2000/svg">
<g clip-path="url(#clip0)">
<path d="M36.322 1.454C33.481 0.489 30.505 0 27.479 0C22.166 0 17.011 1.518 12.571 4.392C8.24605 7.19 4.80205 11.126 2.61105 15.774C2.35805 16.311 2.58705 16.951 3.12405 17.203C3.27205 17.273 3.42705 17.306 3.58105 17.306C3.98305 17.306 4.36905 17.078 4.55205 16.69C6.49505 12.569 9.49005 9.129 13.123 6.63C13.158 6.648 13.195 6.665 13.233 6.68L19.792 9.175C19.946 9.233 20.044 9.383 20.038 9.547C20.034 9.68 20.054 9.812 20.097 9.938C20.451 10.956 21.228 11.769 22.228 12.171C23.228 12.571 24.351 12.519 25.31 12.028C25.314 12.026 25.318 12.024 25.322 12.022L26.747 11.269C28.332 10.433 30.161 10.537 31.64 11.55C33.119 12.562 33.879 14.229 33.672 16.011L33.658 16.124C33.578 16.814 33.101 17.36 32.444 17.516C31.735 17.683 30.926 17.876 30.234 18.041C28.83 18.377 27.739 19.508 27.452 20.923L26.531 25.483C26.315 26.557 26.579 27.665 27.257 28.524C27.935 29.385 28.952 29.9 30.046 29.939L31.228 29.982C31.431 29.989 31.629 30.035 31.815 30.118C31.957 30.183 32.106 30.212 32.252 30.212C32.662 30.212 33.054 29.975 33.233 29.577C33.474 29.035 33.232 28.4 32.691 28.159C32.2521 27.963 31.786 27.854 31.305 27.837L30.123 27.794C29.66 27.777 29.23 27.559 28.943 27.195C28.656 26.832 28.544 26.362 28.636 25.908L29.557 21.348C29.678 20.75 30.139 20.271 30.733 20.129C31.424 19.964 32.23 19.772 32.938 19.604C34.461 19.245 35.6081 17.946 35.791 16.372L35.8041 16.259C36.105 13.672 35.002 11.249 32.853 9.778C30.704 8.307 28.047 8.154 25.744 9.371L24.326 10.121C23.916 10.329 23.454 10.35 23.027 10.178C22.644 10.024 22.348 9.741 22.18 9.372C22.118 8.391 21.489 7.524 20.555 7.169L15.428 5.218C19.07 3.243 23.201 2.147 27.479 2.147C30.271 2.147 33.0131 2.598 35.6311 3.487C36.1931 3.678 36.802 3.377 36.993 2.816C37.1841 2.255 36.883 1.645 36.322 1.454Z" fill="#E52713"/>
<path d="M53.89 19.8709C53.726 19.3009 53.132 18.9719 52.562 19.1359C51.993 19.2999 51.663 19.8939 51.827 20.4639C52.48 22.7329 52.811 25.0939 52.811 27.4779C52.811 30.0759 52.419 32.6369 51.648 35.0899C51.47 35.6549 51.784 36.2579 52.349 36.4349C52.457 36.4699 52.565 36.4849 52.672 36.4849C53.128 36.4849 53.552 36.1919 53.696 35.7339C54.533 33.0719 54.957 30.2949 54.957 27.4779C54.957 24.8919 54.598 22.3329 53.89 19.8709Z" fill="#E52713"/>
<path d="M50.89 39.7728C50.437 39.5038 49.759 39.5808 49.407 40.1698C49.405 40.1738 49.403 40.1778 49.401 40.1808C49.055 40.7758 49.319 41.4058 49.773 41.6708C49.934 41.7648 50.123 41.8158 50.316 41.8158C50.666 41.8158 51.029 41.6478 51.254 41.2648C51.603 40.6718 51.343 40.0408 50.89 39.7728Z" fill="#E52713"/>
<path d="M47.8759 44.2832C47.4349 43.8872 46.7559 43.9252 46.3599 44.3672C44.8939 46.0062 43.2319 47.4292 41.4279 48.6192C40.1899 48.0592 38.8939 46.7352 39.0209 44.6582L39.6979 36.6352C39.7479 36.0442 39.3099 35.5242 38.7189 35.4742C38.1279 35.4272 37.6089 35.8632 37.5589 36.4542L36.8809 44.4892C36.8799 44.4972 36.8789 44.5042 36.8789 44.5122C36.7439 46.6412 37.6909 48.6252 39.3319 49.8602C35.7149 51.7752 31.6499 52.8102 27.4789 52.8102C26.3109 52.8102 25.1469 52.7292 23.9959 52.5702L24.9979 50.7522H25.8729C28.1469 50.7522 29.9979 48.9022 29.9979 46.6282V45.1462C29.9979 44.7232 30.1289 44.3202 30.3779 43.9792C30.7289 43.5012 30.6239 42.8292 30.1459 42.4792C29.6669 42.1302 28.9949 42.2332 28.6459 42.7132C28.1259 43.4242 27.8509 44.2652 27.8509 45.1462V46.6282C27.8509 47.7182 26.9639 48.6052 25.8729 48.6052H24.3629C23.9719 48.6052 23.6119 48.8182 23.4229 49.1612L21.7709 52.1602C19.4539 51.6272 17.2179 50.7692 15.1399 49.6082C14.6219 49.3192 13.9689 49.5042 13.6789 50.0212C13.3899 50.5392 13.5749 51.1932 14.0929 51.4822C18.1619 53.7562 22.7899 54.9582 27.4789 54.9582C35.2849 54.9582 42.7509 51.6192 47.9599 45.7992C48.3549 45.3572 48.3179 44.6792 47.8759 44.2832Z" fill="#E52713"/>
<path d="M45.959 4.604C43.465 4.604 41.437 6.632 41.437 9.125C41.437 11.618 43.465 13.647 45.959 13.647C48.452 13.647 50.481 11.618 50.481 9.125C50.481 6.632 48.452 4.604 45.959 4.604ZM45.959 11.5C44.649 11.5 43.584 10.435 43.584 9.125C43.584 7.815 44.649 6.75 45.959 6.75C47.269 6.75 48.334 7.815 48.334 9.125C48.334 10.435 47.269 11.5 45.959 11.5Z" fill="#E52713"/>
<path d="M26.212 36.4891L21.513 29.7171C21.464 29.6451 21.407 29.5841 21.346 29.5291C20.149 24.8451 15.893 21.3701 10.841 21.3701C4.863 21.3701 0 26.2331 0 32.2111C0 34.6871 0.856 37.1061 2.411 39.0281C2.414 39.0311 2.416 39.0351 2.419 39.0381L9.994 48.7481C10.198 49.0091 10.51 49.1611 10.84 49.1611C11.171 49.1611 11.484 49.0091 11.687 48.7491L19.226 39.0891C19.241 39.0701 19.255 39.0511 19.269 39.0301C20.534 37.4691 21.336 35.5801 21.593 33.5981L24.448 37.7131C24.657 38.0141 24.991 38.1751 25.331 38.1751C25.542 38.1751 25.755 38.1121 25.942 37.9821C26.429 37.6441 26.55 36.9761 26.212 36.4891ZM17.547 37.7451C17.52 37.7781 17.495 37.8121 17.472 37.8481L10.841 46.3441L4.132 37.7451C4.121 37.7291 4.11 37.7151 4.098 37.7001C2.839 36.1551 2.146 34.2071 2.146 32.2111C2.146 27.4171 6.047 23.5161 10.841 23.5161C15.635 23.5161 19.535 27.4171 19.535 32.2111C19.535 34.2281 18.829 36.1931 17.547 37.7451Z" fill="#E52713"/>
<path d="M10.841 26.1411C7.40799 26.1411 4.61499 28.9341 4.61499 32.3671C4.61499 35.8001 7.40799 38.5921 10.841 38.5921C14.274 38.5921 17.067 35.8001 17.067 32.3671C17.067 28.9341 14.274 26.1411 10.841 26.1411ZM10.841 36.4461C8.59099 36.4461 6.76199 34.6161 6.76199 32.3671C6.76199 30.1181 8.59099 28.2881 10.841 28.2881C13.09 28.2881 14.92 30.1181 14.92 32.3671C14.92 34.6161 13.09 36.4461 10.841 36.4461Z" fill="#E52713"/>
<path d="M45.959 0C40.997 0 36.96 4.037 36.96 8.999C36.96 11.052 37.67 13.059 38.96 14.654C38.962 14.656 38.964 14.659 38.966 14.662L45.113 22.54C45.316 22.8 45.628 22.953 45.959 22.953C46.289 22.953 46.601 22.8 46.805 22.541L52.922 14.703C52.935 14.686 52.948 14.67 52.96 14.652C54.249 13.057 54.957 11.053 54.957 8.999C54.957 4.037 50.921 0 45.959 0ZM51.244 13.359C51.219 13.389 51.196 13.421 51.174 13.454L45.959 20.135L40.678 13.366C40.667 13.351 40.656 13.338 40.645 13.323C39.653 12.106 39.107 10.571 39.107 8.999C39.107 5.22 42.181 2.146 45.959 2.146C49.737 2.146 52.81 5.22 52.81 8.999C52.81 10.588 52.254 12.136 51.244 13.359Z" fill="#E52713"/>
<path d="M21.8171 44.7918C21.5641 44.2558 20.9241 44.0268 20.3881 44.2798L19.9021 44.5098C19.3671 44.7628 19.1371 45.4018 19.3911 45.9378C19.5741 46.3258 19.9601 46.5538 20.3621 46.5538C20.5151 46.5538 20.6711 46.5208 20.8191 46.4498L21.3051 46.2208C21.8411 45.9678 22.0701 45.3278 21.8171 44.7918Z" fill="#E52713"/>
<path d="M45.9589 27.2739C45.3659 27.2739 44.8859 27.7549 44.8859 28.3479C44.8859 28.4859 44.8779 28.6259 44.8619 28.7619C44.7949 29.3519 45.2189 29.8829 45.8079 29.9499C45.8489 29.9549 45.8899 29.9569 45.9299 29.9569C46.4689 29.9569 46.9339 29.5519 46.9949 29.0029C47.0199 28.7879 47.0319 28.5669 47.0319 28.3479C47.0319 27.7549 46.5519 27.2739 45.9589 27.2739Z" fill="#E52713"/>
<path d="M38.9911 31.9868H38.4541C37.8611 31.9868 37.3811 32.4668 37.3811 33.0598C37.3811 33.6528 37.8611 34.1328 38.4541 34.1328H38.9911C39.5841 34.1328 40.0641 33.6528 40.0641 33.0598C40.0641 32.4668 39.5841 31.9868 38.9911 31.9868Z" fill="#E52713"/>
<path d="M44.612 31.8169C44.303 31.3109 43.643 31.1499 43.137 31.4589C43.019 31.5299 42.896 31.5949 42.771 31.6529C42.233 31.9019 41.999 32.5409 42.248 33.0779C42.429 33.4699 42.817 33.7009 43.223 33.7009C43.374 33.7009 43.527 33.6689 43.673 33.6009C43.871 33.5089 44.067 33.4059 44.253 33.2919C44.758 32.9839 44.919 32.3229 44.612 31.8169Z" fill="#E52713"/>
<path d="M28.43 38.2609C27.93 37.9439 27.266 38.0909 26.948 38.5909L26.66 39.0439C26.342 39.5439 26.49 40.2079 26.99 40.5259C27.169 40.6399 27.368 40.6939 27.565 40.6939C27.92 40.6939 28.267 40.5179 28.472 40.1959L28.76 39.7429C29.078 39.2419 28.93 38.5789 28.43 38.2609Z" fill="#E52713"/>
<path d="M31.022 34.1842C30.522 33.8672 29.858 34.0142 29.54 34.5142L29.252 34.9672C28.934 35.4672 29.082 36.1302 29.583 36.4492C29.761 36.5622 29.96 36.6172 30.157 36.6172C30.512 36.6172 30.859 36.4412 31.064 36.1192L31.352 35.6662C31.67 35.1652 31.522 34.5032 31.022 34.1842Z" fill="#E52713"/>
<path d="M26.185 42.7291C25.932 42.1931 25.292 41.9631 24.756 42.2161L24.27 42.4461C23.734 42.6991 23.505 43.3381 23.758 43.8751C23.942 44.2631 24.328 44.4901 24.729 44.4901C24.883 44.4901 25.039 44.4571 25.187 44.3871L25.673 44.1581C26.209 43.9051 26.438 43.2641 26.185 42.7291Z" fill="#E52713"/>
<path d="M34.161 31.9868H33.624C33.032 31.9868 32.551 32.4668 32.551 33.0598C32.551 33.6528 33.032 34.1328 33.624 34.1328H34.161C34.754 34.1328 35.235 33.6528 35.235 33.0598C35.235 32.4668 34.754 31.9868 34.161 31.9868Z" fill="#E52713"/>
</g>
<defs>
<clipPath id="clip0">
<rect width="54.957" height="54.958" fill="white"/>
</clipPath>
</defs>
</svg>
