<svg width="54" height="55" viewBox="0 0 54 55" fill="none" xmlns="http://www.w3.org/2000/svg">
<g clip-path="url(#clip0)">
<path d="M34.825 37.6959V31.6749H36.567V29.9149H26.119V31.6749H27.86V37.6959C27.268 37.9569 26.73 38.2989 26.22 38.6759L20.895 28.8119V24.6359H22.636V22.8759H20.895V20.2369C20.895 19.7509 20.506 19.3569 20.025 19.3569H19.154V16.7179C19.154 16.2319 18.765 15.8379 18.283 15.8379H13.06C12.578 15.8379 12.189 16.2319 12.189 16.7179V19.3569H11.319C10.837 19.3569 10.448 19.7509 10.448 20.2369V22.8759H8.706V24.6359H10.448V28.8119L0.531 47.1839C0.184 47.8269 0 48.5569 0 49.2899V50.1519C0 52.5779 1.953 54.5519 4.353 54.5519H26.989C27.607 54.5519 28.213 54.4119 28.771 54.1589C29.584 54.4129 30.448 54.5519 31.343 54.5519C36.144 54.5519 40.049 50.6039 40.049 45.7529C40.049 42.2479 37.974 39.0859 34.825 37.6959ZM33.084 33.4349H29.602V31.6749H33.084V33.4349ZM29.022 39.1239C29.369 38.9989 29.602 38.6669 29.602 38.2939V35.1939H33.084V38.2939C33.084 38.6669 33.317 38.9989 33.664 39.1239C35.879 39.9169 37.495 41.7759 38.068 44.0019C37.405 44.0249 36.783 44.2899 36.312 44.7669L35.591 45.4949C35.428 45.6589 35.204 45.7529 34.975 45.7529H34.676C34.447 45.7529 34.222 45.6589 34.06 45.4949L33.339 44.7669C32.846 44.2679 32.19 43.9929 31.492 43.9929H31.193C30.496 43.9929 29.839 44.2679 29.346 44.7669L28.626 45.4949C28.463 45.6589 28.239 45.7529 28.01 45.7529H27.711C27.482 45.7529 27.257 45.6589 27.095 45.4949L26.374 44.7669C25.903 44.2899 25.281 44.0249 24.618 44.0019C25.19 41.7759 26.807 39.9159 29.022 39.1239ZM13.93 17.5979H17.412V19.3579H13.93V17.5979ZM12.189 21.1169H19.154V22.8759H12.189V21.1169ZM12.083 29.4569C12.153 29.3279 12.189 29.1829 12.189 29.0349V24.6359H19.154V29.0349C19.154 29.1829 19.191 29.3279 19.26 29.4569L22.364 35.2069C21.714 35.2369 21.104 35.4989 20.64 35.9679L19.919 36.6959C19.757 36.8599 19.533 36.9539 19.303 36.9539H19.005C18.775 36.9539 18.551 36.8599 18.389 36.6959L17.668 35.9679C17.175 35.4689 16.519 35.1939 15.821 35.1939H15.522C14.824 35.1939 14.168 35.4689 13.675 35.9679L12.954 36.6959C12.791 36.8599 12.568 36.9539 12.339 36.9539H12.039C11.81 36.9539 11.586 36.8599 11.424 36.6959L10.703 35.9679C10.24 35.4989 9.63 35.2369 8.979 35.2069L12.083 29.4569ZM4.353 52.7919C2.913 52.7919 1.741 51.6069 1.741 50.1519V49.2899C1.741 48.8499 1.852 48.4119 2.06 48.0249L8.036 36.9539H8.856C9.085 36.9539 9.31 37.0489 9.472 37.2119L10.193 37.9399C10.685 38.4389 11.342 38.7139 12.039 38.7139H12.339C13.036 38.7139 13.693 38.4389 14.185 37.9399L14.906 37.2119C15.069 37.0489 15.293 36.9539 15.522 36.9539H15.821C16.051 36.9539 16.275 37.0489 16.437 37.2119L17.158 37.9399C17.651 38.4389 18.307 38.7139 19.005 38.7139H19.303C20.001 38.7139 20.657 38.4389 21.15 37.9399L21.871 37.2119C22.034 37.0489 22.258 36.9539 22.487 36.9539H23.307L24.883 39.8739C23.473 41.4559 22.636 43.5339 22.636 45.7529C22.636 48.6329 24.019 51.1859 26.142 52.7919H4.353ZM31.343 52.7919C27.502 52.7919 24.378 49.6339 24.378 45.7529H24.528C24.757 45.7529 24.981 45.8469 25.143 46.0109L25.864 46.7389C26.357 47.2379 27.013 47.5129 27.711 47.5129H28.01C28.708 47.5129 29.364 47.2379 29.857 46.7389L30.578 46.0109C30.74 45.8469 30.964 45.7529 31.193 45.7529H31.492C31.721 45.7529 31.946 45.8469 32.108 46.0109L32.829 46.7389C33.322 47.2379 33.978 47.5129 34.676 47.5129H34.975C35.673 47.5129 36.329 47.2379 36.822 46.7389L37.543 46.0109C37.705 45.8469 37.929 45.7529 38.158 45.7529H38.308C38.308 49.6339 35.183 52.7919 31.343 52.7919Z" fill="#E52713"/>
<path d="M6.09393 45.7529C4.65493 45.7529 3.48193 46.9379 3.48193 48.3929C3.48193 49.8479 4.65493 51.0329 6.09393 51.0329C7.53393 51.0329 8.70593 49.8479 8.70593 48.3929C8.70593 46.9379 7.53393 45.7529 6.09393 45.7529ZM6.09393 49.2729C5.61393 49.2729 5.22293 48.8769 5.22293 48.3929C5.22293 47.9089 5.61393 47.5129 6.09393 47.5129C6.57393 47.5129 6.96493 47.9089 6.96493 48.3929C6.96493 48.8769 6.57393 49.2729 6.09393 49.2729Z" fill="#E52713"/>
<path d="M13.06 43.9932C11.62 43.9932 10.448 45.1782 10.448 46.6332C10.448 48.0882 11.62 49.2732 13.06 49.2732C14.5 49.2732 15.672 48.0882 15.672 46.6332C15.672 45.1782 14.5 43.9932 13.06 43.9932ZM13.06 47.5132C12.58 47.5132 12.189 47.1172 12.189 46.6332C12.189 46.1492 12.58 45.7532 13.06 45.7532C13.54 45.7532 13.931 46.1492 13.931 46.6332C13.931 47.1172 13.54 47.5132 13.06 47.5132Z" fill="#E52713"/>
<path d="M19.154 40.4731C17.714 40.4731 16.542 41.6581 16.542 43.1131C16.542 44.5681 17.714 45.7531 19.154 45.7531C20.594 45.7531 21.766 44.5681 21.766 43.1131C21.766 41.6581 20.594 40.4731 19.154 40.4731ZM19.154 43.9931C18.674 43.9931 18.283 43.5971 18.283 43.1131C18.283 42.6291 18.674 42.2331 19.154 42.2331C19.634 42.2331 20.025 42.6291 20.025 43.1131C20.025 43.5971 19.634 43.9931 19.154 43.9931Z" fill="#E52713"/>
<path d="M21.7649 49.2729H20.0239V51.033H21.7649V49.2729Z" fill="#E52713"/>
<path d="M20.024 47.5132H18.283V49.2732H20.024V47.5132Z" fill="#E52713"/>
<path d="M18.283 49.2729H16.542V51.033H18.283V49.2729Z" fill="#E52713"/>
<path d="M11.3179 41.354H9.5769V43.114H11.3179V41.354Z" fill="#E52713"/>
<path d="M53.1081 12.3188H40.9191C40.4381 12.3188 40.0491 12.7128 40.0491 13.1988V16.7178C40.0491 17.2038 40.4381 17.5978 40.9191 17.5978H41.7901V49.2728C41.7901 52.1838 44.1331 54.5518 47.0141 54.5518C49.8951 54.5518 52.2381 52.1838 52.2381 49.2728V17.5978H53.1081C53.5901 17.5978 53.9791 17.2038 53.9791 16.7178V13.1988C53.9791 12.7128 53.5901 12.3188 53.1081 12.3188ZM47.0141 52.7918C45.0931 52.7918 43.5311 51.2138 43.5311 49.2728V29.9148H50.4971V49.2728C50.4971 51.2138 48.9351 52.7918 47.0141 52.7918ZM50.4971 28.1558H43.5321V17.5978H50.4971V28.1558ZM52.2381 15.8378H41.7901V14.0778H52.2381V15.8378Z" fill="#E52713"/>
<path d="M47.014 48.3931H45.272V50.1531H47.014V48.3931Z" fill="#E52713"/>
<path d="M48.7549 44.873H47.0139V46.633H48.7549V44.873Z" fill="#E52713"/>
<path d="M47.014 41.354H45.272V43.114H47.014V41.354Z" fill="#E52713"/>
<path d="M48.7549 37.834H47.0139V39.594H48.7549V37.834Z" fill="#E52713"/>
<path d="M47.014 34.3149H45.272V36.0749H47.014V34.3149Z" fill="#E52713"/>
<path d="M13.93 9.679C13.93 9.195 14.32 8.799 14.801 8.799H17.412V14.078H19.154V8.799H27.86V28.156H29.601V8.799H32.213C32.694 8.799 33.084 9.195 33.084 9.679V28.156H34.825V9.679C34.825 8.224 33.653 7.039 32.213 7.039H29.601V6.159C29.601 5.675 29.992 5.28 30.472 5.28H40.919C41.4 5.28 41.79 5.675 41.79 6.159V10.559H43.531V6.159C43.531 4.704 42.359 3.52 40.919 3.52H30.472C29.032 3.52 27.86 4.704 27.86 6.159V7.039H19.154V2.64C19.154 2.156 19.544 1.76 20.024 1.76H49.626C50.106 1.76 50.496 2.156 50.496 2.64V10.559H52.238V2.64C52.238 1.185 51.065 0 49.626 0H20.024C18.584 0 17.412 1.185 17.412 2.64V7.039H14.801C13.361 7.039 12.189 8.224 12.189 9.679V14.078H13.93V9.679Z" fill="#E52713"/>
<path d="M5.22412 13.1981C5.22412 14.6531 6.39612 15.8381 7.83512 15.8381C9.27512 15.8381 10.4481 14.6531 10.4481 13.1981C10.4481 11.7431 9.27512 10.5581 7.83512 10.5581C6.39612 10.5591 5.22412 11.7431 5.22412 13.1981ZM8.70612 13.1981C8.70612 13.6821 8.31612 14.0781 7.83512 14.0781C7.35512 14.0781 6.96512 13.6821 6.96512 13.1981C6.96512 12.7131 7.35512 12.3181 7.83512 12.3181C8.31612 12.3191 8.70612 12.7141 8.70612 13.1981Z" fill="#E52713"/>
<path d="M4.353 8.799C6.753 8.799 8.706 6.825 8.706 4.4C8.706 1.974 6.753 0 4.353 0C1.953 0 0 1.974 0 4.4C0 6.825 1.953 8.799 4.353 8.799ZM4.353 1.76C5.793 1.76 6.965 2.945 6.965 4.4C6.965 5.855 5.793 7.039 4.353 7.039C2.913 7.039 1.741 5.855 1.741 4.4C1.741 2.945 2.913 1.76 4.353 1.76Z" fill="#E52713"/>
<path d="M3.48298 24.6361C5.40398 24.6361 6.96498 23.0581 6.96498 21.1181C6.96498 19.1761 5.40398 17.5981 3.48298 17.5981C1.56298 17.5981 0.000976562 19.1761 0.000976562 21.1181C0.000976563 23.0581 1.56298 24.6361 3.48298 24.6361ZM3.48298 19.3581C4.44298 19.3581 5.22398 20.1471 5.22398 21.1181C5.22398 22.0871 4.44298 22.8771 3.48298 22.8771C2.52298 22.8771 1.74198 22.0871 1.74198 21.1181C1.74198 20.1471 2.52298 19.3581 3.48298 19.3581Z" fill="#E52713"/>
</g>
<defs>
<clipPath id="clip0">
<rect width="53.979" height="54.552" fill="white"/>
</clipPath>
</defs>
</svg>
