<svg width="60" height="60" viewBox="0 0 60 60" fill="none" xmlns="http://www.w3.org/2000/svg">
<path d="M59.1211 5.82328H31.7302V0.878906C31.7302 0.393516 31.3368 0 30.8513 0H25.3677C24.8823 0 24.4888 0.393516 24.4888 0.878906V5.82328H13.7331C13.2477 5.82328 12.8542 6.2168 12.8542 6.70219V14.2587C12.2741 14.5678 11.7244 14.9742 11.2615 15.442V12.8589C11.2615 11.2655 9.67629 9.95707 7.31848 9.52266V7.61473C7.31848 7.12934 6.92496 6.73582 6.43957 6.73582C4.88355 6.73582 3.30152 7.33406 2.09906 8.37715C0.745547 9.55137 0 11.1812 0 12.9663V16.6487C0 17.7851 1.75781 17.7851 1.75781 16.6487V12.9663C1.75781 11.0425 3.18949 8.98219 5.56066 8.5684V42.2837C4.18137 42.4561 2.77277 43.0078 1.76133 43.9799C1.75945 42.783 1.75781 21.3191 1.75781 21.3191C1.75781 20.1827 0 20.1827 0 21.3191V48.6197C0 48.669 0.00503906 48.7171 0.0128906 48.7642C0.0992578 51.3422 2.48437 53.2687 5.63074 53.2687C7.15406 53.2687 8.51695 52.8352 9.5209 52.1207L9.52137 55.3519C9.52184 58.3219 12.4922 60 15.1529 60C17.9771 59.9995 20.7829 58.4089 20.7829 55.35L20.7809 42.9237H45.8109L27.5728 58.452C26.9631 58.971 27.3418 60 28.1426 60H54.6115C55.097 60 55.4904 59.6065 55.4904 59.1211V54.8576C55.4904 53.7212 53.7326 53.7212 53.7326 54.8576V58.2422H30.5307L53.7326 38.488V50.0088C53.7326 51.1452 55.4904 51.1452 55.4904 50.0088V42.9239H59.1211C59.6066 42.9239 60 42.5304 60 42.045V29.7773V6.70219C60 6.2168 59.6066 5.82328 59.1211 5.82328ZM58.2422 7.58109V28.8984H37.658V7.58109H58.2422ZM29.9723 1.75781V24.2514H26.2466V22.0052H26.8848C28.0212 22.0052 28.0212 20.2474 26.8848 20.2474H26.2466V17.9443H27.7051C28.8415 17.9443 28.8415 16.1865 27.7051 16.1865H26.2466V13.8834H26.8848C27.3702 13.8834 27.7637 13.4899 27.7637 13.0045C27.7637 12.5191 27.3702 12.1256 26.8848 12.1256H26.2466V9.82254H27.7051C28.8415 9.82254 28.8415 8.06473 27.7051 8.06473H26.2466V5.76176H26.8848C28.0212 5.76176 28.0212 4.00395 26.8848 4.00395H26.2466V1.75781H29.9723ZM13.882 15.6773C14.2615 15.4978 14.6595 15.372 15.0758 15.2996L15.0812 49.015C14.1021 49.1375 12.5194 49.5221 11.2821 50.7117C11.2801 49.5313 11.2782 48.6176 11.2782 48.5927L11.2736 19.6982C11.2733 18.1233 12.2331 16.4573 13.882 15.6773ZM19.0247 52.7854C18.995 52.7684 18.9652 52.7516 18.9348 52.735C17.9268 52.1816 16.6106 51.8729 15.2216 51.8631L15.2215 50.7704C15.6427 50.7124 15.9255 50.7168 15.9323 50.7168C16.4827 50.68 16.7849 50.3871 16.839 49.8382L16.834 18.0568C17.9991 18.3451 19.0193 18.9357 19.0194 19.5895L19.0247 52.7854ZM9.50367 12.8589V41.8611V46.0429C8.52434 45.4805 7.20094 45.142 5.70082 45.132V44.0391C6.12223 43.9811 6.40512 43.9855 6.41168 43.9856C6.96199 43.9488 7.26422 43.656 7.31848 43.1072V11.3202C8.65723 11.6407 9.50367 12.3054 9.50367 12.8589ZM9.50367 49.0359C9.50367 50.3775 7.73004 51.5109 5.63074 51.5109C3.42785 51.5109 1.7666 50.268 1.7666 48.6197C1.7666 46.9505 2.37164 45.3695 3.94301 44.5711V46.0488C4.00559 46.6238 4.32609 46.9154 4.90441 46.9239C6.12574 46.8089 7.47586 46.9455 8.56781 47.5451C9.19793 47.8911 9.555 48.3306 9.50367 49.0359ZM15.1527 58.2422C15.1523 58.2422 15.1522 58.2422 15.1518 58.2422C12.9495 58.2422 11.2882 56.9995 11.288 55.3516C11.2877 53.6825 11.8924 52.1012 13.4638 51.3026L13.464 52.7804C13.5267 53.3552 13.8472 53.6469 14.4254 53.6552C15.9164 53.5151 19.0966 53.7544 19.0252 55.7665C19.0254 57.1082 17.252 58.242 15.1527 58.2422ZM20.7772 19.5891C20.777 18.0068 19.1865 16.6907 16.8336 16.2544L16.8333 14.3456C16.7829 13.81 16.4899 13.517 15.9543 13.4668C15.5057 13.467 15.0552 13.5183 14.612 13.6141V7.58109H24.4888V25.1302C24.4888 25.6155 24.8823 26.0091 25.3677 26.0091H30.8513C31.3368 26.0091 31.7302 25.6155 31.7302 25.1302V7.58109H35.9002V29.7773V41.166H20.7807L20.7772 19.5891ZM54.98 35.7874C54.6688 35.6436 54.3026 35.6938 54.0416 35.9161L47.8755 41.166H37.658V30.6562H58.2422V41.166H55.4904V36.5854C55.4904 36.2427 55.2912 35.9312 54.98 35.7874Z" fill="#E52713"/>
<path d="M41.8751 25.1856H49.9734C50.2047 25.1856 50.4325 25.0909 50.5957 24.9272L54.6448 20.8813C54.8098 20.7164 54.9025 20.4927 54.9025 20.2595L54.9013 12.1727C54.9013 11.6972 54.4979 11.2939 54.0223 11.2939L45.923 11.2949C45.6902 11.2949 45.4666 11.3875 45.3019 11.5521L41.2545 15.5964C41.0911 15.7593 40.9961 15.9882 40.9961 16.2187V24.3067C40.9962 24.7922 41.3897 25.1856 41.8751 25.1856ZM42.754 17.0977H49.0945V23.4278H42.754V17.0977ZM50.8524 22.1861V16.5831L53.1441 14.2932L53.1449 19.8955L50.8524 22.1861ZM46.2872 13.0527L51.8993 13.052L49.6096 15.3398H43.9981L46.2872 13.0527Z" fill="#E52713"/>
<path d="M46.0326 36.8071H43.1203C41.984 36.8071 41.984 38.5649 43.1203 38.5649H46.0326C47.1689 38.5649 47.1689 36.8071 46.0326 36.8071Z" fill="#E52713"/>
<path d="M50.5825 33.3096H43.1203C41.984 33.3096 41.984 35.0674 43.1203 35.0674H50.5825C51.7189 35.0674 51.7189 33.3096 50.5825 33.3096Z" fill="#E52713"/>
<path d="M49.7726 45.1533L39.1606 54.1885C38.5511 54.7075 38.9298 55.7365 39.7304 55.7365H50.3423C50.8278 55.7365 51.2212 55.343 51.2212 54.8576V45.8225C51.2212 45.1543 50.3772 44.6383 49.7726 45.1533ZM49.4634 53.9787H42.1184L49.4634 47.7251V53.9787Z" fill="#E52713"/>
</svg>
