<svg width="57" height="54" viewBox="0 0 57 54" fill="none" xmlns="http://www.w3.org/2000/svg">
<g clip-path="url(#clip0)">
<path d="M56.376 30.2951L54.447 28.8611V19.5051C54.447 18.5911 53.703 17.8481 52.789 17.8481H50.618V13.3151C50.618 12.8541 50.245 12.4811 49.784 12.4811C49.323 12.4811 48.949 12.8541 48.949 13.3151V17.8481H46.778C45.864 17.8481 45.121 18.5911 45.121 19.5051V21.9311L40.061 18.1711C40.056 18.1671 40.05 18.1631 40.044 18.1591C39.801 17.9881 39.516 17.8981 39.219 17.8981H36.817L35.875 9.8631C35.791 9.1311 35.172 8.5791 34.434 8.5791H28.592C27.833 8.5791 27.211 9.1481 27.145 9.9021L26.439 17.8981H22.388C21.597 17.8981 20.953 18.5411 20.953 19.3321V22.5671L5.15499 18.1431C4.27399 17.8671 3.30599 18.6011 3.33199 19.5241V26.8661C3.33199 27.3271 3.70599 27.7011 4.16599 27.7011C4.62699 27.7011 5.00099 27.3271 5.00099 26.8661V19.8331L20.802 24.2581C21.682 24.5311 22.648 23.7981 22.622 22.8781V19.5671H39.141L55.303 31.5771V47.9831H51.817V45.1171C51.817 44.3261 51.174 43.6831 50.383 43.6831H48.012L47.223 40.1341C48.268 39.7151 49.008 38.6921 49.008 37.5001V30.7791C49.008 29.2151 47.735 27.9421 46.171 27.9421H45.218V27.3311C45.218 26.8701 44.845 26.4971 44.384 26.4971C43.923 26.4971 43.549 26.8701 43.549 27.3311V27.9421H42.597C41.032 27.9421 39.76 29.2151 39.76 30.7791V37.5001C39.76 38.7131 40.525 39.7511 41.599 40.1551L40.815 43.6831H38.081V35.5041C38.081 34.8641 37.651 34.2961 37.034 34.1231L20.027 29.3601C19.147 29.0871 18.181 29.8191 18.206 30.7411V33.9491L1.82099 29.3601C0.940987 29.0871 -0.0250131 29.8191 -1.30903e-05 30.7411V52.0761C-1.30903e-05 52.8671 0.643987 53.5101 1.43499 53.5101H42.263C42.724 53.5101 43.098 53.1371 43.098 52.6761C43.098 52.2151 42.724 51.8411 42.263 51.8411H1.66999V31.0511L18.055 35.6401C18.935 35.9131 19.901 35.1801 19.875 34.2591V31.0511L36.412 35.6821V43.9181C36.412 44.7081 37.056 45.3521 37.847 45.3521H50.148V51.8411H46.229C45.768 51.8411 45.395 52.2151 45.395 52.6761C45.395 53.1371 45.768 53.5101 46.229 53.5101H50.383C51.174 53.5101 51.817 52.8671 51.817 52.0761V49.6521H55.539C56.329 49.6521 56.973 49.0081 56.973 48.2171V31.4591C56.973 30.9981 56.75 30.5641 56.376 30.2951ZM28.79 10.2481H34.24L35.136 17.8981H28.115L28.79 10.2481ZM46.79 19.5171H52.777V27.6211L46.79 23.1711V19.5171ZM41.429 30.7791C41.429 30.1351 41.953 29.6121 42.597 29.6121H46.171C46.815 29.6121 47.338 30.1351 47.338 30.7791V37.5001C47.338 38.1441 46.815 38.6681 46.171 38.6681H42.613H42.609H42.597C41.953 38.6681 41.429 38.1441 41.429 37.5001V30.7791ZM43.268 40.3371H45.559L46.302 43.6831H42.525L43.268 40.3371Z" fill="#E52713"/>
<path d="M10.616 1.90093H13.286C13.658 1.90093 13.961 2.20393 13.961 2.57593C13.961 3.86793 15.012 4.91993 16.304 4.91993H28.608C28.98 4.91993 29.283 5.22193 29.283 5.59393V6.01993C29.283 6.48093 29.657 6.85393 30.117 6.85393C30.578 6.85393 30.952 6.48093 30.952 6.01993V5.59393C30.952 4.30193 29.901 3.24993 28.608 3.24993H16.304C15.932 3.24993 15.63 2.94793 15.63 2.57593C15.63 1.28293 14.578 0.231934 13.286 0.231934H10.616C10.155 0.231934 9.78198 0.605934 9.78198 1.06693C9.78198 1.52693 10.155 1.90093 10.616 1.90093Z" fill="#E52713"/>
<path d="M22.3789 1.669H31.3949C31.7659 1.669 32.0689 1.972 32.0689 2.343V2.769C32.0689 3.23 32.4419 3.604 32.9029 3.604C33.3639 3.604 33.7379 3.23 33.7379 2.769V2.343C33.7379 1.051 32.6869 0 31.3949 0H22.3789C21.9179 0 21.5449 0.374 21.5449 0.835C21.5449 1.295 21.9179 1.669 22.3789 1.669Z" fill="#E52713"/>
<path d="M17.335 40.4701C17.335 39.7031 16.711 39.0781 15.944 39.0781H4.72401C3.95701 39.0781 3.33301 39.7031 3.33301 40.4701V42.2941C3.33301 43.0611 3.95701 43.6851 4.72401 43.6851H15.944C16.711 43.6851 17.335 43.0611 17.335 42.2941V40.4701ZM15.666 42.0161H5.00201V40.7481H15.666V42.0161Z" fill="#E52713"/>
<path d="M15.944 45.0439H4.72401C3.95701 45.0439 3.33301 45.6679 3.33301 46.4349V48.2599C3.33301 49.0269 3.95701 49.6509 4.72401 49.6509H15.944C16.711 49.6509 17.335 49.0269 17.335 48.2599V46.4349C17.335 45.6689 16.711 45.0439 15.944 45.0439ZM15.666 47.9819H5.00201V46.7129H15.666V47.9819Z" fill="#E52713"/>
<path d="M33.356 42.2941V40.4691C33.356 39.7021 32.732 39.0781 31.965 39.0781H26.553C26.092 39.0781 25.718 39.4521 25.718 39.9131C25.718 40.3741 26.092 40.7481 26.553 40.7481H31.687V42.0161H21.023V40.7481H22.628C23.089 40.7481 23.463 40.3741 23.463 39.9131C23.463 39.4521 23.089 39.0781 22.628 39.0781H20.745C19.978 39.0781 19.354 39.7021 19.354 40.4691V42.2941C19.354 43.0611 19.978 43.6851 20.745 43.6851H31.965C32.732 43.6851 33.356 43.0611 33.356 42.2941Z" fill="#E52713"/>
<path d="M20.744 45.0449C19.977 45.0449 19.354 45.6689 19.354 46.4359V48.2599C19.354 49.0269 19.978 49.6519 20.744 49.6519H27.487C28.254 49.6519 28.878 49.0269 28.878 48.2599V46.4359C28.878 45.6689 28.254 45.0449 27.487 45.0449H20.744ZM27.209 47.9829H21.023V46.7139H27.209V47.9829Z" fill="#E52713"/>
<path d="M28.878 28.8789C29.645 28.8789 30.269 28.2549 30.269 27.4879V25.6639C30.269 24.8969 29.645 24.2729 28.878 24.2729H25.785C25.018 24.2729 24.394 24.8969 24.394 25.6639V27.4879C24.394 28.2549 25.018 28.8789 25.785 28.8789H28.878ZM26.063 25.9419H28.6V27.2109H26.063V25.9419Z" fill="#E52713"/>
<path d="M36.973 28.8789C37.74 28.8789 38.364 28.2549 38.364 27.4879V25.6639C38.364 24.8969 37.74 24.2729 36.973 24.2729H33.88C33.113 24.2729 32.489 24.8969 32.489 25.6639V27.4879C32.489 28.2549 33.113 28.8789 33.88 28.8789H36.973ZM34.158 25.9419H36.695V27.2109H34.158V25.9419Z" fill="#E52713"/>
<path d="M39.302 48.8172C39.302 49.2832 39.68 49.6622 40.147 49.6622C40.614 49.6622 40.991 49.2832 40.991 48.8172C40.991 48.3502 40.614 47.9722 40.147 47.9722C39.68 47.9722 39.302 48.3512 39.302 48.8172Z" fill="#E52713"/>
<path d="M44.2749 47.9722C43.8089 47.9722 43.4299 48.3502 43.4299 48.8172C43.4299 49.2842 43.8089 49.6612 44.2749 49.6612C44.7419 49.6612 45.1199 49.2842 45.1199 48.8172C45.1199 48.3502 44.7419 47.9722 44.2749 47.9722Z" fill="#E52713"/>
<path d="M49.0249 48.8172C49.0249 48.3502 48.6469 47.9722 48.1799 47.9722C47.7129 47.9722 47.3359 48.3502 47.3359 48.8172C47.3359 49.2832 47.7129 49.6622 48.1799 49.6622C48.6469 49.6622 49.0249 49.2832 49.0249 48.8172Z" fill="#E52713"/>
<path d="M7.98195 26.3409H13.7289C14.1899 26.3409 14.5629 25.9669 14.5629 25.5069C14.5629 25.0459 14.1899 24.6719 13.7289 24.6719H7.98195C7.52095 24.6719 7.14795 25.0459 7.14795 25.5069C7.14795 25.9669 7.52095 26.3409 7.98195 26.3409Z" fill="#E52713"/>
<path d="M7.98195 29.6251H13.7289C14.1899 29.6251 14.5629 29.2511 14.5629 28.7911C14.5629 28.3301 14.1899 27.9561 13.7289 27.9561H7.98195C7.52095 27.9561 7.14795 28.3301 7.14795 28.7911C7.14795 29.2511 7.52095 29.6251 7.98195 29.6251Z" fill="#E52713"/>
</g>
<defs>
<clipPath id="clip0">
<rect width="56.973" height="53.51" fill="white"/>
</clipPath>
</defs>
</svg>
