<svg width="57" height="56" viewBox="0 0 57 56" fill="none" xmlns="http://www.w3.org/2000/svg">
<g clip-path="url(#clip0)">
<path d="M55.052 16.229H48.767V14.052C48.767 13.161 48.165 12.41 47.347 12.179V4.175C47.347 1.873 45.475 0 43.173 0H37.505C35.203 0 33.33 1.873 33.33 4.175V12.179C32.512 12.41 31.91 13.161 31.91 14.052V16.229H25.09V14.052C25.09 13.161 24.488 12.41 23.67 12.179V4.175C23.67 1.873 21.797 0 19.495 0H13.827C11.525 0 9.653 1.873 9.653 4.175V12.179C8.835 12.41 8.233 13.161 8.233 14.053V16.23H1.948C0.874 16.23 0 17.104 0 18.179V53.43C0 54.504 0.874 55.378 1.948 55.378H55.052C56.126 55.378 57 54.504 57 53.43V18.178C57 17.104 56.126 16.229 55.052 16.229ZM37.505 1.67H43.173C44.554 1.67 45.677 2.794 45.677 4.175V12.104H35V4.175C35 2.793 36.124 1.67 37.505 1.67ZM33.58 14.052C33.58 13.898 33.705 13.773 33.859 13.773H46.819C46.972 13.773 47.097 13.898 47.097 14.052V16.229H43.816C43.355 16.229 42.981 16.604 42.981 17.064C42.981 17.526 43.355 17.899 43.816 17.899H55.052C55.205 17.899 55.33 18.024 55.33 18.178V42.283H26.215V38.937H50.556C51.017 38.937 51.391 38.563 51.391 38.103V21.98C51.391 21.52 51.017 21.145 50.556 21.145H26.215V17.899H40.051C40.511 17.899 40.885 17.526 40.885 17.064C40.885 16.604 40.511 16.229 40.051 16.229H33.58V14.052ZM26.215 22.815H49.721V37.267H26.215V22.815ZM13.827 1.67H19.495C20.876 1.67 22 2.794 22 4.175V12.104H11.323V4.175C11.323 2.793 12.446 1.67 13.827 1.67ZM9.903 14.052C9.903 13.898 10.028 13.773 10.181 13.773H23.141C23.295 13.773 23.42 13.898 23.42 14.052V16.229H9.903V14.052ZM1.67 18.178C1.67 18.024 1.795 17.899 1.948 17.899H24.545V21.758C24.545 21.796 24.548 21.833 24.553 21.869C24.548 21.906 24.545 21.942 24.545 21.98V38.103C24.545 38.141 24.548 38.178 24.553 38.214C24.548 38.251 24.545 38.287 24.545 38.325V42.283H1.67V18.178ZM55.052 53.708H1.948C1.795 53.708 1.67 53.583 1.67 53.43V43.953H55.33V53.43C55.33 53.583 55.205 53.708 55.052 53.708Z" fill="#E52713"/>
<path d="M18.046 21.147H8.16897C7.09397 21.147 6.21997 22.021 6.21997 23.095V27.623C6.21997 28.085 6.59397 28.458 7.05497 28.458C7.51597 28.458 7.88997 28.085 7.88997 27.623V26.079H18.324V34.005H7.88997V31.389C7.88997 30.928 7.51597 30.554 7.05497 30.554C6.59397 30.554 6.21997 30.928 6.21997 31.389V36.99C6.21997 38.064 7.09397 38.938 8.16897 38.938H18.046C19.12 38.938 19.994 38.064 19.994 36.99V23.095C19.994 22.021 19.12 21.147 18.046 21.147ZM7.88997 24.409V23.095C7.88997 22.941 8.01497 22.817 8.16897 22.817H18.046C18.199 22.817 18.324 22.941 18.324 23.095V24.409H7.88997ZM18.046 37.268H8.16897C8.01497 37.268 7.88997 37.143 7.88997 36.99V35.675H18.324V36.99C18.324 37.143 18.199 37.268 18.046 37.268Z" fill="#E52713"/>
<path d="M50.853 46.0449H34.0159C33.5549 46.0449 33.181 46.4179 33.181 46.8799C33.181 47.3409 33.5549 47.7149 34.0159 47.7149H38.443V49.8799H16.435V47.7149H30.2509C30.712 47.7149 31.086 47.3409 31.086 46.8799C31.086 46.4179 30.712 46.0449 30.2509 46.0449H6.14895C5.07395 46.0449 4.19995 46.9189 4.19995 47.9939V49.6019C4.19995 50.6759 5.07395 51.5499 6.14895 51.5499H50.853C51.927 51.5499 52.8009 50.6759 52.8009 49.6019V47.9939C52.8009 46.9189 51.927 46.0449 50.853 46.0449ZM45.214 49.8799H43.498V47.7149H45.214V49.8799ZM40.1129 47.7149H41.8279V49.8799H40.1129V47.7149ZM5.86995 49.6019V47.9939C5.86995 47.8399 5.99495 47.7149 6.14895 47.7149H14.765V49.8799H6.14895C5.99495 49.8799 5.86995 49.7549 5.86995 49.6019ZM51.131 49.6019C51.131 49.7549 51.006 49.8799 50.853 49.8799H46.8839V47.7149H50.853C51.006 47.7149 51.131 47.8399 51.131 47.9939V49.6019Z" fill="#E52713"/>
<path d="M46.578 26.5608L43.231 28.7398L42.12 27.3168C41.836 26.9548 41.313 26.8888 40.95 27.1708L33.337 33.0798L31.703 31.5838C31.43 31.3328 31.024 31.2928 30.706 31.4868L28.933 32.5628C28.539 32.8018 28.414 33.3158 28.653 33.7098C28.892 34.1038 29.406 34.2298 29.8 33.9908L31.038 33.2388L32.729 34.7878C32.888 34.9318 33.09 35.0058 33.293 35.0058C33.473 35.0058 33.653 34.9478 33.805 34.8308L41.316 29.0008L42.386 30.3718C42.653 30.7128 43.137 30.7928 43.5 30.5568L47.489 27.9608C47.875 27.7088 47.985 27.1928 47.733 26.8058C47.482 26.4188 46.964 26.3108 46.578 26.5608Z" fill="#E52713"/>
<path d="M29.367 29.3931H30.19C30.652 29.3931 31.025 29.0191 31.025 28.5581C31.025 28.0971 30.652 27.7231 30.19 27.7231H29.367C28.906 27.7231 28.532 28.0971 28.532 28.5581C28.532 29.0191 28.906 29.3931 29.367 29.3931Z" fill="#E52713"/>
<path d="M29.367 26.6949H30.19C30.652 26.6949 31.025 26.3209 31.025 25.8599C31.025 25.3989 30.652 25.0249 30.19 25.0249H29.367C28.906 25.0249 28.532 25.3989 28.532 25.8599C28.532 26.3209 28.906 26.6949 29.367 26.6949Z" fill="#E52713"/>
<path d="M33.1751 29.3931H33.9981C34.4591 29.3931 34.8331 29.0191 34.8331 28.5581C34.8331 28.0971 34.4591 27.7231 33.9981 27.7231H33.1751C32.7141 27.7231 32.3401 28.0971 32.3401 28.5581C32.3401 29.0191 32.7141 29.3931 33.1751 29.3931Z" fill="#E52713"/>
<path d="M33.1751 26.6949H33.9981C34.4591 26.6949 34.8331 26.3209 34.8331 25.8599C34.8331 25.3989 34.4591 25.0249 33.9981 25.0249H33.1751C32.7141 25.0249 32.3401 25.3989 32.3401 25.8599C32.3401 26.3209 32.7141 26.6949 33.1751 26.6949Z" fill="#E52713"/>
</g>
<defs>
<clipPath id="clip0">
<rect width="57" height="55.378" fill="white"/>
</clipPath>
</defs>
</svg>
