<svg width="60" height="46" viewBox="0 0 60 46" fill="none" xmlns="http://www.w3.org/2000/svg">
<g clip-path="url(#clip0)">
<path d="M28.4432 12.9852L28.4432 12.9853C27.0223 15.1486 25.1184 18.1845 23.5694 21.1443C22.7949 22.6242 22.1082 24.0868 21.6149 25.413C21.1224 26.7372 20.8194 27.9336 20.8194 28.8785C20.8194 33.9607 24.9878 38.0588 29.9997 38.0588C35.0056 38.0588 39.1817 33.9668 39.1817 28.8785C39.1817 27.9336 38.8787 26.7373 38.3861 25.4132C37.8927 24.0872 37.2059 22.6248 36.4313 21.145C34.8821 18.1853 32.978 15.1494 31.5571 12.9853L31.557 12.9852C31.2074 12.454 30.6001 12.193 30.0001 12.193C29.4002 12.193 28.7929 12.454 28.4432 12.9852ZM30.3713 27.9217L30.3715 27.922C31.2266 29.278 31.8983 30.4736 32.3559 31.4431C32.5846 31.9279 32.7592 32.3547 32.8764 32.7158C32.994 33.0783 33.0518 33.3686 33.0518 33.5822C33.0518 35.2652 31.682 36.6335 29.9997 36.6335C28.3183 36.6335 26.9484 35.2652 26.9484 33.5822C26.9484 33.3686 27.0062 33.0783 27.1239 32.7158C27.2411 32.3547 27.4156 31.9279 27.6443 31.4431C28.1017 30.4736 28.7732 29.278 29.628 27.922C29.8027 27.6451 30.1985 27.6457 30.3713 27.9217ZM25.5239 33.5839C25.5239 33.6532 25.5264 33.7217 25.5308 33.7895C25.2335 33.1541 25.0673 32.4463 25.0673 31.7011C25.0673 31.3324 25.1679 30.8395 25.3685 30.2323C25.5687 29.6266 25.8664 28.9132 26.2557 28.1054C27.0344 26.49 28.1769 24.503 29.6307 22.2551L29.6308 22.255C29.8067 21.9825 30.1917 21.9819 30.3697 22.2553C31.8234 24.5035 32.9659 26.4906 33.7446 28.1062C34.1339 28.9141 34.4316 29.6276 34.6317 30.2335C34.8324 30.8408 34.933 31.3339 34.933 31.7028C34.933 32.4466 34.7668 33.1536 34.4695 33.7891C34.4739 33.7215 34.4763 33.6532 34.4763 33.5839C34.4763 32.9663 34.2264 32.1171 33.7435 31.0508C33.2594 29.9817 32.5359 28.6837 31.5776 27.1648C31.2311 26.6128 30.6122 26.3416 30.0008 26.3416C29.3894 26.3416 28.7701 26.6127 28.4227 27.1646C27.4644 28.6836 26.7409 29.9817 26.2568 31.0508C25.7739 32.1171 25.5239 32.9663 25.5239 33.5839ZM36.0208 33.7533C36.2392 33.1084 36.3575 32.4178 36.3575 31.7002C36.3575 31.1094 36.191 30.3849 35.912 29.5832C35.6325 28.78 35.2376 27.8926 34.7756 26.9736C33.8515 25.1356 32.6553 23.1649 31.5651 21.4789L31.565 21.4787C30.8276 20.3423 29.171 20.3421 28.4352 21.4788L28.4352 21.4789C27.3446 23.1644 26.1483 25.1348 25.2244 26.9727C24.7624 27.8916 24.3676 28.7791 24.0882 29.5824C23.8092 30.3843 23.6428 31.1089 23.6428 31.7002C23.6428 32.4183 23.7613 33.1083 23.9799 33.7538C22.894 32.4158 22.2439 30.7155 22.2439 28.8785C22.2439 28.2849 22.413 27.4855 22.7437 26.5045C23.0739 25.5251 23.563 24.3714 24.1977 23.0717C25.4671 20.4723 27.3163 17.2942 29.6337 13.767C29.7977 13.5179 30.2017 13.5176 30.3667 13.7672C32.684 17.2943 34.5332 20.4723 35.8025 23.0717C36.4373 24.3714 36.9263 25.5251 37.2565 26.5045C37.5873 27.4855 37.7563 28.2849 37.7563 28.8785C37.7563 30.7153 37.1064 32.4154 36.0208 33.7533Z" fill="#E52713" stroke="#E52713" stroke-width="0.2"/>
<mask id="path-2-outside-1" maskUnits="userSpaceOnUse" x="-1" y="-1" width="62" height="47" fill="black">
<rect fill="white" x="-1" y="-1" width="62" height="47"/>
<path d="M58.1628 39.1834H57.551V20.2039C57.551 17.1659 55.0792 14.6932 52.0411 14.6932H47.7549V14.0814C47.7549 13.0682 46.931 12.2451 45.9186 12.2451H45.3068V3.06169C45.3068 1.37324 43.9335 0 42.2442 0H40.92H40.7383H19.2735H18.7386H17.7558C16.0673 0 14.6941 1.37324 14.6941 3.06169V12.2451H14.0814C13.069 12.2451 12.2451 13.0682 12.2451 14.0814V14.6932H7.95972C4.92085 14.6932 2.44986 17.1659 2.44986 20.2039V39.1834H1.83718C0.824789 39.1834 0 40.0073 0 41.0206V43.4687C0 44.4811 0.824789 45.3059 1.83718 45.3059H9.18338C10.1966 45.3059 11.0206 44.4811 11.0206 43.4687V41.0206C11.0206 40.0073 10.1966 39.1834 9.18338 39.1834H8.57239V21.4285C8.57239 21.0904 8.84704 20.8158 9.18338 20.8158H12.2451V21.4285C12.2451 22.4408 13.069 23.2648 14.0814 23.2648H14.6941V39.1834H14.0814C13.069 39.1834 12.2451 40.0073 12.2451 41.0206V43.4687C12.2451 44.4811 13.069 45.3059 14.0814 45.3059H45.9186C46.931 45.3059 47.7549 44.4811 47.7549 43.4687V41.0206C47.7549 40.0073 46.931 39.1834 45.9186 39.1834H45.3068V23.2648H45.9186C46.931 23.2648 47.7549 22.4408 47.7549 21.4285V20.8158H50.8166C51.153 20.8158 51.4284 21.0904 51.4284 21.4285V39.1834H50.8166C49.8042 39.1834 48.9794 40.0073 48.9794 41.0206V43.4687C48.9794 44.4811 49.8042 45.3059 50.8166 45.3059H58.1628C59.1761 45.3059 60 44.4811 60 43.4687V41.0206C60 40.0073 59.1761 39.1834 58.1628 39.1834ZM40.7383 1.22366V1.22451H42.2442C43.2583 1.22451 44.0814 2.04761 44.0814 3.06169V39.1834H15.9186V3.06169C15.9186 2.04761 16.7425 1.22451 17.7558 1.22451H19.2735V1.22366H40.7383ZM9.79606 41.0206V43.4687C9.79606 43.8068 9.52056 44.0814 9.18338 44.0814H1.83718C1.50085 44.0814 1.22451 43.8068 1.22451 43.4687V41.0206C1.22451 40.6817 1.50085 40.4079 1.83718 40.4079H9.18338C9.52056 40.4079 9.79606 40.6817 9.79606 41.0206ZM9.18338 19.5913C8.17099 19.5913 7.34789 20.4161 7.34789 21.4285V39.1834H3.67352V20.2039C3.67352 17.8411 5.59606 15.9177 7.95972 15.9177H12.2451V19.5913H9.18338ZM14.0814 22.0403C13.7451 22.0403 13.4696 21.7656 13.4696 21.4285V14.0814C13.4696 13.7434 13.7451 13.4687 14.0814 13.4687H14.6941V22.0403H14.0814ZM46.5313 41.0206V43.4687C46.5313 43.8068 46.2558 44.0814 45.9186 44.0814H14.0814C13.7451 44.0814 13.4696 43.8068 13.4696 43.4687V41.0206C13.4696 40.6817 13.7451 40.4079 14.0814 40.4079H45.9186C46.2558 40.4079 46.5313 40.6817 46.5313 41.0206ZM46.5313 21.4285C46.5313 21.7656 46.2558 22.0403 45.9186 22.0403H45.3068V13.4687H45.9186C46.2558 13.4687 46.5313 13.7434 46.5313 14.0814V21.4285ZM50.8166 19.5913H47.7549V15.9177H52.0411C54.4039 15.9177 56.3273 17.8411 56.3273 20.2039V39.1834H52.6538V21.4285C52.6538 20.4161 51.829 19.5913 50.8166 19.5913ZM58.7755 43.4687C58.7755 43.8068 58.5008 44.0814 58.1628 44.0814H50.8166C50.4803 44.0814 50.2039 43.8068 50.2039 43.4687V41.0206C50.2039 40.6817 50.4803 40.4079 50.8166 40.4079H52.0411H56.9383H58.1628C58.5008 40.4079 58.7755 40.6817 58.7755 41.0206V43.4687Z"/>
</mask>
<path d="M58.1628 39.1834H57.551V20.2039C57.551 17.1659 55.0792 14.6932 52.0411 14.6932H47.7549V14.0814C47.7549 13.0682 46.931 12.2451 45.9186 12.2451H45.3068V3.06169C45.3068 1.37324 43.9335 0 42.2442 0H40.92H40.7383H19.2735H18.7386H17.7558C16.0673 0 14.6941 1.37324 14.6941 3.06169V12.2451H14.0814C13.069 12.2451 12.2451 13.0682 12.2451 14.0814V14.6932H7.95972C4.92085 14.6932 2.44986 17.1659 2.44986 20.2039V39.1834H1.83718C0.824789 39.1834 0 40.0073 0 41.0206V43.4687C0 44.4811 0.824789 45.3059 1.83718 45.3059H9.18338C10.1966 45.3059 11.0206 44.4811 11.0206 43.4687V41.0206C11.0206 40.0073 10.1966 39.1834 9.18338 39.1834H8.57239V21.4285C8.57239 21.0904 8.84704 20.8158 9.18338 20.8158H12.2451V21.4285C12.2451 22.4408 13.069 23.2648 14.0814 23.2648H14.6941V39.1834H14.0814C13.069 39.1834 12.2451 40.0073 12.2451 41.0206V43.4687C12.2451 44.4811 13.069 45.3059 14.0814 45.3059H45.9186C46.931 45.3059 47.7549 44.4811 47.7549 43.4687V41.0206C47.7549 40.0073 46.931 39.1834 45.9186 39.1834H45.3068V23.2648H45.9186C46.931 23.2648 47.7549 22.4408 47.7549 21.4285V20.8158H50.8166C51.153 20.8158 51.4284 21.0904 51.4284 21.4285V39.1834H50.8166C49.8042 39.1834 48.9794 40.0073 48.9794 41.0206V43.4687C48.9794 44.4811 49.8042 45.3059 50.8166 45.3059H58.1628C59.1761 45.3059 60 44.4811 60 43.4687V41.0206C60 40.0073 59.1761 39.1834 58.1628 39.1834ZM40.7383 1.22366V1.22451H42.2442C43.2583 1.22451 44.0814 2.04761 44.0814 3.06169V39.1834H15.9186V3.06169C15.9186 2.04761 16.7425 1.22451 17.7558 1.22451H19.2735V1.22366H40.7383ZM9.79606 41.0206V43.4687C9.79606 43.8068 9.52056 44.0814 9.18338 44.0814H1.83718C1.50085 44.0814 1.22451 43.8068 1.22451 43.4687V41.0206C1.22451 40.6817 1.50085 40.4079 1.83718 40.4079H9.18338C9.52056 40.4079 9.79606 40.6817 9.79606 41.0206ZM9.18338 19.5913C8.17099 19.5913 7.34789 20.4161 7.34789 21.4285V39.1834H3.67352V20.2039C3.67352 17.8411 5.59606 15.9177 7.95972 15.9177H12.2451V19.5913H9.18338ZM14.0814 22.0403C13.7451 22.0403 13.4696 21.7656 13.4696 21.4285V14.0814C13.4696 13.7434 13.7451 13.4687 14.0814 13.4687H14.6941V22.0403H14.0814ZM46.5313 41.0206V43.4687C46.5313 43.8068 46.2558 44.0814 45.9186 44.0814H14.0814C13.7451 44.0814 13.4696 43.8068 13.4696 43.4687V41.0206C13.4696 40.6817 13.7451 40.4079 14.0814 40.4079H45.9186C46.2558 40.4079 46.5313 40.6817 46.5313 41.0206ZM46.5313 21.4285C46.5313 21.7656 46.2558 22.0403 45.9186 22.0403H45.3068V13.4687H45.9186C46.2558 13.4687 46.5313 13.7434 46.5313 14.0814V21.4285ZM50.8166 19.5913H47.7549V15.9177H52.0411C54.4039 15.9177 56.3273 17.8411 56.3273 20.2039V39.1834H52.6538V21.4285C52.6538 20.4161 51.829 19.5913 50.8166 19.5913ZM58.7755 43.4687C58.7755 43.8068 58.5008 44.0814 58.1628 44.0814H50.8166C50.4803 44.0814 50.2039 43.8068 50.2039 43.4687V41.0206C50.2039 40.6817 50.4803 40.4079 50.8166 40.4079H52.0411H56.9383H58.1628C58.5008 40.4079 58.7755 40.6817 58.7755 41.0206V43.4687Z" fill="#E52713"/>
<path d="M58.1628 39.1834H57.551V20.2039C57.551 17.1659 55.0792 14.6932 52.0411 14.6932H47.7549V14.0814C47.7549 13.0682 46.931 12.2451 45.9186 12.2451H45.3068V3.06169C45.3068 1.37324 43.9335 0 42.2442 0H40.92H40.7383H19.2735H18.7386H17.7558C16.0673 0 14.6941 1.37324 14.6941 3.06169V12.2451H14.0814C13.069 12.2451 12.2451 13.0682 12.2451 14.0814V14.6932H7.95972C4.92085 14.6932 2.44986 17.1659 2.44986 20.2039V39.1834H1.83718C0.824789 39.1834 0 40.0073 0 41.0206V43.4687C0 44.4811 0.824789 45.3059 1.83718 45.3059H9.18338C10.1966 45.3059 11.0206 44.4811 11.0206 43.4687V41.0206C11.0206 40.0073 10.1966 39.1834 9.18338 39.1834H8.57239V21.4285C8.57239 21.0904 8.84704 20.8158 9.18338 20.8158H12.2451V21.4285C12.2451 22.4408 13.069 23.2648 14.0814 23.2648H14.6941V39.1834H14.0814C13.069 39.1834 12.2451 40.0073 12.2451 41.0206V43.4687C12.2451 44.4811 13.069 45.3059 14.0814 45.3059H45.9186C46.931 45.3059 47.7549 44.4811 47.7549 43.4687V41.0206C47.7549 40.0073 46.931 39.1834 45.9186 39.1834H45.3068V23.2648H45.9186C46.931 23.2648 47.7549 22.4408 47.7549 21.4285V20.8158H50.8166C51.153 20.8158 51.4284 21.0904 51.4284 21.4285V39.1834H50.8166C49.8042 39.1834 48.9794 40.0073 48.9794 41.0206V43.4687C48.9794 44.4811 49.8042 45.3059 50.8166 45.3059H58.1628C59.1761 45.3059 60 44.4811 60 43.4687V41.0206C60 40.0073 59.1761 39.1834 58.1628 39.1834ZM40.7383 1.22366V1.22451H42.2442C43.2583 1.22451 44.0814 2.04761 44.0814 3.06169V39.1834H15.9186V3.06169C15.9186 2.04761 16.7425 1.22451 17.7558 1.22451H19.2735V1.22366H40.7383ZM9.79606 41.0206V43.4687C9.79606 43.8068 9.52056 44.0814 9.18338 44.0814H1.83718C1.50085 44.0814 1.22451 43.8068 1.22451 43.4687V41.0206C1.22451 40.6817 1.50085 40.4079 1.83718 40.4079H9.18338C9.52056 40.4079 9.79606 40.6817 9.79606 41.0206ZM9.18338 19.5913C8.17099 19.5913 7.34789 20.4161 7.34789 21.4285V39.1834H3.67352V20.2039C3.67352 17.8411 5.59606 15.9177 7.95972 15.9177H12.2451V19.5913H9.18338ZM14.0814 22.0403C13.7451 22.0403 13.4696 21.7656 13.4696 21.4285V14.0814C13.4696 13.7434 13.7451 13.4687 14.0814 13.4687H14.6941V22.0403H14.0814ZM46.5313 41.0206V43.4687C46.5313 43.8068 46.2558 44.0814 45.9186 44.0814H14.0814C13.7451 44.0814 13.4696 43.8068 13.4696 43.4687V41.0206C13.4696 40.6817 13.7451 40.4079 14.0814 40.4079H45.9186C46.2558 40.4079 46.5313 40.6817 46.5313 41.0206ZM46.5313 21.4285C46.5313 21.7656 46.2558 22.0403 45.9186 22.0403H45.3068V13.4687H45.9186C46.2558 13.4687 46.5313 13.7434 46.5313 14.0814V21.4285ZM50.8166 19.5913H47.7549V15.9177H52.0411C54.4039 15.9177 56.3273 17.8411 56.3273 20.2039V39.1834H52.6538V21.4285C52.6538 20.4161 51.829 19.5913 50.8166 19.5913ZM58.7755 43.4687C58.7755 43.8068 58.5008 44.0814 58.1628 44.0814H50.8166C50.4803 44.0814 50.2039 43.8068 50.2039 43.4687V41.0206C50.2039 40.6817 50.4803 40.4079 50.8166 40.4079H52.0411H56.9383H58.1628C58.5008 40.4079 58.7755 40.6817 58.7755 41.0206V43.4687Z" stroke="#E52713" stroke-width="0.4" mask="url(#path-2-outside-1)"/>
</g>
<defs>
<clipPath id="clip0">
<rect width="60" height="45.3059" fill="white"/>
</clipPath>
</defs>
</svg>
