<svg width="558" height="234" viewBox="0 0 558 234" fill="none" xmlns="http://www.w3.org/2000/svg">
<rect x="280.167" y="8.65179" width="152.874" height="152.874" rx="14" transform="rotate(45 280.167 8.65179)" stroke="#243340" stroke-width="12"/>
<path d="M270.167 80.3789C274.621 75.737 275.623 69.8734 275.429 65.7463C273.556 66.3988 271.799 67.4693 270.309 68.9594L232.972 106.293C227.676 111.589 227.676 120.256 232.972 125.552L242.029 134.608C241.318 129.624 241.829 123.318 245.347 115.952C247.292 125.924 251.565 128.031 257.374 130.691C250.873 108.196 253.002 97.7112 270.167 80.3789Z" fill="#E52713"/>
<path d="M326.905 106.293L289.568 68.9594C287.062 66.4532 283.802 65.1347 280.501 64.9999C285.129 69.0561 289.486 76.9342 290.245 93.693C293.993 85.5506 301.534 85.5506 301.534 85.5506C301.534 85.5506 295.696 95.7647 307.576 111.571C314.544 119.969 315.613 129.665 315.009 137.448L326.905 125.552C332.2 120.256 332.2 111.589 326.905 106.293Z" fill="#E52713"/>
<path d="M282.395 92.7423C256.169 115.527 275.691 137.747 280.099 147.297C284.507 156.846 273.317 160.941 266.356 158.825C269.712 163.301 277.857 170.637 287.618 164.483C302.663 154.536 297.413 142.116 285.753 123.515C273.825 104.489 282.395 92.7423 282.395 92.7423Z" fill="#E52713"/>
<path d="M130.176 225H144.864V185.832H167.04V171.144H145.728V34.344C145.152 24.84 144.864 22.536 134.496 21.096C125.568 21.096 120.96 25.704 116.064 31.464L12.96 153.288C8.64 157.896 5.76 163.944 5.76 169.416C5.76 174.888 8.352 179.784 12.096 182.376C16.704 185.832 23.616 185.832 27.936 185.832H130.176V225ZM130.752 171.144H27.36C25.056 171.144 21.312 171.144 21.312 167.4C21.312 166.248 22.752 163.944 25.632 160.488L126.432 40.392C127.872 38.376 129.024 37.512 129.6 37.512C130.464 37.512 130.752 37.8 130.752 38.664V171.144Z" fill="#243340"/>
<path d="M519.176 225H533.864V185.832H556.04V171.144H534.728V34.344C534.152 24.84 533.864 22.536 523.496 21.096C514.568 21.096 509.96 25.704 505.064 31.464L401.96 153.288C397.64 157.896 394.76 163.944 394.76 169.416C394.76 174.888 397.352 179.784 401.096 182.376C405.704 185.832 412.616 185.832 416.936 185.832H519.176V225ZM519.752 171.144H416.36C414.056 171.144 410.312 171.144 410.312 167.4C410.312 166.248 411.752 163.944 414.632 160.488L515.432 40.392C516.872 38.376 518.024 37.512 518.6 37.512C519.464 37.512 519.752 37.8 519.752 38.664V171.144Z" fill="#243340"/>
</svg>
