<svg width="0" height="0" class="hidden">
	<symbol xmlns="http://www.w3.org/2000/svg" viewBox="0 0 90.7 90.7" id="youtube"><path d="M82.3 46c-1-4.2-4.3-7.2-8.3-7.6-9.5-1-19-1-28.6-1-9.6 0-19.2 0-28.7 1-4 .4-7.3 3.4-8.3 7.5A82 82 0 007.1 64c0 6 0 12.3 1.3 18 1 4.2 4.3 7.2 8.3 7.6 9.5 1 19 1 28.6 1 9.6 0 19.2 0 28.7-1 4-.4 7.3-3.4 8.3-7.5A82 82 0 0083.6 64c0-6 0-12.3-1.3-18zm-53.4 4.4h-5.5v29.4h-5.2V50.4h-5.4v-4.8h16.1v4.8zm14 29.4h-4.7v-2.7c-1.8 2-3.5 3-5.2 3-1.5 0-2.6-.5-3-1.8-.3-.8-.4-2-.4-3.8V54.3h4.6V75c.2.7.5 1 1.1 1 1 0 2-.6 3-2V54.2h4.6v25.5zm17.6-7.6c0 2.3-.2 4-.5 5.1-.6 2-1.9 2.9-3.7 2.9-1.7 0-3.2-1-4.8-2.8v2.4H47V45.6h4.6v11.2c1.5-1.9 3-2.8 4.8-2.8 1.8 0 3 1 3.7 2.9.3 1 .4 2.7.4 5.1v10.2zm17.4-4.3h-9.2v4.5c0 2.4.7 3.6 2.3 3.6 1.2 0 1.8-.6 2-1.9.1-.2.2-1.2.2-3.1h4.7v3.7c-.2 1-.6 2-1.2 2.7a6.4 6.4 0 01-5.6 2.8c-2.4 0-4.2-.9-5.6-2.6-1-1.3-1.5-3.3-1.5-6v-9c0-2.7.5-4.7 1.5-6A6.6 6.6 0 0171 54c2.3 0 4.2.9 5.5 2.6 1 1.3 1.4 3.3 1.4 6V68z"/><path d="M71 58.2c-1.6 0-2.3 1.1-2.3 3.5v2.4h4.6v-2.4c0-2.4-.8-3.5-2.3-3.5z"/><path d="M53.8 58.2c-.7 0-1.5.3-2.3 1v15.6c.8.8 1.5 1.2 2.3 1.2 1.3 0 2-1.2 2-3.5V61.6c0-2.3-.7-3.4-2-3.4z"/><path d="M56.4 35c1.7 0 3.5-1 5.3-3.2v2.8h4.7V8.8h-4.7v19.7c-1 1.5-2 2.2-3 2.2-.5 0-1-.3-1-1V8.7H53v20.4c0 1.8.1 3 .4 3.9.5 1.3 1.5 1.9 3 1.9z"/><path d="M23.9 20.6v14H29v-14L35.3 0H30l-3.5 13.6L22.8 0h-5.4l3.3 9.6c1.6 4.9 2.7 8.5 3.2 11z"/><path d="M42.2 35c2.4 0 4.2-1 5.5-2.7 1-1.3 1.4-3.3 1.4-6v-9c0-2.8-.4-4.8-1.4-6.1a6.4 6.4 0 00-5.5-2.7c-2.3 0-4.1.9-5.4 2.7-1 1.3-1.5 3.3-1.5 6v9c0 2.8.5 4.8 1.5 6.1a6.4 6.4 0 005.4 2.7zM40 16.3c0-2.4.7-3.6 2.2-3.6 1.5 0 2.2 1.2 2.2 3.6V27c0 2.4-.7 3.6-2.2 3.6-1.5 0-2.2-1.2-2.2-3.6V16.3z"/></symbol>

	<symbol xmlns="http://www.w3.org/2000/svg" viewBox="0 0 8 16" id="facebook"><path fill-rule="evenodd" clip-rule="evenodd" d="M5.2 16V8.69h2.35l.36-2.84H5.2V4.04c0-.83.2-1.39 1.34-1.39H8V.11C7.75.06 6.89 0 5.89 0 3.8 0 2.37 1.32 2.37 3.75v2.1H0V8.7h2.37V16H5.2z"/></symbol>

	<symbol xmlns="http://www.w3.org/2000/svg" viewBox="0 0 18 10" id="vk"><path fill-rule="evenodd" clip-rule="evenodd" d="M15.34 6.33l1.11.99c.25.24.68.6 1.08 1.12.64.84.7 1.41-.28 1.49-1.41-.05-3.37.14-3.73-.31C12.07 8.19 11 6.7 10.56 8.59c-.06.33-.07.66-.1.83 0 .3-.03.47-.73.55H9.7c-.29.04-.62.04-.97.01-1.38 0-2.72-.5-3.77-1.4a9.9 9.9 0 01-1.4-1.47c-.7-.86-1.32-1.79-1.86-2.76A62.18 62.18 0 01.1 1.24C.08 1.2.08 1.17.09 1.15-.08.7-.03.45.44.5c2.4-.02 3.17-.4 3.48.6 1.8 4.03 3.42 5.63 3.1.86C6.81.71 6.43.82 6.31.8c-1.09-.01.33-.8.5-.74 1.46 0 3.67-.4 3.73.86 0 1.63-.81 7.25 2.53 1.23l.38-.86c.24-.53.26-.88.82-.8h2.84c.08.04 1.38-.26.57 1.17-1.14 2.4-3.57 3.55-2.35 4.67h.01z"/></symbol>

	<symbol xmlns="http://www.w3.org/2000/svg" viewBox="0 0 16 13" id="twitter"><path fill-rule="evenodd" clip-rule="evenodd" d="M15.56.24a6.6 6.6 0 01-2.09.8 3.27 3.27 0 00-5.58 2.99A9.32 9.32 0 011.11.6a3.27 3.27 0 001.02 4.38 3.28 3.28 0 01-1.49-.41v.04a3.29 3.29 0 002.64 3.22c-.49.13-1 .15-1.49.06a3.29 3.29 0 003.07 2.28A6.59 6.59 0 010 11.53 9.3 9.3 0 005.03 13c6.04 0 9.34-5 9.34-9.34l-.01-.43A6.6 6.6 0 0016 1.53c-.59.27-1.22.45-1.88.53A3.3 3.3 0 0015.55.24h.01z"/></symbol>

	<symbol xmlns="http://www.w3.org/2000/svg" viewBox="0 0 18 18" id="instagram"><path d="M9 0C5.3 0 1.8-.3.5 3.1-.1 4.5 0 6.3 0 9c0 2.3 0 4.4.5 5.8C1.8 18.3 5.3 18 9 18c3.5 0 7.2.4 8.5-3 .6-1.5.5-3.3.5-6 0-3.4.2-5.7-1.5-7.4C14.8-.2 12.5 0 9 0zm-.8 1.6c7.7 0 8.7-.8 8.1 11-.2 4.2-3.4 3.7-7.3 3.7-7.2 0-7.4-.2-7.4-7.3 0-7.3.6-7.4 6.6-7.4zm5.6 1.5a1 1 0 100 2.2 1 1 0 000-2.2zM9 4.4a4.6 4.6 0 100 9.2 4.6 4.6 0 000-9.2zM9 6c4 0 4 6 0 6S5 6 9 6z"/></symbol>

	<symbol xmlns="http://www.w3.org/2000/svg" viewBox="0 0 20 20" id="search"><path d="M8.8 0a8.82 8.82 0 000 17.62A8.82 8.82 0 008.8 0zm0 15.99A7.19 7.19 0 118.83 1.6a7.19 7.19 0 01-.01 14.38z"/><path d="M19.76 18.61l-4.66-4.66a.81.81 0 10-1.15 1.15l4.66 4.66a.81.81 0 001.15 0 .81.81 0 000-1.15z"/></symbol>

	<symbol xmlns="http://www.w3.org/2000/svg" viewBox="0 0 36 36" id="whatsapp"><path d="M30.65 5.23A17.84 17.84 0 0017.98 0C13.2 0 8.7 1.86 5.3 5.22A17.66 17.66 0 000 17.83v.01c0 2.88.76 5.78 2.19 8.43L.05 36l9.84-2.24a17.93 17.93 0 0020.78-3.3 17.64 17.64 0 00-.02-25.23zM17.98 32.87c-2.52 0-5.02-.63-7.22-1.83l-.47-.25-6.55 1.49 1.43-6.46-.28-.48a15.02 15.02 0 01-2.08-7.5C2.81 9.56 9.62 2.8 17.98 2.8c4.04 0 7.84 1.57 10.69 4.4a14.94 14.94 0 014.49 10.64c0 8.28-6.81 15.02-15.18 15.02z"/><path d="M13.09 9.97h-.79c-.27 0-.72.1-1.1.52-.37.4-1.44 1.4-1.44 3.42 0 2.01 1.48 3.96 1.68 4.24.2.27 2.85 4.54 7.03 6.18 3.47 1.37 4.18 1.1 4.94 1.03.75-.07 2.43-1 2.77-1.95.35-.96.35-1.78.24-1.95-.1-.17-.38-.27-.79-.48-.4-.2-2.42-1.2-2.8-1.35-.38-.13-.65-.2-.93.2-.27.42-1.08 1.37-1.32 1.64-.24.27-.48.3-.89.1-.41-.2-1.72-.64-3.3-2.04a12.6 12.6 0 01-2.3-2.88c-.25-.41-.03-.63.18-.84.18-.18.43-.43.64-.67.2-.24.26-.41.4-.69.13-.27.06-.5-.04-.71-.1-.2-.89-2.24-1.26-3.05-.3-.68-.63-.7-.92-.72z"/></symbol>

	<symbol xmlns="http://www.w3.org/2000/svg" viewBox="0 0 36 36" id="telegram"><path fill-rule="evenodd" clip-rule="evenodd" d="M18 34a16 16 0 100-32 16 16 0 000 32zm0 2a18 18 0 100-36 18 18 0 000 36z"/><path d="M10.28 17.71l3.69 1.38 1.43 4.59c.09.3.45.4.69.2l2.05-1.67a.61.61 0 01.75-.02l3.7 2.7c.26.18.62.04.69-.27l2.71-13.06a.43.43 0 00-.58-.5L10.28 16.9a.43.43 0 000 .81zm4.89.65l7.2-4.44c.13-.08.26.1.15.2l-5.94 5.53c-.21.2-.35.45-.39.73l-.2 1.5c-.02.2-.3.23-.36.03l-.78-2.74a.73.73 0 01.32-.81z"/></symbol>

	<symbol xmlns="http://www.w3.org/2000/svg" viewBox="0 0 8 12" id="arrow-left"><path fill-rule="evenodd" clip-rule="evenodd" d="M7.13.45a1 1 0 00-1.41 0L.87 5.29a1 1 0 000 1.42l4.85 4.84a1 1 0 001.41-1.41L2.99 6l4.14-4.14a1 1 0 000-1.41z"/></symbol>

	<symbol xmlns="http://www.w3.org/2000/svg" viewBox="0 0 8 12" id="arrow-right"><path fill-rule="evenodd" clip-rule="evenodd" d="M.87.45a1 1 0 011.41 0l4.85 4.84a1 1 0 010 1.42l-4.85 4.84a1 1 0 01-1.41-1.41L5.01 6 .87 1.86a1 1 0 010-1.41z"/></symbol>

	<symbol xmlns="http://www.w3.org/2000/svg" viewBox="0 0 16 16" id="close"><path d="M9.42 8l6.29-6.3A1 1 0 1014.29.3L8 6.58 1.7.29A1 1 0 10.3 1.71L6.58 8l-6.3 6.28a1 1 0 101.42 1.42L8 9.4l6.3 6.3a1 1 0 001.4 0 1 1 0 000-1.42L9.43 8z"/></symbol>

	<symbol xmlns="http://www.w3.org/2000/svg" viewBox="0 0 9 13" id="download"><path d="M5.4 7.35l.67-.7 1.52-1.5a.83.83 0 011.17.02c.32.31.32.82 0 1.16l-.07.07-3.14 3.11c-.62.62-1.47.62-2.09.01L.28 6.36C0 6.1-.07 5.74.08 5.41c.14-.3.46-.5.8-.49a.9.9 0 01.6.3l2 1.96.12.17.06-.03v-.2V.88c0-.58.45-.97 1-.88.4.07.68.42.68.87V7.31l.05.04z"/><path d="M4.48 13H.9c-.57 0-.94-.4-.89-.92a.82.82 0 01.7-.73l.29-.01h7c.13 0 .27 0 .4.03.38.1.62.46.6.87a.81.81 0 01-.7.74c-.1.02-.2.02-.3.02H4.48z"/></symbol>
</svg>