<svg width="160" height="160" viewBox="0 0 160 160" fill="none" xmlns="http://www.w3.org/2000/svg">
<g clip-path="url(#clip0)">
<path d="M64.6537 24.1534C71.6488 16.8632 73.2232 7.65412 72.9173 1.17249C69.9759 2.19714 67.2164 3.87851 64.8762 6.21874L6.23777 64.8529C-2.07926 73.1699 -2.07926 86.7813 6.23777 95.0984L20.4631 109.322C19.3465 101.494 20.1487 91.5902 25.6741 80.0216C28.7288 95.6824 35.4393 98.9916 44.5628 103.169C34.3526 67.8413 37.6961 51.3741 64.6537 24.1534Z" fill="white"/>
<path d="M153.762 64.8527L95.1238 6.21851C91.1877 2.28247 86.0687 0.211776 80.8834 0C88.1523 6.37039 94.9954 18.7432 96.1869 45.0634C102.074 32.2755 113.916 32.2755 113.916 32.2755C113.916 32.2755 104.748 48.317 123.405 73.1419C134.349 86.3298 136.029 101.558 135.079 113.781L153.762 95.0981C162.079 86.7811 162.079 73.1697 153.762 64.8527Z" fill="white"/>
<path d="M83.8591 43.5702C42.6697 79.3539 73.3301 114.252 80.2524 129.25C87.1747 144.247 69.6016 150.678 58.6684 147.355C63.9393 154.385 76.7314 165.906 92.0606 156.241C115.69 140.619 107.445 121.112 89.1321 91.9C70.3995 62.0182 83.8591 43.5702 83.8591 43.5702Z" fill="white"/>
</g>
<defs>
<clipPath id="clip0">
<rect width="160" height="159.942" fill="white"/>
</clipPath>
</defs>
</svg>
