<svg width="300" height="92" viewBox="0 0 300 92" fill="none" xmlns="http://www.w3.org/2000/svg">
<path d="M122.182 23.9966C122.659 22.9359 123.267 22.0337 125.146 22.0337C126.788 22.0337 127.528 22.6704 128.11 23.9966L134.33 38.0334H135.891V40.8199H114.376V38.0334H115.938L122.182 23.9966ZM119.509 38.0334H130.756L125.569 25.9866C125.491 25.8281 125.357 25.4028 125.146 25.4028C124.934 25.4028 124.749 25.8268 124.696 25.9866L119.509 38.0334Z" fill="white"/>
<path d="M153.6 23.9966C155.479 25.8539 155.69 29.0914 155.69 31.5325C155.69 33.5225 155.61 37.0784 153.6 39.0671C151.615 41.0313 148.308 41.0313 146.216 41.0313C144.019 41.0313 140.871 41.0313 138.832 39.0671C136.689 36.9973 136.689 33.6282 136.689 31.5325C136.689 29.0115 136.822 25.9067 138.832 23.9966C140.897 22.0337 143.967 22.0337 146.216 22.0337C148.36 22.0337 151.589 22.0337 153.6 23.9966ZM141.479 36.6531C142.564 38.0592 144.099 38.2448 146.19 38.2448C147.751 38.2448 149.736 38.192 150.927 36.6531C151.615 35.7779 152.092 34.2649 152.092 31.5325C152.092 28.746 151.642 27.287 150.927 26.3849C149.737 24.873 147.725 24.8189 146.19 24.8189C144.576 24.8189 142.698 24.8718 141.479 26.3849C140.739 27.3141 140.289 28.6932 140.289 31.5325C140.289 34.185 140.712 35.671 141.479 36.6531Z" fill="white"/>
<path d="M158.342 40.8187V25.0316C158.342 24.342 158.342 23.5996 158.977 22.9617C159.586 22.3508 160.432 22.2451 161.067 22.2451H169.879C170.859 22.2451 172.419 22.2451 173.558 23.3587C174.828 24.5793 174.96 26.6762 174.96 28.2409C174.96 29.7539 174.801 32.1409 173.346 33.3357C172.658 33.8937 171.599 34.2378 170.514 34.2378H161.834V40.8187H158.342ZM168.478 31.4526C169.245 31.4526 170.145 31.4526 170.753 30.7631C171.31 30.1264 171.362 28.9329 171.362 28.2163C171.362 27.394 171.283 26.2792 170.7 25.6695C170.091 25.0586 169.113 25.0328 168.53 25.0328H162.894C162.656 25.0328 162.338 25.007 162.074 25.2713C161.836 25.5109 161.836 25.8293 161.836 26.1476V31.4538H168.478V31.4526Z" fill="white"/>
<path d="M193.993 23.9966C195.871 25.8539 196.083 29.0914 196.083 31.5325C196.083 33.5225 196.003 37.0784 193.993 39.0671C192.008 41.0313 188.701 41.0313 186.609 41.0313C184.414 41.0313 181.264 41.0313 179.227 39.0671C177.084 36.9973 177.084 33.6282 177.084 31.5325C177.084 29.0115 177.216 25.9067 179.227 23.9966C181.291 22.0337 184.361 22.0337 186.609 22.0337C188.753 22.0337 191.981 22.0337 193.993 23.9966ZM181.873 36.6531C182.958 38.0592 184.492 38.2448 186.583 38.2448C188.145 38.2448 190.13 38.192 191.32 36.6531C192.008 35.7779 192.484 34.2649 192.484 31.5325C192.484 28.746 192.035 27.287 191.32 26.3849C190.13 24.873 188.118 24.8189 186.583 24.8189C184.969 24.8189 183.09 24.8718 181.873 26.3849C181.132 27.3141 180.682 28.6932 180.682 31.5325C180.681 34.185 181.105 35.671 181.873 36.6531Z" fill="white"/>
<path d="M198.735 40.8189V24.9261C198.735 24.2366 198.761 23.5728 199.369 22.9632C199.739 22.592 200.375 22.2466 201.195 22.2466H213.58V25.033H203.602C203.231 25.033 202.622 25.0072 202.386 25.2985C202.226 25.5112 202.226 25.9082 202.226 26.2536V40.8201H198.735V40.8189Z" fill="white"/>
<path d="M231.288 23.9966C233.167 25.8539 233.379 29.0914 233.379 31.5325C233.379 33.5225 233.3 37.0784 231.288 39.0671C229.304 41.0313 225.996 41.0313 223.906 41.0313C221.709 41.0313 218.56 41.0313 216.523 39.0671C214.379 36.9973 214.379 33.6282 214.379 31.5325C214.379 29.0115 214.511 25.9067 216.523 23.9966C218.586 22.0337 221.657 22.0337 223.906 22.0337C226.05 22.0337 229.278 22.0337 231.288 23.9966ZM219.169 36.6531C220.253 38.0592 221.788 38.2448 223.879 38.2448C225.44 38.2448 227.425 38.192 228.616 36.6531C229.304 35.7779 229.78 34.2649 229.78 31.5325C229.78 28.746 229.33 27.287 228.616 26.3849C227.425 24.873 225.415 24.8189 223.879 24.8189C222.264 24.8189 220.386 24.8718 219.169 26.3849C218.428 27.3141 217.978 28.6932 217.978 31.5325C217.977 34.185 218.401 35.671 219.169 36.6531Z" fill="white"/>
<path d="M251.618 25.0318H240.767C240.422 25.0318 240.026 25.0576 239.787 25.2445C239.523 25.4829 239.523 25.934 239.523 26.1737V30.0209H248.335C249.261 30.0209 250.664 30.1807 251.616 31.4012C252.304 32.3034 252.569 33.7096 252.569 35.434C252.569 37.8223 252.093 38.9899 251.562 39.5996C251.166 40.0507 250.214 40.8201 248.387 40.8201H238.384C237.431 40.8201 236.875 40.4747 236.531 40.0777C236.083 39.5467 236.029 38.8842 236.029 38.3533V24.9532C236.029 24.3165 236.108 23.52 236.665 22.9361C236.983 22.6178 237.565 22.2466 238.543 22.2466H251.616V25.0318H251.618ZM239.524 36.6533C239.524 37.4486 239.604 37.6084 239.656 37.6883C239.921 38.0595 240.583 38.0337 240.979 38.0337H246.59C247.225 38.0337 247.886 38.0337 248.415 37.5027C248.998 36.9188 248.971 35.8839 248.971 35.3271C248.971 34.6376 248.945 33.8411 248.389 33.3101C247.886 32.8332 247.172 32.8061 246.59 32.8061H239.524V36.6533Z" fill="white"/>
<path d="M258.236 40.8187L260.486 36.706L252.574 22.2451H256.437L262.286 33.4954L267.922 22.2451H271.734L262.022 40.8187H258.236Z" fill="white"/>
<path d="M278.221 32.9913C278.617 32.5942 279.201 31.9035 279.201 31.2397C279.201 30.6829 278.804 30.2577 278.433 29.8594L271.632 22.2437H275.866L281.688 29.1428C282.059 29.5939 282.642 30.3904 282.642 31.2655C282.642 31.5581 282.562 32.459 281.425 33.7324L275.127 40.8172H270.681L278.221 32.9913ZM283.593 22.2449H287.086V40.8184H283.593V22.2449ZM295.555 40.8184L289.256 33.7337C288.78 33.1769 288.039 32.3017 288.039 31.2668C288.039 30.3916 288.595 29.6222 288.992 29.1441L294.814 22.2449H299.049L292.248 29.8606C291.878 30.2589 291.481 30.6829 291.481 31.241C291.481 31.9047 292.063 32.5942 292.461 32.9925L300.002 40.8197H295.555V40.8184Z" fill="white"/>
<path d="M125.215 50.1453H128.707V68.7188H125.215V50.1453ZM138.527 68.7176L130.906 61.58C129.821 60.5708 129.636 59.6699 129.636 59.1918C129.636 58.8206 129.741 57.9983 130.641 57.0961L137.653 50.144H141.967L133.975 57.7598C133.366 58.3436 132.996 58.7947 132.996 59.1918C132.996 59.7756 133.658 60.4123 134.187 60.8904L142.947 68.7176H138.527Z" fill="white"/>
<path d="M159.066 51.8956C160.944 53.7528 161.157 56.9903 161.157 59.4314C161.157 61.4214 161.078 64.9773 159.066 66.9661C157.082 68.9302 153.774 68.9302 151.683 68.9302C149.486 68.9302 146.336 68.9302 144.299 66.9661C142.156 64.8962 142.156 61.5271 142.156 59.4314C142.156 56.9105 142.288 53.8056 144.299 51.8956C146.363 49.9326 149.433 49.9326 151.683 49.9326C153.825 49.9326 157.055 49.9326 159.066 51.8956ZM146.946 64.552C148.031 65.9582 149.565 66.1438 151.657 66.1438C153.219 66.1438 155.202 66.0909 156.394 64.552C157.082 63.6769 157.557 62.1638 157.557 59.4314C157.557 56.645 157.107 55.186 156.394 54.2838C155.202 52.7719 153.192 52.7178 151.657 52.7178C150.042 52.7178 148.164 52.7707 146.946 54.2838C146.205 55.213 145.755 56.5921 145.755 59.4314C145.754 62.0839 146.178 63.5699 146.946 64.552Z" fill="white"/>
<path d="M168.649 68.7176V52.9305H161.424V50.144H179.393V52.9305H172.142V68.7176H168.649Z" fill="white"/>
<path d="M184.981 51.6832C185.351 50.8338 185.854 49.9316 187.813 49.9316C189.771 49.9316 190.273 50.8338 190.644 51.6832L197.79 68.7178H194.085L188.236 53.8858C188.156 53.6473 188.077 53.3548 187.813 53.3548C187.521 53.3548 187.443 53.6731 187.363 53.8858L181.514 68.7178H177.808L184.981 51.6832Z" fill="white"/>
<path d="M214.969 51.8956C216.848 53.7528 217.06 56.9903 217.06 59.4314C217.06 61.4214 216.98 64.9773 214.969 66.9661C212.984 68.9302 209.676 68.9302 207.586 68.9302C205.389 68.9302 202.241 68.9302 200.203 66.9661C198.059 64.8962 198.059 61.5271 198.059 59.4314C198.059 56.9105 198.192 53.8056 200.203 51.8956C202.267 49.9326 205.338 49.9326 207.586 49.9326C209.729 49.9326 212.957 49.9326 214.969 51.8956ZM202.848 64.552C203.933 65.9582 205.468 66.1438 207.558 66.1438C209.12 66.1438 211.104 66.0909 212.295 64.552C212.983 63.6769 213.459 62.1638 213.459 59.4314C213.459 56.645 213.009 55.186 212.295 54.2838C211.104 52.7719 209.094 52.7178 207.558 52.7178C205.943 52.7178 204.065 52.7707 202.848 54.2838C202.107 55.213 201.657 56.5921 201.657 59.4314C201.657 62.0839 202.08 63.5699 202.848 64.552Z" fill="white"/>
<path d="M233.896 66.7018C233.259 68.3734 232.784 68.9302 231.249 68.9302C229.819 68.9302 229.264 68.4521 228.602 66.7018L223.866 54.3108C223.787 54.0982 223.574 53.7012 223.416 53.7012C223.125 53.7012 223.125 54.1781 223.125 54.258L223.204 68.7188H219.71V52.3737C219.71 49.9584 222.172 49.9326 222.702 49.9326C224.051 49.9326 225.162 50.251 225.956 52.3208L230.746 64.7118C230.906 65.1101 231.091 65.4014 231.249 65.4014C231.408 65.4014 231.593 65.1088 231.751 64.7118L236.541 52.3208C237.336 50.251 238.446 49.9326 239.796 49.9326C241.516 49.9326 242.787 50.675 242.787 52.3737V68.7188H239.293L239.4 54.258C239.4 53.754 239.187 53.7012 239.082 53.7012C238.897 53.7012 238.712 54.0982 238.633 54.3108L233.896 66.7018Z" fill="white"/>
<path d="M250.573 52.0283C251.235 50.4624 251.95 49.9326 253.617 49.9326C255.206 49.9326 255.999 50.4636 256.661 52.0283L263.648 68.7176H259.969L258.064 64.021H249.145L247.267 68.7176H243.588L250.573 52.0283ZM250.043 61.5271H257.162L254.145 53.9654C254.039 53.6999 253.854 53.196 253.616 53.196C253.378 53.196 253.193 53.6999 253.087 53.9654L250.043 61.5271Z" fill="white"/>
<path d="M278.418 50.1455V65.9326H284.452C284.716 65.9326 285.034 65.9326 285.246 65.6401C285.431 65.3746 285.405 65.0292 285.405 64.7649V50.1455H288.898V66.3579C288.898 66.7549 288.871 67.5514 288.316 68.1094C287.733 68.6933 286.834 68.7203 286.49 68.7203H266.853C266.298 68.7203 265.61 68.6404 265.055 68.1094C264.473 67.5526 264.446 66.9417 264.446 66.3579V50.1455H267.94V64.7649C267.94 65.0304 267.913 65.3758 268.099 65.6401C268.311 65.9326 268.627 65.9326 268.919 65.9326H274.926V50.1455H278.418Z" fill="white"/>
<path d="M37.0928 13.893C41.1065 9.70039 42.0088 4.40156 41.8347 0.674805C40.1466 1.26356 38.5639 2.2309 37.2216 3.57681L3.5797 37.3032C-1.19283 42.087 -1.19283 49.9167 3.5797 54.7005L11.7407 62.8816C11.1008 58.3793 11.5605 52.6822 14.7295 46.0277C16.4826 55.036 20.332 56.9387 25.5655 59.3417C19.708 39.0228 21.6266 29.551 37.0928 13.893Z" fill="white"/>
<path d="M88.2152 37.3032L54.5733 3.5768C52.3152 1.31272 49.3778 0.122914 46.4037 0C50.5731 3.66284 54.4998 10.7808 55.1826 25.9201C58.56 18.5637 65.3541 18.5637 65.3541 18.5637C65.3541 18.5637 60.0949 27.7921 70.7984 42.071C77.0764 49.6561 78.0388 58.4162 77.4945 65.4469L88.2127 54.7005C92.9865 49.9167 92.9865 42.0883 88.2152 37.3032Z" fill="white"/>
<path d="M48.1102 25.061C24.4805 45.6442 42.0701 65.7186 46.0409 74.3447C50.0129 82.9708 39.9308 86.6693 33.6578 84.7592C36.6821 88.8031 44.0205 95.4294 52.8153 89.87C66.3716 80.8837 61.6408 69.6641 51.1346 52.8605C40.3881 35.6722 48.1102 25.061 48.1102 25.061Z" fill="white"/>
<path d="M150.654 86.1943V79.3222C150.654 79.123 150.677 78.8907 150.876 78.6916C151.086 78.4814 151.328 78.4482 151.515 78.4482H156.184V78.9792H151.868C151.713 78.9792 151.428 78.9571 151.316 79.1021C151.25 79.1906 151.25 79.3566 151.25 79.5004V86.1943H150.654Z" fill="white"/>
<path d="M155.102 88.0752H154.528V81.0592C154.528 80.7495 154.716 80.5725 154.804 80.5073C155.026 80.3402 155.289 80.3291 155.455 80.3291H156.934C157.319 80.3291 158.104 80.3844 158.678 81.0039C159.274 81.6357 159.296 82.4752 159.296 83.1733C159.296 83.9157 159.253 84.679 158.832 85.3207C158.369 86.0163 157.707 86.1946 156.758 86.1946H155.102V88.0752ZM156.99 85.6746C157.519 85.6746 158.049 85.4645 158.347 85.0109C158.612 84.6004 158.678 84.0141 158.678 83.2508C158.678 82.4432 158.601 81.9995 158.468 81.7008C158.192 81.0813 157.585 80.849 157.056 80.849H155.368C155.311 80.849 155.235 80.8933 155.19 80.9265C155.113 80.9928 155.102 81.058 155.102 81.1367V85.6734H156.99V85.6746Z" fill="white"/>
<path d="M161.723 88.086H161.104L161.988 86.1611L159.515 80.3301H160.133L162.297 85.4765L164.604 80.3301H165.222L161.723 88.086Z" fill="white"/>
<path d="M169.58 80.3291C169.944 80.3291 170.11 80.484 170.174 80.5835C170.286 80.7495 170.297 80.9928 170.297 81.1809V86.1933H169.722V81.1809C169.722 81.0813 169.711 80.9486 169.667 80.9031C169.635 80.8712 169.525 80.8478 169.481 80.8478H166.478C166.434 80.8478 166.324 80.8712 166.291 80.9031C166.248 80.9474 166.236 81.0813 166.236 81.1809V86.1933H165.662V81.1809C165.662 80.9928 165.673 80.7482 165.783 80.5835C165.851 80.484 166.015 80.3291 166.379 80.3291H169.58Z" fill="white"/>
<path d="M175.316 80.3291C175.68 80.3291 175.846 80.484 175.911 80.5835C176.022 80.7495 176.033 80.9928 176.033 81.1809V86.1933H175.458V81.1809C175.458 81.0813 175.447 80.9486 175.403 80.9031C175.371 80.8712 175.261 80.8478 175.217 80.8478H172.214C172.17 80.8478 172.06 80.8712 172.027 80.9031C171.984 80.9474 171.972 81.0813 171.972 81.1809V86.1933H171.398V81.1809C171.398 80.9928 171.409 80.7482 171.519 80.5835C171.587 80.484 171.751 80.3291 172.115 80.3291H175.316Z" fill="white"/>
<path d="M180.225 80.3291C180.622 80.3291 181.019 80.484 181.252 80.7384C181.561 81.0715 181.605 81.557 181.605 81.911V85.419C181.605 85.5739 181.593 85.8504 181.406 86.0274C181.229 86.1933 180.942 86.1933 180.743 86.1933H178.492C178.16 86.1933 177.752 86.1823 177.433 85.9278C176.948 85.5296 176.915 84.7319 176.915 84.3779C176.915 83.9022 176.981 83.3491 177.4 82.9951C177.721 82.7296 178.161 82.6854 178.494 82.6854H181.031V81.8114C181.031 81.6246 180.954 81.2915 180.811 81.1158C180.688 80.972 180.469 80.849 180.193 80.849H177.356V80.3291H180.225ZM178.36 83.2065C178.018 83.2065 177.808 83.3725 177.721 83.4941C177.578 83.681 177.534 83.9907 177.534 84.4012C177.534 84.7552 177.566 85.1756 177.764 85.419C177.887 85.5628 178.096 85.6734 178.339 85.6734H180.701C180.768 85.6734 180.878 85.6734 180.955 85.6058C181.032 85.5394 181.032 85.4841 181.032 85.4067V83.2053H178.36V83.2065Z" fill="white"/>
<path d="M185.277 86.1943V80.3301H185.85V86.1943H185.277ZM188.963 86.1943L186.501 83.87C186.203 83.5934 186.126 83.3501 186.126 83.1731C186.126 82.8965 186.391 82.5868 186.579 82.4098L188.807 80.3301H189.591L186.987 82.7982C186.91 82.8756 186.744 83.0293 186.744 83.1743C186.744 83.2739 186.854 83.4287 186.922 83.4963L189.779 86.1955H188.963V86.1943Z" fill="white"/>
<path d="M190.728 80.9045C191.302 80.3404 192.152 80.2642 192.892 80.2642C193.633 80.2642 194.481 80.3416 195.056 80.9045C195.695 81.5363 195.784 82.5749 195.784 83.2288C195.784 84.5022 195.431 85.2213 195.056 85.5974C194.416 86.2292 193.411 86.2611 192.892 86.2611C192.374 86.2611 191.369 86.2292 190.728 85.5974C190.353 85.2213 190 84.5022 190 83.2288C190 82.5749 190.087 81.5363 190.728 80.9045ZM191.092 85.1758C191.556 85.6847 192.295 85.74 192.892 85.74C193.489 85.74 194.227 85.6847 194.692 85.1758C195.177 84.6436 195.166 83.7598 195.166 83.2829C195.166 82.7741 195.166 81.8448 194.703 81.3249C194.25 80.8271 193.445 80.7829 192.892 80.7829C192.339 80.7829 191.535 80.8271 191.081 81.3249C190.618 81.8448 190.618 82.7741 190.618 83.2829C190.618 83.7598 190.607 84.6448 191.092 85.1758Z" fill="white"/>
<path d="M200.384 85.8395C200.261 86.1382 200.018 86.2599 199.853 86.2599C199.687 86.2599 199.445 86.1382 199.323 85.8395L197.358 81.0705C197.346 81.0373 197.314 80.9709 197.281 80.9709C197.237 80.9709 197.237 81.0262 197.237 81.0484V86.1948H196.663V80.8726C196.663 80.4854 196.862 80.2642 197.215 80.2642C197.524 80.2642 197.667 80.3957 197.777 80.6624L199.732 85.3762C199.787 85.4978 199.82 85.5753 199.853 85.5753C199.886 85.5753 199.919 85.4978 199.975 85.3762L201.928 80.6624C202.039 80.3957 202.182 80.2642 202.491 80.2642C202.844 80.2642 203.043 80.4854 203.043 80.8726V86.1948H202.469V81.0484C202.469 81.0262 202.469 80.9709 202.425 80.9709C202.392 80.9709 202.359 81.0373 202.348 81.0705L200.384 85.8395Z" fill="white"/>
<path d="M208.062 80.3291C208.426 80.3291 208.591 80.484 208.656 80.5835C208.768 80.7495 208.779 80.9928 208.779 81.1809V86.1933H208.204V81.1809C208.204 81.0813 208.193 80.9486 208.149 80.9031C208.117 80.8712 208.007 80.8478 207.962 80.8478H204.96C204.916 80.8478 204.806 80.8712 204.773 80.9031C204.73 80.9474 204.717 81.0813 204.717 81.1809V86.1933H204.144V81.1809C204.144 80.9928 204.155 80.7482 204.265 80.5835C204.332 80.484 204.497 80.3291 204.861 80.3291H208.062Z" fill="white"/>
<path d="M212.972 80.3291C213.369 80.3291 213.766 80.484 213.999 80.7384C214.308 81.0715 214.352 81.557 214.352 81.911V85.419C214.352 85.5739 214.34 85.8504 214.153 86.0274C213.976 86.1933 213.689 86.1933 213.49 86.1933H211.239C210.907 86.1933 210.499 86.1823 210.18 85.9278C209.695 85.5296 209.661 84.7319 209.661 84.3779C209.661 83.9022 209.728 83.3491 210.147 82.9951C210.468 82.7296 210.908 82.6854 211.241 82.6854H213.778V81.8114C213.778 81.6246 213.701 81.2915 213.558 81.1158C213.435 80.972 213.215 80.849 212.94 80.849H210.103V80.3291H212.972ZM211.107 83.2065C210.765 83.2065 210.555 83.3725 210.468 83.4941C210.325 83.681 210.281 83.9907 210.281 84.4012C210.281 84.7552 210.312 85.1756 210.511 85.419C210.634 85.5628 210.843 85.6734 211.086 85.6734H213.448C213.515 85.6734 213.625 85.6734 213.702 85.6058C213.779 85.5394 213.779 85.4841 213.779 85.4067V83.2053H211.107V83.2065Z" fill="white"/>
<path d="M219.538 86.1943V83.4275H216.028V86.1943H215.454V80.3301H216.028V82.9088H219.538V80.3301H220.111V86.1943H219.538Z" fill="white"/>
<path d="M225.526 86.1948V81.0938C225.526 81.0275 225.538 80.9623 225.471 80.9623C225.46 80.9623 225.428 80.9734 225.35 81.0938L222.369 85.8408C222.182 86.1284 222.027 86.2611 221.739 86.2611C221.408 86.2611 221.21 86.0399 221.21 85.6527V80.3305H221.783V85.4315C221.783 85.4868 221.783 85.5753 221.851 85.5753C221.895 85.5753 221.928 85.5077 221.972 85.4315L224.986 80.6181C225.129 80.3858 225.328 80.2642 225.592 80.2642C226.089 80.2642 226.1 80.773 226.1 80.939V86.1948H225.526Z" fill="white"/>
<path d="M231.519 86.1947V81.0938C231.519 81.0274 231.531 80.9623 231.463 80.9623C231.452 80.9623 231.419 80.9733 231.342 81.0938L228.362 85.8407C228.174 86.1283 228.02 86.2611 227.732 86.2611C227.401 86.2611 227.202 86.0398 227.202 85.6526V80.3305H227.776V85.4314C227.776 85.4867 227.776 85.5752 227.843 85.5752C227.886 85.5752 227.92 85.5076 227.965 85.4314L230.978 80.6181C231.121 80.3858 231.32 80.2641 231.585 80.2641C232.081 80.2641 232.092 80.773 232.092 80.9389V86.1947H231.519ZM230.404 79.2562C230.516 79.1566 230.636 78.9575 230.691 78.7793H231.353C231.265 79.0669 231.077 79.432 230.812 79.6544C230.492 79.931 230.084 80.0084 229.687 80.0084C229.29 80.0084 228.882 79.931 228.562 79.6544C228.297 79.432 228.109 79.0669 228.021 78.7793H228.683C228.738 78.9575 228.861 79.1566 228.97 79.2562C229.113 79.3877 229.356 79.4775 229.687 79.4775C230.019 79.4775 230.262 79.3877 230.404 79.2562Z" fill="white"/>
<path d="M236.482 82.7739C236.427 82.8624 236.361 82.9619 236.361 83.0848C236.361 83.2065 236.427 83.3061 236.482 83.3946L237.85 85.3747L237.376 85.6955L235.929 83.5703C235.841 83.4388 235.764 83.3159 235.764 83.0836C235.764 82.8513 235.841 82.7296 235.929 82.5969L237.376 80.4717L237.85 80.7925L236.482 82.7739ZM238.159 82.7308C238.128 82.7739 237.983 82.9853 237.983 83.0848C237.983 83.1623 238.027 83.2508 238.159 83.4388L239.053 84.7221L238.59 85.0429L237.586 83.5716C237.486 83.4278 237.387 83.2286 237.387 83.0848C237.387 82.941 237.486 82.7419 237.586 82.5981L238.59 81.1268L239.053 81.4476L238.159 82.7308Z" fill="white"/>
<path d="M241.425 86.1943C241.16 86.1943 240.863 86.2053 240.62 85.962C240.389 85.7309 240.377 85.4089 240.377 85.1212V79.477C240.377 79.0235 240.544 78.8022 240.599 78.7359C240.82 78.4691 241.107 78.4482 241.404 78.4482H245.962V78.9792H241.493C241.371 78.9792 241.173 79.0235 241.097 79.0911C240.974 79.1906 240.974 79.4008 240.974 79.477V81.966H245.852V82.4983H240.974V85.2528C240.974 85.3646 241.007 85.4961 241.084 85.5637C241.173 85.6301 241.45 85.6633 241.581 85.6633H246.007V86.1943H241.425Z" fill="white"/>
<path d="M247.218 78.4482H247.814V86.1943H247.218V78.4482ZM252.792 86.1943L248.918 83.1964C248.521 82.8867 248.245 82.5204 248.245 82.2106C248.245 81.9009 248.543 81.5703 248.797 81.3699L252.416 78.4482H253.276L249.325 81.6563C249.182 81.7669 248.84 81.9894 248.84 82.2205C248.84 82.4638 249.172 82.7072 249.415 82.8965L253.685 86.1943H252.792Z" fill="white"/>
<path d="M256.63 86.1945C255.373 86.1945 254.665 85.6635 254.323 85.3206C253.661 84.6569 253.463 83.7375 253.463 82.4321C253.463 81.3812 253.54 80.1963 254.29 79.3876C254.556 79.111 255.294 78.4473 256.664 78.4473H259.622V78.9782H256.917C256.344 78.9782 255.317 79.0459 254.678 79.8743C254.148 80.5614 254.104 81.5791 254.104 82.442C254.104 83.2385 254.148 84.0792 254.611 84.7208C254.865 85.0748 255.472 85.6623 256.752 85.6623H259.742V86.1933H256.63V86.1945Z" fill="white"/>
<path d="M260.975 81.1266L261.98 82.5978C262.08 82.7416 262.179 82.9408 262.179 83.0846C262.179 83.2272 262.08 83.4263 261.98 83.5713L260.976 85.0426L260.513 84.7218L261.407 83.4386C261.538 83.2505 261.583 83.1608 261.583 83.0846C261.583 82.985 261.44 82.7736 261.407 82.7306L260.513 81.4461L260.975 81.1266ZM262.19 80.4727L263.637 82.5978C263.725 82.7306 263.802 82.8523 263.802 83.0846C263.802 83.3157 263.725 83.4386 263.637 83.5713L262.19 85.6965L261.716 85.3757L263.084 83.3956C263.139 83.3071 263.205 83.2075 263.205 83.0858C263.205 82.9629 263.139 82.8633 263.084 82.7748L261.716 80.7947L262.19 80.4727Z" fill="white"/>
</svg>
