<svg width="300" height="92" viewBox="0 0 300 92" fill="none" xmlns="http://www.w3.org/2000/svg">
<g clip-path="url(#clip0)">
<path d="M122.182 23.9965C122.659 22.9358 123.267 22.0336 125.146 22.0336C126.788 22.0336 127.528 22.6703 128.11 23.9965L134.33 38.0333H135.891V40.8198H114.376V38.0333H115.938L122.182 23.9965ZM119.509 38.0333H130.756L125.569 25.9865C125.491 25.828 125.357 25.4027 125.146 25.4027C124.934 25.4027 124.749 25.8267 124.696 25.9865L119.509 38.0333Z" fill="#E52713"/>
<path d="M153.6 23.9965C155.479 25.8538 155.69 29.0913 155.69 31.5324C155.69 33.5224 155.61 37.0783 153.6 39.067C151.615 41.0312 148.308 41.0312 146.216 41.0312C144.019 41.0312 140.871 41.0312 138.832 39.067C136.689 36.9972 136.689 33.6281 136.689 31.5324C136.689 29.0114 136.822 25.9066 138.832 23.9965C140.897 22.0336 143.967 22.0336 146.216 22.0336C148.36 22.0336 151.589 22.0336 153.6 23.9965ZM141.479 36.653C142.564 38.0591 144.099 38.2447 146.19 38.2447C147.751 38.2447 149.736 38.1919 150.927 36.653C151.615 35.7778 152.092 34.2648 152.092 31.5324C152.092 28.7459 151.642 27.2869 150.927 26.3848C149.737 24.8729 147.725 24.8188 146.19 24.8188C144.576 24.8188 142.698 24.8717 141.479 26.3848C140.739 27.314 140.289 28.6931 140.289 31.5324C140.289 34.1849 140.712 35.6709 141.479 36.653Z" fill="#E52713"/>
<path d="M158.342 40.8186V25.0315C158.342 24.3419 158.342 23.5995 158.977 22.9616C159.586 22.3507 160.432 22.245 161.067 22.245H169.879C170.859 22.245 172.419 22.245 173.558 23.3586C174.828 24.5792 174.96 26.6761 174.96 28.2408C174.96 29.7539 174.801 32.1409 173.346 33.3356C172.658 33.8936 171.599 34.2378 170.514 34.2378H161.834V40.8186H158.342ZM168.478 31.4525C169.245 31.4525 170.145 31.4525 170.753 30.763C171.31 30.1263 171.362 28.9328 171.362 28.2162C171.362 27.3939 171.283 26.2791 170.7 25.6694C170.091 25.0585 169.113 25.0327 168.53 25.0327H162.894C162.656 25.0327 162.338 25.0069 162.074 25.2712C161.836 25.5109 161.836 25.8292 161.836 26.1476V31.4538H168.478V31.4525Z" fill="#E52713"/>
<path d="M193.993 23.9965C195.871 25.8538 196.083 29.0913 196.083 31.5324C196.083 33.5224 196.003 37.0783 193.993 39.067C192.008 41.0312 188.701 41.0312 186.609 41.0312C184.414 41.0312 181.264 41.0312 179.227 39.067C177.084 36.9972 177.084 33.6281 177.084 31.5324C177.084 29.0114 177.216 25.9066 179.227 23.9965C181.291 22.0336 184.361 22.0336 186.609 22.0336C188.753 22.0336 191.981 22.0336 193.993 23.9965ZM181.873 36.653C182.958 38.0591 184.492 38.2447 186.583 38.2447C188.145 38.2447 190.13 38.1919 191.32 36.653C192.008 35.7778 192.484 34.2648 192.484 31.5324C192.484 28.7459 192.035 27.2869 191.32 26.3848C190.13 24.8729 188.118 24.8188 186.583 24.8188C184.969 24.8188 183.09 24.8717 181.873 26.3848C181.132 27.314 180.682 28.6931 180.682 31.5324C180.681 34.1849 181.105 35.6709 181.873 36.653Z" fill="#E52713"/>
<path d="M198.735 40.8186V24.9258C198.735 24.2362 198.761 23.5725 199.369 22.9628C199.739 22.5916 200.375 22.2463 201.195 22.2463H213.58V25.0327H203.602C203.231 25.0327 202.622 25.0069 202.386 25.2982C202.226 25.5109 202.226 25.9079 202.226 26.2533V40.8198H198.735V40.8186Z" fill="#E52713"/>
<path d="M231.288 23.9965C233.167 25.8538 233.379 29.0913 233.379 31.5324C233.379 33.5224 233.3 37.0783 231.288 39.067C229.304 41.0312 225.996 41.0312 223.906 41.0312C221.709 41.0312 218.56 41.0312 216.523 39.067C214.379 36.9972 214.379 33.6281 214.379 31.5324C214.379 29.0114 214.511 25.9066 216.523 23.9965C218.586 22.0336 221.657 22.0336 223.906 22.0336C226.05 22.0336 229.278 22.0336 231.288 23.9965ZM219.169 36.653C220.253 38.0591 221.788 38.2447 223.879 38.2447C225.44 38.2447 227.425 38.1919 228.616 36.653C229.304 35.7778 229.78 34.2648 229.78 31.5324C229.78 28.7459 229.33 27.2869 228.616 26.3848C227.425 24.8729 225.415 24.8188 223.879 24.8188C222.264 24.8188 220.386 24.8717 219.169 26.3848C218.428 27.314 217.978 28.6931 217.978 31.5324C217.977 34.1849 218.401 35.6709 219.169 36.653Z" fill="#E52713"/>
<path d="M251.618 25.0315H240.767C240.422 25.0315 240.026 25.0573 239.787 25.2441C239.523 25.4826 239.523 25.9337 239.523 26.1734V30.0206H248.335C249.261 30.0206 250.664 30.1804 251.616 31.4009C252.304 32.3031 252.569 33.7092 252.569 35.4337C252.569 37.8219 252.093 38.9896 251.562 39.5993C251.166 40.0504 250.214 40.8198 248.387 40.8198H238.384C237.431 40.8198 236.875 40.4744 236.531 40.0774C236.083 39.5464 236.029 38.8839 236.029 38.3529V24.9528C236.029 24.3161 236.108 23.5196 236.665 22.9358C236.983 22.6175 237.565 22.2463 238.543 22.2463H251.616V25.0315H251.618ZM239.524 36.653C239.524 37.4483 239.604 37.6081 239.656 37.688C239.921 38.0592 240.583 38.0333 240.979 38.0333H246.59C247.225 38.0333 247.886 38.0333 248.415 37.5024C248.998 36.9185 248.971 35.8836 248.971 35.3268C248.971 34.6372 248.945 33.8407 248.389 33.3098C247.886 32.8328 247.172 32.8058 246.59 32.8058H239.524V36.653Z" fill="#E52713"/>
<path d="M258.236 40.8186L260.486 36.7059L252.574 22.245H256.437L262.286 33.4954L267.922 22.245H271.734L262.022 40.8186H258.236Z" fill="#E52713"/>
<path d="M278.221 32.9914C278.617 32.5943 279.201 31.9036 279.201 31.2398C279.201 30.683 278.804 30.2578 278.433 29.8595L271.632 22.2438H275.866L281.688 29.1429C282.059 29.594 282.642 30.3905 282.642 31.2656C282.642 31.5582 282.562 32.4591 281.425 33.7325L275.127 40.8173H270.681L278.221 32.9914ZM283.593 22.245H287.086V40.8185H283.593V22.245ZM295.555 40.8185L289.256 33.7338C288.78 33.177 288.039 32.3018 288.039 31.2669C288.039 30.3917 288.595 29.6223 288.992 29.1442L294.814 22.245H299.049L292.248 29.8607C291.878 30.259 291.481 30.683 291.481 31.2411C291.481 31.9048 292.063 32.5943 292.461 32.9926L300.002 40.8198H295.555V40.8185Z" fill="#E52713"/>
<path d="M125.215 50.1453H128.707V68.7189H125.215V50.1453ZM138.527 68.7176L130.906 61.58C129.821 60.5709 129.636 59.6699 129.636 59.1918C129.636 58.8206 129.741 57.9983 130.641 57.0961L137.653 50.1441H141.967L133.975 57.7598C133.366 58.3437 132.996 58.7948 132.996 59.1918C132.996 59.7756 133.658 60.4123 134.187 60.8905L142.947 68.7176H138.527Z" fill="white"/>
<path d="M159.066 51.8956C160.944 53.7528 161.157 56.9904 161.157 59.4314C161.157 61.4214 161.078 64.9773 159.066 66.9661C157.082 68.9302 153.774 68.9302 151.683 68.9302C149.486 68.9302 146.336 68.9302 144.299 66.9661C142.156 64.8962 142.156 61.5271 142.156 59.4314C142.156 56.9105 142.288 53.8057 144.299 51.8956C146.363 49.9326 149.433 49.9326 151.683 49.9326C153.825 49.9326 157.055 49.9326 159.066 51.8956ZM146.946 64.552C148.031 65.9582 149.565 66.1438 151.657 66.1438C153.219 66.1438 155.202 66.0909 156.394 64.552C157.082 63.6769 157.557 62.1638 157.557 59.4314C157.557 56.645 157.107 55.186 156.394 54.2838C155.202 52.772 153.192 52.7179 151.657 52.7179C150.042 52.7179 148.164 52.7707 146.946 54.2838C146.205 55.213 145.755 56.5921 145.755 59.4314C145.754 62.0839 146.178 63.57 146.946 64.552Z" fill="white"/>
<path d="M168.649 68.7176V52.9305H161.424V50.1441H179.393V52.9305H172.142V68.7176H168.649Z" fill="white"/>
<path d="M184.981 51.6829C185.351 50.8336 185.854 49.9314 187.813 49.9314C189.771 49.9314 190.273 50.8336 190.644 51.6829L197.79 68.7176H194.085L188.236 53.8856C188.156 53.6471 188.077 53.3546 187.813 53.3546C187.521 53.3546 187.443 53.6729 187.363 53.8856L181.514 68.7176H177.808L184.981 51.6829Z" fill="white"/>
<path d="M214.969 51.8956C216.848 53.7528 217.06 56.9904 217.06 59.4314C217.06 61.4214 216.98 64.9773 214.969 66.9661C212.984 68.9302 209.676 68.9302 207.586 68.9302C205.389 68.9302 202.241 68.9302 200.203 66.9661C198.059 64.8962 198.059 61.5271 198.059 59.4314C198.059 56.9105 198.192 53.8057 200.203 51.8956C202.267 49.9326 205.338 49.9326 207.586 49.9326C209.729 49.9326 212.957 49.9326 214.969 51.8956ZM202.848 64.552C203.933 65.9582 205.468 66.1438 207.558 66.1438C209.12 66.1438 211.104 66.0909 212.295 64.552C212.983 63.6769 213.459 62.1638 213.459 59.4314C213.459 56.645 213.009 55.186 212.295 54.2838C211.104 52.772 209.094 52.7179 207.558 52.7179C205.943 52.7179 204.065 52.7707 202.848 54.2838C202.107 55.213 201.657 56.5921 201.657 59.4314C201.657 62.0839 202.08 63.57 202.848 64.552Z" fill="white"/>
<path d="M233.896 66.7018C233.259 68.3734 232.784 68.9302 231.249 68.9302C229.819 68.9302 229.264 68.4521 228.602 66.7018L223.866 54.3108C223.787 54.0982 223.574 53.7012 223.416 53.7012C223.125 53.7012 223.125 54.1781 223.125 54.258L223.204 68.7188H219.71V52.3737C219.71 49.9585 222.172 49.9326 222.702 49.9326C224.051 49.9326 225.162 50.251 225.956 52.3209L230.746 64.7118C230.906 65.1101 231.091 65.4014 231.249 65.4014C231.408 65.4014 231.593 65.1088 231.751 64.7118L236.541 52.3209C237.336 50.251 238.446 49.9326 239.796 49.9326C241.516 49.9326 242.787 50.675 242.787 52.3737V68.7188H239.293L239.4 54.258C239.4 53.754 239.187 53.7012 239.082 53.7012C238.897 53.7012 238.712 54.0982 238.633 54.3108L233.896 66.7018Z" fill="white"/>
<path d="M250.573 52.0283C251.235 50.4624 251.95 49.9326 253.617 49.9326C255.206 49.9326 255.999 50.4636 256.661 52.0283L263.648 68.7176H259.969L258.064 64.0211H249.145L247.267 68.7176H243.588L250.573 52.0283ZM250.043 61.5271H257.162L254.145 53.9655C254.039 53.7 253.854 53.196 253.616 53.196C253.378 53.196 253.193 53.7 253.087 53.9655L250.043 61.5271Z" fill="white"/>
<path d="M278.418 50.1453V65.9324H284.452C284.716 65.9324 285.034 65.9324 285.246 65.6399C285.431 65.3744 285.405 65.029 285.405 64.7647V50.1453H288.898V66.3577C288.898 66.7547 288.871 67.5512 288.316 68.1092C287.733 68.693 286.834 68.7201 286.49 68.7201H266.853C266.298 68.7201 265.61 68.6402 265.055 68.1092C264.473 67.5524 264.446 66.9415 264.446 66.3577V50.1453H267.94V64.7647C267.94 65.0302 267.913 65.3756 268.099 65.6399C268.311 65.9324 268.627 65.9324 268.919 65.9324H274.926V50.1453H278.418Z" fill="white"/>
<path d="M37.0928 13.893C41.1065 9.7004 42.0088 4.40157 41.8347 0.674816C40.1466 1.26357 38.5639 2.23091 37.2216 3.57682L3.5797 37.3032C-1.19283 42.087 -1.19283 49.9167 3.5797 54.7005L11.7407 62.8817C11.1008 58.3793 11.5605 52.6822 14.7295 46.0277C16.4826 55.036 20.332 56.9388 25.5655 59.3417C19.708 39.0228 21.6266 29.551 37.0928 13.893Z" fill="#E52713"/>
<path d="M88.2152 37.3032L54.5733 3.5768C52.3152 1.31272 49.3778 0.122914 46.4037 0C50.5731 3.66284 54.4998 10.7808 55.1826 25.9201C58.56 18.5637 65.3541 18.5637 65.3541 18.5637C65.3541 18.5637 60.0949 27.7921 70.7984 42.071C77.0764 49.6561 78.0388 58.4162 77.4945 65.4469L88.2127 54.7005C92.9865 49.9167 92.9865 42.0883 88.2152 37.3032Z" fill="#E52713"/>
<path d="M48.1102 25.0609C24.4805 45.6441 42.0701 65.7185 46.0409 74.3446C50.0129 82.9707 39.9308 86.6692 33.6578 84.7591C36.6821 88.803 44.0205 95.4293 52.8153 89.8699C66.3716 80.8836 61.6408 69.664 51.1346 52.8604C40.3881 35.6721 48.1102 25.0609 48.1102 25.0609Z" fill="#E52713"/>
<path d="M150.654 86.1945V79.3224C150.654 79.1233 150.677 78.891 150.876 78.6919C151.086 78.4817 151.328 78.4485 151.515 78.4485H156.184V78.9795H151.868C151.713 78.9795 151.428 78.9574 151.316 79.1024C151.25 79.1909 151.25 79.3568 151.25 79.5006V86.1945H150.654Z" fill="white"/>
<path d="M155.102 88.0754H154.528V81.0594C154.528 80.7497 154.716 80.5727 154.804 80.5075C155.026 80.3404 155.289 80.3293 155.455 80.3293H156.934C157.319 80.3293 158.104 80.3846 158.678 81.0041C159.274 81.6359 159.296 82.4754 159.296 83.1735C159.296 83.9159 159.253 84.6792 158.832 85.3209C158.369 86.0165 157.707 86.1948 156.758 86.1948H155.102V88.0754ZM156.99 85.6748C157.519 85.6748 158.049 85.4647 158.347 85.0111C158.612 84.6006 158.678 84.0143 158.678 83.251C158.678 82.4434 158.601 81.9997 158.468 81.701C158.192 81.0815 157.585 80.8492 157.056 80.8492H155.368C155.311 80.8492 155.235 80.8935 155.19 80.9267C155.113 80.993 155.102 81.0582 155.102 81.1369V85.6736H156.99V85.6748Z" fill="white"/>
<path d="M161.723 88.0864H161.104L161.988 86.1616L159.515 80.3305H160.133L162.297 85.4769L164.604 80.3305H165.222L161.723 88.0864Z" fill="white"/>
<path d="M169.58 80.3293C169.944 80.3293 170.11 80.4842 170.174 80.5837C170.286 80.7497 170.297 80.993 170.297 81.1811V86.1935H169.722V81.1811C169.722 81.0815 169.711 80.9488 169.667 80.9033C169.635 80.8714 169.525 80.848 169.481 80.848H166.478C166.434 80.848 166.324 80.8714 166.291 80.9033C166.248 80.9476 166.236 81.0815 166.236 81.1811V86.1935H165.662V81.1811C165.662 80.993 165.673 80.7484 165.783 80.5837C165.851 80.4842 166.015 80.3293 166.379 80.3293H169.58Z" fill="white"/>
<path d="M175.316 80.3293C175.68 80.3293 175.846 80.4842 175.911 80.5837C176.022 80.7497 176.033 80.993 176.033 81.1811V86.1935H175.458V81.1811C175.458 81.0815 175.447 80.9488 175.403 80.9033C175.371 80.8714 175.261 80.848 175.217 80.848H172.214C172.17 80.848 172.06 80.8714 172.027 80.9033C171.984 80.9476 171.972 81.0815 171.972 81.1811V86.1935H171.398V81.1811C171.398 80.993 171.409 80.7484 171.519 80.5837C171.587 80.4842 171.751 80.3293 172.115 80.3293H175.316Z" fill="white"/>
<path d="M180.225 80.3293C180.622 80.3293 181.019 80.4842 181.252 80.7386C181.561 81.0717 181.605 81.5572 181.605 81.9112V85.4192C181.605 85.5741 181.593 85.8506 181.406 86.0276C181.229 86.1935 180.942 86.1935 180.743 86.1935H178.492C178.16 86.1935 177.752 86.1825 177.433 85.928C176.948 85.5298 176.915 84.7321 176.915 84.3781C176.915 83.9024 176.981 83.3493 177.4 82.9953C177.721 82.7298 178.161 82.6856 178.494 82.6856H181.031V81.8116C181.031 81.6248 180.954 81.2917 180.811 81.116C180.688 80.9721 180.469 80.8492 180.193 80.8492H177.356V80.3293H180.225ZM178.36 83.2067C178.018 83.2067 177.808 83.3727 177.721 83.4943C177.578 83.6812 177.534 83.9909 177.534 84.4014C177.534 84.7554 177.566 85.1758 177.764 85.4192C177.887 85.563 178.096 85.6736 178.339 85.6736H180.701C180.768 85.6736 180.878 85.6736 180.955 85.606C181.032 85.5396 181.032 85.4843 181.032 85.4069V83.2055H178.36V83.2067Z" fill="white"/>
<path d="M185.277 86.1948V80.3305H185.85V86.1948H185.277ZM188.963 86.1948L186.501 83.8705C186.203 83.5939 186.126 83.3505 186.126 83.1735C186.126 82.897 186.391 82.5872 186.579 82.4102L188.807 80.3305H189.591L186.987 82.7986C186.91 82.8761 186.744 83.0297 186.744 83.1748C186.744 83.2743 186.854 83.4292 186.922 83.4968L189.779 86.196H188.963V86.1948Z" fill="white"/>
<path d="M190.728 80.9045C191.302 80.3404 192.152 80.2642 192.892 80.2642C193.633 80.2642 194.481 80.3416 195.056 80.9045C195.695 81.5363 195.784 82.5749 195.784 83.2289C195.784 84.5022 195.431 85.2213 195.056 85.5974C194.416 86.2292 193.411 86.2611 192.892 86.2611C192.374 86.2611 191.369 86.2292 190.728 85.5974C190.353 85.2213 190 84.5022 190 83.2289C190 82.5749 190.087 81.5363 190.728 80.9045ZM191.092 85.1758C191.556 85.6847 192.295 85.74 192.892 85.74C193.489 85.74 194.227 85.6847 194.692 85.1758C195.177 84.6436 195.166 83.7598 195.166 83.2829C195.166 82.7741 195.166 81.8448 194.703 81.3249C194.25 80.8271 193.445 80.7829 192.892 80.7829C192.339 80.7829 191.535 80.8271 191.081 81.3249C190.618 81.8448 190.618 82.7741 190.618 83.2829C190.618 83.7598 190.607 84.6448 191.092 85.1758Z" fill="white"/>
<path d="M200.384 85.8395C200.261 86.1382 200.018 86.2599 199.853 86.2599C199.687 86.2599 199.445 86.1382 199.323 85.8395L197.358 81.0705C197.346 81.0373 197.314 80.9709 197.281 80.9709C197.237 80.9709 197.237 81.0262 197.237 81.0484V86.1948H196.663V80.8726C196.663 80.4854 196.862 80.2642 197.215 80.2642C197.524 80.2642 197.667 80.3957 197.777 80.6624L199.732 85.3762C199.787 85.4978 199.82 85.5753 199.853 85.5753C199.886 85.5753 199.919 85.4978 199.975 85.3762L201.928 80.6624C202.039 80.3957 202.182 80.2642 202.491 80.2642C202.844 80.2642 203.043 80.4854 203.043 80.8726V86.1948H202.469V81.0484C202.469 81.0262 202.469 80.9709 202.425 80.9709C202.392 80.9709 202.359 81.0373 202.348 81.0705L200.384 85.8395Z" fill="white"/>
<path d="M208.062 80.3293C208.426 80.3293 208.591 80.4842 208.656 80.5837C208.768 80.7497 208.779 80.993 208.779 81.1811V86.1935H208.204V81.1811C208.204 81.0815 208.193 80.9488 208.149 80.9033C208.117 80.8714 208.007 80.848 207.962 80.848H204.96C204.916 80.848 204.806 80.8714 204.773 80.9033C204.73 80.9476 204.717 81.0815 204.717 81.1811V86.1935H204.144V81.1811C204.144 80.993 204.155 80.7484 204.265 80.5837C204.332 80.4842 204.497 80.3293 204.861 80.3293H208.062Z" fill="white"/>
<path d="M212.972 80.3293C213.369 80.3293 213.766 80.4842 213.999 80.7386C214.308 81.0717 214.352 81.5572 214.352 81.9112V85.4192C214.352 85.5741 214.34 85.8506 214.153 86.0276C213.976 86.1935 213.689 86.1935 213.49 86.1935H211.239C210.907 86.1935 210.499 86.1825 210.18 85.928C209.695 85.5298 209.661 84.7321 209.661 84.3781C209.661 83.9024 209.728 83.3493 210.147 82.9953C210.468 82.7298 210.908 82.6856 211.241 82.6856H213.778V81.8116C213.778 81.6248 213.701 81.2917 213.558 81.116C213.435 80.9721 213.215 80.8492 212.94 80.8492H210.103V80.3293H212.972ZM211.107 83.2067C210.765 83.2067 210.555 83.3727 210.468 83.4943C210.325 83.6812 210.281 83.9909 210.281 84.4014C210.281 84.7554 210.312 85.1758 210.511 85.4192C210.634 85.563 210.843 85.6736 211.086 85.6736H213.448C213.515 85.6736 213.625 85.6736 213.702 85.606C213.779 85.5396 213.779 85.4843 213.779 85.4069V83.2055H211.107V83.2067Z" fill="white"/>
<path d="M219.538 86.1948V83.428H216.028V86.1948H215.454V80.3305H216.028V82.9093H219.538V80.3305H220.111V86.1948H219.538Z" fill="white"/>
<path d="M225.526 86.1948V81.0938C225.526 81.0275 225.538 80.9623 225.471 80.9623C225.46 80.9623 225.428 80.9734 225.35 81.0938L222.369 85.8408C222.182 86.1284 222.027 86.2611 221.739 86.2611C221.408 86.2611 221.21 86.0399 221.21 85.6527V80.3305H221.783V85.4315C221.783 85.4868 221.783 85.5753 221.851 85.5753C221.895 85.5753 221.928 85.5077 221.972 85.4315L224.986 80.6182C225.129 80.3858 225.328 80.2642 225.592 80.2642C226.089 80.2642 226.1 80.773 226.1 80.939V86.1948H225.526Z" fill="white"/>
<path d="M231.519 86.1948V81.0938C231.519 81.0275 231.531 80.9623 231.463 80.9623C231.452 80.9623 231.419 80.9734 231.342 81.0938L228.362 85.8408C228.174 86.1284 228.02 86.2611 227.732 86.2611C227.401 86.2611 227.202 86.0399 227.202 85.6527V80.3305H227.776V85.4315C227.776 85.4868 227.776 85.5753 227.843 85.5753C227.886 85.5753 227.92 85.5077 227.965 85.4315L230.978 80.6182C231.121 80.3858 231.32 80.2642 231.585 80.2642C232.081 80.2642 232.092 80.773 232.092 80.939V86.1948H231.519ZM230.404 79.2563C230.516 79.1567 230.636 78.9576 230.691 78.7794H231.353C231.265 79.067 231.077 79.432 230.812 79.6545C230.492 79.9311 230.084 80.0085 229.687 80.0085C229.29 80.0085 228.882 79.9311 228.562 79.6545C228.297 79.432 228.109 79.067 228.021 78.7794H228.683C228.738 78.9576 228.861 79.1567 228.97 79.2563C229.113 79.3878 229.356 79.4775 229.687 79.4775C230.019 79.4775 230.262 79.3878 230.404 79.2563Z" fill="white"/>
<path d="M236.482 82.7741C236.427 82.8626 236.361 82.9621 236.361 83.085C236.361 83.2067 236.427 83.3063 236.482 83.3948L237.85 85.3749L237.376 85.6957L235.929 83.5705C235.841 83.439 235.764 83.3161 235.764 83.0838C235.764 82.8515 235.841 82.7298 235.929 82.5971L237.376 80.4719L237.85 80.7927L236.482 82.7741ZM238.159 82.731C238.128 82.7741 237.983 82.9855 237.983 83.085C237.983 83.1625 238.027 83.251 238.159 83.439L239.053 84.7223L238.59 85.0431L237.586 83.5718C237.486 83.428 237.387 83.2288 237.387 83.085C237.387 82.9412 237.486 82.7421 237.586 82.5983L238.59 81.127L239.053 81.4478L238.159 82.731Z" fill="white"/>
<path d="M241.425 86.1948C241.16 86.1948 240.863 86.2058 240.62 85.9625C240.389 85.7314 240.377 85.4093 240.377 85.1217V79.4775C240.377 79.024 240.544 78.8027 240.599 78.7363C240.82 78.4696 241.107 78.4487 241.404 78.4487H245.962V78.9797H241.493C241.371 78.9797 241.173 79.024 241.097 79.0916C240.974 79.1911 240.974 79.4013 240.974 79.4775V81.9665H245.852V82.4987H240.974V85.2532C240.974 85.3651 241.007 85.4966 241.084 85.5642C241.173 85.6306 241.45 85.6638 241.581 85.6638H246.007V86.1948H241.425Z" fill="white"/>
<path d="M247.218 78.4487H247.814V86.1948H247.218V78.4487ZM252.792 86.1948L248.918 83.1969C248.521 82.8871 248.245 82.5209 248.245 82.2111C248.245 81.9014 248.543 81.5707 248.797 81.3704L252.416 78.4487H253.276L249.325 81.6568C249.182 81.7674 248.84 81.9899 248.84 82.2209C248.84 82.4643 249.172 82.7077 249.415 82.897L253.685 86.1948H252.792Z" fill="white"/>
<path d="M256.63 86.1948C255.373 86.1948 254.665 85.6638 254.323 85.3208C253.661 84.6571 253.463 83.7377 253.463 82.4324C253.463 81.3815 253.54 80.1966 254.29 79.3878C254.556 79.1112 255.294 78.4475 256.664 78.4475H259.622V78.9785H256.917C256.344 78.9785 255.317 79.0461 254.678 79.8745C254.148 80.5616 254.104 81.5793 254.104 82.4422C254.104 83.2387 254.148 84.0794 254.611 84.721C254.865 85.075 255.472 85.6625 256.752 85.6625H259.742V86.1935H256.63V86.1948Z" fill="white"/>
<path d="M260.975 81.127L261.98 82.5983C262.08 82.7421 262.179 82.9412 262.179 83.085C262.179 83.2276 262.08 83.4267 261.98 83.5718L260.976 85.0431L260.513 84.7222L261.407 83.439C261.538 83.251 261.583 83.1612 261.583 83.085C261.583 82.9855 261.44 82.7741 261.407 82.731L260.513 81.4466L260.975 81.127ZM262.19 80.4731L263.637 82.5983C263.725 82.731 263.802 82.8527 263.802 83.085C263.802 83.3161 263.725 83.439 263.637 83.5718L262.19 85.697L261.716 85.3761L263.084 83.396C263.139 83.3075 263.205 83.2079 263.205 83.0863C263.205 82.9633 263.139 82.8638 263.084 82.7753L261.716 80.7951L262.19 80.4731Z" fill="white"/>
</g>
<defs>
<clipPath id="clip0">
<rect width="300" height="92" fill="white"/>
</clipPath>
</defs>
</svg>
