<svg width="300" height="91" viewBox="0 0 300 91" fill="none" xmlns="http://www.w3.org/2000/svg">
<path d="M122.182 23.7355C122.659 22.6863 123.267 21.7939 125.146 21.7939C126.788 21.7939 127.528 22.4237 128.111 23.7355L134.33 37.6198H135.891V40.3759H114.376V37.6198H115.938L122.182 23.7355ZM119.509 37.6198H130.756L125.569 25.7039C125.491 25.5471 125.357 25.1264 125.146 25.1264C124.934 25.1264 124.749 25.5458 124.696 25.7039L119.509 37.6198Z" fill="#0062A7"/>
<path d="M153.6 23.7355C155.479 25.5726 155.69 28.775 155.69 31.1895C155.69 33.1579 155.61 36.6751 153.6 38.6422C151.615 40.5851 148.308 40.5851 146.216 40.5851C144.019 40.5851 140.871 40.5851 138.832 38.6422C136.689 36.5949 136.689 33.2624 136.689 31.1895C136.689 28.6959 136.822 25.6249 138.832 23.7355C140.897 21.7939 143.967 21.7939 146.216 21.7939C148.36 21.7939 151.589 21.7939 153.6 23.7355ZM141.479 36.2544C142.564 37.6453 144.099 37.8289 146.19 37.8289C147.751 37.8289 149.736 37.7766 150.927 36.2544C151.615 35.3888 152.092 33.8922 152.092 31.1895C152.092 28.4333 151.642 26.9902 150.927 26.0978C149.737 24.6024 147.725 24.5489 146.19 24.5489C144.576 24.5489 142.698 24.6012 141.479 26.0978C140.739 27.0169 140.289 28.381 140.289 31.1895C140.289 33.8132 140.712 35.283 141.479 36.2544Z" fill="#0062A7"/>
<path d="M158.342 40.3746V24.7591C158.342 24.0771 158.342 23.3427 158.977 22.7117C159.586 22.1075 160.432 22.0029 161.067 22.0029H169.879C170.859 22.0029 172.419 22.0029 173.558 23.1044C174.828 24.3117 174.96 26.3858 174.96 27.9335C174.96 29.4301 174.801 31.7912 173.346 32.9729C172.658 33.5249 171.599 33.8653 170.514 33.8653H161.834V40.3746H158.342ZM168.478 31.1103C169.245 31.1103 170.145 31.1103 170.753 30.4283C171.31 29.7985 171.362 28.618 171.362 27.9092C171.362 27.0958 171.283 25.9931 170.7 25.3901C170.091 24.7859 169.113 24.7603 168.53 24.7603H162.894C162.656 24.7603 162.338 24.7348 162.074 24.9962C161.836 25.2333 161.836 25.5481 161.836 25.863V31.1116H168.478V31.1103Z" fill="#0062A7"/>
<path d="M193.993 23.7355C195.871 25.5726 196.083 28.775 196.083 31.1895C196.083 33.1579 196.003 36.6751 193.993 38.6422C192.008 40.5851 188.701 40.5851 186.609 40.5851C184.414 40.5851 181.264 40.5851 179.227 38.6422C177.084 36.5949 177.084 33.2624 177.084 31.1895C177.084 28.6959 177.216 25.6249 179.227 23.7355C181.291 21.7939 184.361 21.7939 186.609 21.7939C188.753 21.7939 191.981 21.7939 193.993 23.7355ZM181.873 36.2544C182.958 37.6453 184.492 37.8289 186.583 37.8289C188.145 37.8289 190.13 37.7766 191.32 36.2544C192.008 35.3888 192.484 33.8922 192.484 31.1895C192.484 28.4333 192.035 26.9902 191.32 26.0978C190.13 24.6024 188.118 24.5489 186.583 24.5489C184.969 24.5489 183.09 24.6012 181.873 26.0978C181.132 27.0169 180.682 28.381 180.682 31.1895C180.681 33.8132 181.105 35.283 181.873 36.2544Z" fill="#0062A7"/>
<path d="M198.735 40.3748V24.6548C198.735 23.9727 198.761 23.3162 199.369 22.7132C199.739 22.346 200.375 22.0044 201.195 22.0044H213.58V24.7606H203.602C203.232 24.7606 202.622 24.735 202.386 25.0232C202.226 25.2335 202.226 25.6262 202.226 25.9678V40.3761H198.735V40.3748Z" fill="#0062A7"/>
<path d="M231.288 23.7355C233.167 25.5726 233.379 28.775 233.379 31.1895C233.379 33.1579 233.3 36.6751 231.288 38.6422C229.305 40.5851 225.996 40.5851 223.906 40.5851C221.709 40.5851 218.561 40.5851 216.523 38.6422C214.379 36.5949 214.379 33.2624 214.379 31.1895C214.379 28.6959 214.511 25.6249 216.523 23.7355C218.586 21.7939 221.657 21.7939 223.906 21.7939C226.05 21.7939 229.278 21.7939 231.288 23.7355ZM219.169 36.2544C220.254 37.6453 221.788 37.8289 223.879 37.8289C225.44 37.8289 227.425 37.7766 228.616 36.2544C229.305 35.3888 229.78 33.8922 229.78 31.1895C229.78 28.4333 229.33 26.9902 228.616 26.0978C227.425 24.6024 225.415 24.5489 223.879 24.5489C222.264 24.5489 220.386 24.6012 219.169 26.0978C218.428 27.0169 217.978 28.381 217.978 31.1895C217.977 33.8132 218.401 35.283 219.169 36.2544Z" fill="#0062A7"/>
<path d="M251.618 24.7594H240.767C240.423 24.7594 240.027 24.7849 239.787 24.9697C239.523 25.2055 239.523 25.6517 239.523 25.8888V29.6942H248.335C249.261 29.6942 250.664 29.8523 251.616 31.0595C252.304 31.9519 252.569 33.3428 252.569 35.0485C252.569 37.4108 252.093 38.5658 251.562 39.1688C251.167 39.615 250.214 40.3761 248.387 40.3761H238.384C237.431 40.3761 236.875 40.0344 236.531 39.6417C236.083 39.1165 236.029 38.4612 236.029 37.936V24.6815C236.029 24.0518 236.108 23.2639 236.665 22.6864C236.983 22.3716 237.565 22.0044 238.543 22.0044H251.616V24.7594H251.618ZM239.524 36.2546C239.524 37.0412 239.604 37.1992 239.656 37.2783C239.921 37.6454 240.583 37.6199 240.979 37.6199H246.59C247.225 37.6199 247.886 37.6199 248.416 37.0947C248.998 36.5172 248.971 35.4935 248.971 34.9427C248.971 34.2607 248.945 33.4729 248.389 32.9476C247.886 32.4759 247.172 32.4492 246.59 32.4492H239.524V36.2546Z" fill="#0062A7"/>
<path d="M258.236 40.3746L260.486 36.3066L252.574 22.0029H256.437L262.286 33.131L267.922 22.0029H271.734L262.022 40.3746H258.236Z" fill="#0062A7"/>
<path d="M278.221 32.6327C278.617 32.24 279.201 31.5568 279.201 30.9003C279.201 30.3495 278.804 29.9288 278.433 29.5349L271.632 22.002H275.866L281.688 28.8261C282.058 29.2723 282.642 30.0602 282.642 30.9258C282.642 31.2151 282.562 32.1063 281.425 33.3659L275.127 40.3736H270.681L278.221 32.6327ZM283.593 22.0032H287.086V40.3748H283.593V22.0032ZM295.555 40.3748L289.256 33.3671C288.78 32.8163 288.039 31.9507 288.039 30.927C288.039 30.0614 288.595 29.3003 288.992 28.8273L294.814 22.0032H299.049L292.248 29.5361C291.878 29.9301 291.481 30.3495 291.481 30.9015C291.481 31.558 292.063 32.24 292.46 32.634L300.002 40.3761H295.555V40.3748Z" fill="#0062A7"/>
<path d="M125.215 49.5998H128.708V67.9715H125.215V49.5998ZM138.527 67.9703L130.906 60.9103C129.821 59.9121 129.636 59.0209 129.636 58.548C129.636 58.1808 129.741 57.3675 130.641 56.4751L137.653 49.5986H141.967L133.975 57.1316C133.366 57.7091 132.996 58.1553 132.996 58.548C132.996 59.1255 133.658 59.7553 134.187 60.2282L142.947 67.9703H138.527Z" fill="#E52713"/>
<path d="M159.066 51.3313C160.945 53.1683 161.157 56.3707 161.157 58.7852C161.157 60.7536 161.078 64.2708 159.066 66.2379C157.082 68.1808 153.774 68.1808 151.683 68.1808C149.486 68.1808 146.336 68.1808 144.299 66.2379C142.156 64.1906 142.156 60.8581 142.156 58.7852C142.156 56.2916 142.288 53.2206 144.299 51.3313C146.363 49.3896 149.433 49.3896 151.683 49.3896C153.826 49.3896 157.055 49.3896 159.066 51.3313ZM146.946 63.8501C148.031 65.241 149.566 65.4246 151.657 65.4246C153.219 65.4246 155.202 65.3723 156.394 63.8501C157.082 62.9845 157.557 61.4879 157.557 58.7852C157.557 56.029 157.107 54.5859 156.394 53.6935C155.202 52.1981 153.192 52.1446 151.657 52.1446C150.042 52.1446 148.164 52.1969 146.946 53.6935C146.205 54.6126 145.755 55.9767 145.755 58.7852C145.754 61.4089 146.178 62.8787 146.946 63.8501Z" fill="#E52713"/>
<path d="M168.649 67.9703V52.3548H161.424V49.5986H179.393V52.3548H172.142V67.9703H168.649Z" fill="#E52713"/>
<path d="M184.981 51.1212C185.351 50.2811 185.854 49.3887 187.813 49.3887C189.771 49.3887 190.274 50.2811 190.644 51.1212L197.79 67.9707H194.085L188.236 53.2998C188.156 53.064 188.077 52.7746 187.813 52.7746C187.521 52.7746 187.443 53.0895 187.363 53.2998L181.514 67.9707H177.808L184.981 51.1212Z" fill="#E52713"/>
<path d="M214.968 51.3313C216.848 53.1683 217.06 56.3707 217.06 58.7852C217.06 60.7536 216.98 64.2708 214.968 66.2379C212.984 68.1808 209.676 68.1808 207.586 68.1808C205.389 68.1808 202.241 68.1808 200.203 66.2379C198.059 64.1906 198.059 60.8581 198.059 58.7852C198.059 56.2916 198.192 53.2206 200.203 51.3313C202.267 49.3896 205.338 49.3896 207.586 49.3896C209.729 49.3896 212.957 49.3896 214.968 51.3313ZM202.848 63.8501C203.933 65.241 205.468 65.4246 207.558 65.4246C209.12 65.4246 211.104 65.3723 212.295 63.8501C212.982 62.9845 213.459 61.4879 213.459 58.7852C213.459 56.029 213.009 54.5859 212.295 53.6935C211.104 52.1981 209.094 52.1446 207.558 52.1446C205.943 52.1446 204.065 52.1969 202.848 53.6935C202.107 54.6126 201.657 55.9767 201.657 58.7852C201.657 61.4089 202.08 62.8787 202.848 63.8501Z" fill="#E52713"/>
<path d="M233.896 65.9765C233.259 67.63 232.784 68.1808 231.249 68.1808C229.819 68.1808 229.264 67.7078 228.602 65.9765L223.866 53.7203C223.787 53.5099 223.575 53.1172 223.416 53.1172C223.125 53.1172 223.125 53.589 223.125 53.668L223.204 67.9716H219.71V51.8042C219.71 49.4152 222.172 49.3896 222.702 49.3896C224.051 49.3896 225.162 49.7045 225.957 51.7519L230.746 64.0082C230.906 64.4021 231.091 64.6902 231.249 64.6902C231.408 64.6902 231.593 64.4009 231.752 64.0082L236.541 51.7519C237.336 49.7045 238.446 49.3896 239.796 49.3896C241.516 49.3896 242.787 50.124 242.787 51.8042V67.9716H239.293L239.4 53.668C239.4 53.1695 239.187 53.1172 239.083 53.1172C238.897 53.1172 238.712 53.5099 238.633 53.7203L233.896 65.9765Z" fill="#E52713"/>
<path d="M250.573 51.4626C251.235 49.9136 251.95 49.3896 253.617 49.3896C255.206 49.3896 255.999 49.9149 256.661 51.4626L263.648 67.9704H259.969L258.064 63.3249H249.145L247.267 67.9704H243.588L250.573 51.4626ZM250.044 60.8581H257.163L254.146 53.3786C254.039 53.116 253.854 52.6175 253.616 52.6175C253.378 52.6175 253.193 53.116 253.088 53.3786L250.044 60.8581Z" fill="#E52713"/>
<path d="M278.418 49.6001V65.2156H284.452C284.716 65.2156 285.034 65.2156 285.246 64.9262C285.431 64.6636 285.405 64.322 285.405 64.0606V49.6001H288.898V65.6363C288.898 66.029 288.871 66.8168 288.316 67.3687C287.733 67.9462 286.834 67.973 286.49 67.973H266.854C266.298 67.973 265.61 67.894 265.055 67.3687C264.473 66.818 264.446 66.2138 264.446 65.6363V49.6001H267.94V64.0606C267.94 64.3232 267.913 64.6648 268.099 64.9262C268.311 65.2156 268.627 65.2156 268.919 65.2156H274.926V49.6001H278.418Z" fill="#E52713"/>
<path d="M37.0928 13.742C41.1065 9.59496 42.0087 4.35373 41.8347 0.66748C40.1466 1.24984 38.5639 2.20666 37.2215 3.53794L3.57964 36.8978C-1.19289 41.6296 -1.19289 49.3741 3.57964 54.1059L11.7406 62.1982C11.1007 57.7448 11.5604 52.1096 14.7294 45.5274C16.4825 54.4378 20.3319 56.3199 25.5654 58.6967C19.7079 38.5986 21.6265 29.2298 37.0928 13.742Z" fill="#E52713"/>
<path d="M88.2152 36.8977L54.5734 3.53792C52.3152 1.29845 49.3779 0.121578 46.4038 0C50.5732 3.62303 54.4998 10.6636 55.1827 25.6384C58.5601 18.3619 65.3542 18.3619 65.3542 18.3619C65.3542 18.3619 60.0949 27.49 70.7985 41.6138C77.0765 49.1163 78.0388 57.7812 77.4945 64.7355L88.2128 54.1059C92.9865 49.3741 92.9865 41.6308 88.2152 36.8977Z" fill="#E52713"/>
<path d="M48.1102 24.7886C24.4804 45.148 42.07 65.0042 46.0408 73.5365C50.0128 82.0689 39.9308 85.7272 33.6577 83.8378C36.6821 87.8378 44.0205 94.392 52.8153 88.8931C66.3715 80.0045 61.6407 68.9068 51.1345 52.2859C40.388 35.2844 48.1102 24.7886 48.1102 24.7886Z" fill="#E52713"/>
<path d="M150.654 85.2576V78.4601C150.654 78.2632 150.677 78.0334 150.876 77.8364C151.086 77.6285 151.328 77.5957 151.515 77.5957H156.184V78.1209H151.868C151.713 78.1209 151.428 78.099 151.316 78.2425C151.25 78.33 151.25 78.4942 151.25 78.6364V85.2576H150.654Z" fill="#0062A7"/>
<path d="M155.102 87.1179H154.528V80.1782C154.528 79.8719 154.716 79.6968 154.804 79.6323C155.026 79.467 155.289 79.4561 155.455 79.4561H156.935C157.32 79.4561 158.104 79.5108 158.678 80.1235C159.274 80.7484 159.296 81.5788 159.296 82.2694C159.296 83.0037 159.253 83.7587 158.832 84.3933C158.369 85.0815 157.707 85.2578 156.758 85.2578H155.102V87.1179ZM156.99 84.7435C157.519 84.7435 158.049 84.5356 158.347 84.087C158.612 83.6809 158.678 83.101 158.678 82.346C158.678 81.5472 158.601 81.1083 158.468 80.8129C158.192 80.2001 157.586 79.9703 157.056 79.9703H155.368C155.311 79.9703 155.235 80.0141 155.19 80.0469C155.113 80.1126 155.102 80.177 155.102 80.2548V84.7423H156.99V84.7435Z" fill="#0062A7"/>
<path d="M161.723 87.1291H161.104L161.988 85.2252L159.515 79.4575H160.133L162.297 84.548L164.604 79.4575H165.222L161.723 87.1291Z" fill="#0062A7"/>
<path d="M169.58 79.4561C169.944 79.4561 170.11 79.6092 170.174 79.7077C170.286 79.8719 170.297 80.1126 170.297 80.2986V85.2565H169.722V80.2986C169.722 80.2001 169.711 80.0688 169.667 80.0238C169.635 79.9922 169.525 79.9691 169.481 79.9691H166.478C166.434 79.9691 166.324 79.9922 166.291 80.0238C166.248 80.0676 166.236 80.2001 166.236 80.2986V85.2565H165.662V80.2986C165.662 80.1126 165.673 79.8706 165.783 79.7077C165.851 79.6092 166.015 79.4561 166.379 79.4561H169.58Z" fill="#0062A7"/>
<path d="M175.316 79.4561C175.68 79.4561 175.846 79.6092 175.911 79.7077C176.022 79.8719 176.033 80.1126 176.033 80.2986V85.2565H175.458V80.2986C175.458 80.2001 175.447 80.0688 175.403 80.0238C175.371 79.9922 175.261 79.9691 175.217 79.9691H172.214C172.17 79.9691 172.06 79.9922 172.027 80.0238C171.984 80.0676 171.972 80.2001 171.972 80.2986V85.2565H171.398V80.2986C171.398 80.1126 171.409 79.8706 171.519 79.7077C171.587 79.6092 171.751 79.4561 172.115 79.4561H175.316Z" fill="#0062A7"/>
<path d="M180.225 79.4561C180.622 79.4561 181.019 79.6092 181.252 79.8609C181.561 80.1904 181.605 80.6706 181.605 81.0208V84.4906C181.605 84.6438 181.593 84.9173 181.406 85.0924C181.229 85.2565 180.942 85.2565 180.743 85.2565H178.492C178.16 85.2565 177.752 85.2456 177.433 84.9939C176.948 84.6 176.915 83.811 176.915 83.4608C176.915 82.9903 176.981 82.4432 177.4 82.0931C177.721 81.8305 178.161 81.7867 178.494 81.7867H181.031V80.9223C181.031 80.7375 180.954 80.408 180.811 80.2342C180.688 80.0919 180.469 79.9703 180.193 79.9703H177.356V79.4561H180.225ZM178.36 82.3022C178.018 82.3022 177.808 82.4663 177.721 82.5867C177.578 82.7715 177.534 83.0779 177.534 83.4839C177.534 83.8341 177.566 84.2499 177.764 84.4906C177.887 84.6328 178.096 84.7423 178.339 84.7423H180.701C180.768 84.7423 180.878 84.7423 180.955 84.6754C181.032 84.6097 181.032 84.555 181.032 84.4784V82.301H178.36V82.3022Z" fill="#0062A7"/>
<path d="M185.277 85.258V79.4575H185.85V85.258H185.277ZM188.963 85.258L186.501 82.959C186.203 82.6854 186.126 82.4447 186.126 82.2696C186.126 81.9961 186.391 81.6897 186.579 81.5146L188.807 79.4575H189.591L186.987 81.8988C186.91 81.9754 186.744 82.1274 186.744 82.2708C186.744 82.3693 186.854 82.5225 186.922 82.5894L189.779 85.2592H188.963V85.258Z" fill="#0062A7"/>
<path d="M190.728 80.025C191.302 79.467 192.152 79.3916 192.892 79.3916C193.633 79.3916 194.481 79.4682 195.056 80.025C195.695 80.6499 195.784 81.6773 195.784 82.3241C195.784 83.5836 195.431 84.2948 195.056 84.6669C194.416 85.2918 193.411 85.3234 192.892 85.3234C192.374 85.3234 191.37 85.2918 190.728 84.6669C190.353 84.2948 190 83.5836 190 82.3241C190 81.6773 190.087 80.6499 190.728 80.025ZM191.093 84.2499C191.556 84.7532 192.295 84.8079 192.892 84.8079C193.489 84.8079 194.227 84.7532 194.692 84.2499C195.177 83.7234 195.166 82.8493 195.166 82.3776C195.166 81.8742 195.166 80.9551 194.703 80.4408C194.251 79.9484 193.445 79.9047 192.892 79.9047C192.339 79.9047 191.535 79.9484 191.082 80.4408C190.618 80.9551 190.618 81.8742 190.618 82.3776C190.618 82.8493 190.607 83.7246 191.093 84.2499Z" fill="#0062A7"/>
<path d="M200.384 84.9064C200.261 85.2018 200.018 85.3222 199.853 85.3222C199.687 85.3222 199.445 85.2018 199.323 84.9064L197.358 80.1892C197.346 80.1563 197.314 80.0907 197.281 80.0907C197.237 80.0907 197.237 80.1454 197.237 80.1673V85.2577H196.663V79.9934C196.663 79.6104 196.862 79.3916 197.215 79.3916C197.524 79.3916 197.667 79.5217 197.777 79.7855L199.732 84.448C199.787 84.5684 199.82 84.645 199.853 84.645C199.886 84.645 199.919 84.5684 199.976 84.448L201.928 79.7855C202.039 79.5217 202.182 79.3916 202.491 79.3916C202.844 79.3916 203.043 79.6104 203.043 79.9934V85.2577H202.469V80.1673C202.469 80.1454 202.469 80.0907 202.425 80.0907C202.392 80.0907 202.359 80.1563 202.348 80.1892L200.384 84.9064Z" fill="#0062A7"/>
<path d="M208.062 79.4561C208.426 79.4561 208.591 79.6092 208.656 79.7077C208.768 79.8719 208.779 80.1126 208.779 80.2986V85.2565H208.204V80.2986C208.204 80.2001 208.193 80.0688 208.149 80.0238C208.117 79.9922 208.006 79.9691 207.962 79.9691H204.96C204.916 79.9691 204.806 79.9922 204.772 80.0238C204.73 80.0676 204.717 80.2001 204.717 80.2986V85.2565H204.144V80.2986C204.144 80.1126 204.155 79.8706 204.265 79.7077C204.332 79.6092 204.497 79.4561 204.861 79.4561H208.062Z" fill="#0062A7"/>
<path d="M212.972 79.4561C213.369 79.4561 213.766 79.6092 213.999 79.8609C214.308 80.1904 214.352 80.6706 214.352 81.0208V84.4906C214.352 84.6438 214.34 84.9173 214.153 85.0924C213.976 85.2565 213.689 85.2565 213.49 85.2565H211.239C210.907 85.2565 210.499 85.2456 210.18 84.9939C209.695 84.6 209.662 83.811 209.662 83.4608C209.662 82.9903 209.728 82.4432 210.147 82.0931C210.468 81.8305 210.908 81.7867 211.241 81.7867H213.778V80.9223C213.778 80.7375 213.701 80.408 213.558 80.2342C213.435 80.0919 213.216 79.9703 212.94 79.9703H210.103V79.4561H212.972ZM211.107 82.3022C210.765 82.3022 210.555 82.4663 210.468 82.5867C210.325 82.7715 210.281 83.0779 210.281 83.4839C210.281 83.8341 210.313 84.2499 210.511 84.4906C210.634 84.6328 210.843 84.7423 211.086 84.7423H213.449C213.515 84.7423 213.625 84.7423 213.702 84.6754C213.78 84.6097 213.78 84.555 213.78 84.4784V82.301H211.107V82.3022Z" fill="#0062A7"/>
<path d="M219.538 85.258V82.5213H216.028V85.258H215.454V79.4575H216.028V82.0082H219.538V79.4575H220.111V85.258H219.538Z" fill="#0062A7"/>
<path d="M225.526 85.2577V80.2122C225.526 80.1466 225.539 80.0822 225.471 80.0822C225.46 80.0822 225.428 80.0931 225.35 80.2122L222.37 84.9076C222.182 85.1921 222.028 85.3234 221.74 85.3234C221.409 85.3234 221.21 85.1046 221.21 84.7216V79.4573H221.784V84.5027C221.784 84.5574 221.784 84.645 221.851 84.645C221.895 84.645 221.928 84.5781 221.972 84.5027L224.986 79.7417C225.129 79.512 225.328 79.3916 225.593 79.3916C226.089 79.3916 226.1 79.8949 226.1 80.0591V85.2577H225.526Z" fill="#0062A7"/>
<path d="M231.519 85.2577V80.2122C231.519 80.1465 231.531 80.0821 231.463 80.0821C231.452 80.0821 231.419 80.093 231.342 80.2122L228.362 84.9075C228.174 85.192 228.02 85.3233 227.732 85.3233C227.401 85.3233 227.202 85.1045 227.202 84.7215V79.4572H227.776V84.5027C227.776 84.5574 227.776 84.6449 227.843 84.6449C227.886 84.6449 227.921 84.578 227.965 84.5027L230.978 79.7417C231.121 79.5119 231.32 79.3915 231.585 79.3915C232.081 79.3915 232.092 79.8948 232.092 80.059V85.2577H231.519ZM230.404 78.3946C230.516 78.2961 230.636 78.0991 230.691 77.9229H231.353C231.265 78.2073 231.077 78.5684 230.813 78.7885C230.493 79.062 230.084 79.1386 229.687 79.1386C229.29 79.1386 228.882 79.062 228.562 78.7885C228.297 78.5684 228.109 78.2073 228.021 77.9229H228.683C228.738 78.0991 228.861 78.2961 228.97 78.3946C229.113 78.5247 229.356 78.6134 229.687 78.6134C230.019 78.6134 230.262 78.5247 230.404 78.3946Z" fill="#0062A7"/>
<path d="M236.483 81.8743C236.427 81.9619 236.361 82.0603 236.361 82.1819C236.361 82.3023 236.427 82.4008 236.483 82.4883L237.851 84.4469L237.376 84.7642L235.93 82.6622C235.841 82.5321 235.764 82.4105 235.764 82.1807C235.764 81.9509 235.841 81.8306 235.93 81.6993L237.376 79.5972L237.851 79.9145L236.483 81.8743ZM238.16 81.8318C238.128 81.8743 237.983 82.0834 237.983 82.1819C237.983 82.2585 238.027 82.3461 238.16 82.5321L239.053 83.8013L238.59 84.1187L237.586 82.6634C237.487 82.5211 237.387 82.3242 237.387 82.1819C237.387 82.0397 237.487 81.8427 237.586 81.7005L238.59 80.2452L239.053 80.5625L238.16 81.8318Z" fill="#0062A7"/>
<path d="M241.425 85.2575C241.16 85.2575 240.862 85.2685 240.62 85.0278C240.389 84.7992 240.377 84.4807 240.377 84.1962V78.6133C240.377 78.1647 240.544 77.9458 240.599 77.8802C240.82 77.6164 241.106 77.5957 241.404 77.5957H245.962V78.1209H241.493C241.371 78.1209 241.173 78.1647 241.097 78.2316C240.974 78.33 240.974 78.5379 240.974 78.6133V81.0753H245.852V81.6017H240.974V84.3263C240.974 84.4369 241.007 84.567 241.084 84.6339C241.173 84.6995 241.45 84.7323 241.581 84.7323H246.006V85.2575H241.425Z" fill="#0062A7"/>
<path d="M247.218 77.5957H247.814V85.2576H247.218V77.5957ZM252.792 85.2576L248.918 82.2923C248.521 81.9859 248.245 81.6236 248.245 81.3172C248.245 81.0108 248.543 80.6838 248.797 80.4856L252.416 77.5957H253.276L249.325 80.7689C249.182 80.8783 248.84 81.0984 248.84 81.3269C248.84 81.5677 249.172 81.8084 249.415 81.9956L253.685 85.2576H252.792Z" fill="#0062A7"/>
<path d="M256.631 85.2578C255.373 85.2578 254.666 84.7326 254.323 84.3934C253.661 83.7369 253.463 82.8275 253.463 81.5363C253.463 80.4968 253.54 79.3248 254.29 78.5248C254.556 78.2512 255.294 77.5947 256.664 77.5947H259.622V78.1199H256.918C256.344 78.1199 255.318 78.1868 254.678 79.0062C254.148 79.6859 254.104 80.6925 254.104 81.546C254.104 82.3338 254.148 83.1654 254.612 83.8001C254.865 84.1502 255.472 84.7314 256.752 84.7314H259.742V85.2566H256.631V85.2578Z" fill="#0062A7"/>
<path d="M260.975 80.2449L261.98 81.7002C262.079 81.8425 262.179 82.0394 262.179 82.1817C262.179 82.3227 262.079 82.5197 261.98 82.6631L260.976 84.1184L260.513 83.8011L261.406 82.5318C261.538 82.3458 261.583 82.2571 261.583 82.1817C261.583 82.0832 261.439 81.8741 261.406 81.8315L260.513 80.561L260.975 80.2449ZM262.19 79.5981L263.636 81.7002C263.725 81.8315 263.802 81.9519 263.802 82.1817C263.802 82.4102 263.725 82.5318 263.636 82.6631L262.19 84.7652L261.715 84.4479L263.083 82.4893C263.139 82.4017 263.205 82.3033 263.205 82.1829C263.205 82.0613 263.139 81.9628 263.083 81.8753L261.715 79.9167L262.19 79.5981Z" fill="#0062A7"/>
</svg>
